SplineFontDB: 3.0
FontName: Judson-Italic
FullName: Judson Italic
FamilyName: Judson
Weight: Regular
Copyright: Copyright (c) 2009, 2010, 2011 Daniel Johnson (<il.basso.buffo@gmail.com>).\n
Version: 20110907
ItalicAngle: -9.5
UnderlinePosition: -205
UnderlineWidth: 102
Ascent: 1638
Descent: 410
LayerCount: 2
Layer: 0 1 "Back"  1
Layer: 1 1 "Fore"  0
NeedsXUIDChange: 1
XUID: [1021 288 713564382 1304463]
FSType: 0
OS2Version: 2
OS2_WeightWidthSlopeOnly: 0
OS2_UseTypoMetrics: 1
CreationTime: 1283281667
ModificationTime: 1315423622
PfmFamily: 17
TTFWeight: 400
TTFWidth: 5
LineGap: 0
VLineGap: 0
Panose: 2 0 6 3 0 0 0 0 0 0
OS2TypoAscent: 1860
OS2TypoAOffset: 0
OS2TypoDescent: -523
OS2TypoDOffset: 0
OS2TypoLinegap: 0
OS2WinAscent: 1860
OS2WinAOffset: 0
OS2WinDescent: 523
OS2WinDOffset: 0
HheadAscent: 1860
HheadAOffset: 0
HheadDescent: -523
HheadDOffset: 0
OS2SubXSize: 1331
OS2SubYSize: 1432
OS2SubXOff: 47
OS2SubYOff: 287
OS2SupXSize: 1331
OS2SupYSize: 1432
OS2SupXOff: -162
OS2SupYOff: 981
OS2StrikeYSize: 100
OS2StrikeYPos: 528
OS2Vendor: 'PfEd'
OS2CodePages: 00000093.00000000
OS2UnicodeRanges: a00000ff.1000000b.00000000.00000000
Lookup: 260 0 0 "'blwm' Below Base Mark lookup 0"  {"'blwm' Below Base Mark lookup 0 subtable"  } ['blwm' ('DFLT' <'dflt' > 'grek' <'dflt' > 'latn' <'dflt' > ) ]
Lookup: 260 0 0 "'mark' Mark Positioning lookup 1"  {"'mark' Mark Positioning lookup 1 subtable"  } ['mark' ('DFLT' <'dflt' > 'grek' <'dflt' > 'latn' <'dflt' > ) ]
Lookup: 260 0 0 "'abvm' Above Base Mark lookup 2"  {"'abvm' Above Base Mark lookup 2 subtable"  } ['abvm' ('DFLT' <'dflt' > 'grek' <'dflt' > 'latn' <'dflt' > ) ]
Lookup: 262 0 0 "'mkmk' Mark to Mark lookup 3"  {"'mkmk' Mark to Mark lookup 3 subtable"  } ['mkmk' ('DFLT' <'dflt' > 'grek' <'dflt' > 'latn' <'dflt' > ) ]

StartChar: .notdef
Encoding: 65536 -1 0
Width: 1024
Flags: HW
LayerCount: 2
Fore
SplineSet
102 0 m 1,0,-1
 102 1092 l 1,1,-1
 922 1092 l 1,2,-1
 922 0 l 1,3,-1
 102 0 l 1,0,-1
205 102 m 1,4,-1
 819 102 l 1,5,-1
 819 989 l 1,6,-1
 205 989 l 1,7,-1
 205 102 l 1,4,-1
EndSplineSet
EndChar

StartChar: exclam
Encoding: 33 33 4
Width: 485
GlyphClass: 2
Flags: HW
LayerCount: 2
Fore
SplineSet
81.5 11 m 128,-1,1
 51 42 51 42 51 92 c 128,-1,2
 51 142 51 142 94 187.5 c 128,-1,3
 137 233 137 233 187 233 c 128,-1,4
 237 233 237 233 269 202.5 c 128,-1,5
 301 172 301 172 301 122.5 c 128,-1,6
 301 73 301 73 256.5 26.5 c 128,-1,7
 212 -20 212 -20 162 -20 c 128,-1,0
 112 -20 112 -20 81.5 11 c 128,-1,1
219 381 m 0,8,9
 195 381 195 381 195 460.5 c 128,-1,10
 195 540 195 540 216.5 817.5 c 128,-1,11
 238 1095 238 1095 256 1198 c 0,12,13
 263 1243 263 1243 295 1266.5 c 128,-1,14
 327 1290 327 1290 368.5 1290 c 128,-1,15
 410 1290 410 1290 434.5 1271 c 128,-1,16
 459 1252 459 1252 459 1228 c 128,-1,17
 459 1204 459 1204 452.5 1164.5 c 128,-1,18
 446 1125 446 1125 375.5 846.5 c 128,-1,19
 305 568 305 568 291 520 c 0,20,21
 249 381 249 381 219 381 c 0,8,9
EndSplineSet
EndChar

StartChar: quotedbl
Encoding: 34 34 5
Width: 684
GlyphClass: 2
Flags: HW
LayerCount: 2
Fore
SplineSet
643 1028 m 2,0,1
 580 836 580 836 548 836 c 128,-1,2
 516 836 516 836 516 1012 c 128,-1,3
 516 1188 516 1188 529.5 1275 c 128,-1,4
 543 1362 543 1362 629 1362 c 128,-1,5
 715 1362 715 1362 715 1292 c 0,6,7
 715 1244 715 1244 679.5 1137.5 c 2,8,-1
 643 1028 l 2,0,1
315 1028 m 2,9,10
 252 836 252 836 220 836 c 128,-1,11
 188 836 188 836 188 1008.5 c 128,-1,12
 188 1181 188 1181 202 1271.5 c 128,-1,13
 216 1362 216 1362 301.5 1362 c 128,-1,14
 387 1362 387 1362 387 1292 c 0,15,16
 387 1244 387 1244 351.5 1137.5 c 2,17,-1
 315 1028 l 2,9,10
EndSplineSet
EndChar

StartChar: numbersign
Encoding: 35 35 6
Width: 997
GlyphClass: 2
Flags: HW
LayerCount: 2
Fore
SplineSet
889 471 m 1,0,-1
 879 401 l 1,1,-1
 643 401 l 1,2,-1
 520 0 l 1,3,-1
 449 0 l 1,4,-1
 571 401 l 1,5,-1
 315 401 l 1,6,-1
 193 0 l 1,7,-1
 121 0 l 1,8,-1
 244 401 l 1,9,-1
 49 401 l 1,10,-1
 59 471 l 1,11,-1
 264 471 l 1,12,-1
 346 729 l 1,13,-1
 135 729 l 1,14,-1
 145 799 l 1,15,-1
 367 799 l 1,16,-1
 489 1198 l 1,17,-1
 561 1198 l 1,18,-1
 438 799 l 1,19,-1
 694 799 l 1,20,-1
 817 1198 l 1,21,-1
 889 1198 l 1,22,-1
 766 799 l 1,23,-1
 975 799 l 1,24,-1
 965 729 l 1,25,-1
 745 729 l 1,26,-1
 664 471 l 1,27,-1
 889 471 l 1,0,-1
336 471 m 1,28,-1
 592 471 l 1,29,-1
 674 729 l 1,30,-1
 418 729 l 1,31,-1
 336 471 l 1,28,-1
EndSplineSet
EndChar

StartChar: dollar
Encoding: 36 36 7
Width: 933
GlyphClass: 2
Flags: HW
LayerCount: 2
Fore
SplineSet
608 1217 m 1,0,1
 754.658666667 1199.94666667 754.658666667 1199.94666667 858 1106 c 1,2,-1
 831 938 l 1,3,-1
 786 938 l 1,4,5
 786 1023 786 1023 741 1079.5 c 128,-1,6
 696 1136 696 1136 598 1147 c 1,7,-1
 526 723 l 1,8,9
 661 638 661 638 711 595 c 0,10,11
 838 485 838 485 838 354 c 0,12,13
 838 146.447368421 838 146.447368421 640 40.5 c 0,14,15
 530.91461048 -17.8702522872 530.91461048 -17.8702522872 401 -20 c 1,16,-1
 393 -74 l 1,17,-1
 332 -74 l 1,18,-1
 340 -18 l 1,19,20
 254 -11 254 -11 177 17.5 c 128,-1,21
 100 46 100 46 66 70 c 2,22,-1
 31 94 l 1,23,-1
 61 285 l 1,24,-1
 106 285 l 1,25,26
 107 173 107 173 175.5 116 c 128,-1,27
 244 59 244 59 352 51 c 1,28,-1
 432 524 l 1,29,30
 314 601 314 601 271 641 c 0,31,32
 164 739 164 739 164 843 c 128,-1,33
 164 947 164 947 220.5 1031.5 c 128,-1,34
 277 1116 277 1116 366 1166 c 128,-1,35
 455 1216 455 1216 549 1219 c 1,36,-1
 557 1270 l 1,37,-1
 618 1270 l 1,38,-1
 608 1217 l 1,0,1
471 760 m 1,39,-1
 537 1149 l 1,40,41
 444 1145 444 1145 387 1079.5 c 128,-1,42
 330 1014 330 1014 330 951 c 128,-1,43
 330 888 330 888 366.5 846.5 c 128,-1,44
 403 805 403 805 471 760 c 1,39,-1
487 489 m 1,45,-1
 414 49 l 1,46,47
 518 52 518 52 587.5 111 c 128,-1,48
 657 170 657 170 657 279 c 0,49,50
 657 344 657 344 614 390 c 128,-1,51
 571 436 571 436 487 489 c 1,45,-1
EndSplineSet
EndChar

StartChar: percent
Encoding: 37 37 8
Width: 1110
GlyphClass: 2
Flags: HW
LayerCount: 2
Fore
SplineSet
1049 1157 m 1,0,-1
 170 41 l 1,1,-1
 88 41 l 1,2,-1
 967 1157 l 1,3,-1
 1049 1157 l 1,0,-1
431.5 1096 m 128,-1,5
 412 1135 412 1135 376.5 1135 c 128,-1,6
 341 1135 341 1135 297.5 1061 c 128,-1,7
 254 987 254 987 254 919 c 128,-1,8
 254 851 254 851 273.5 812.5 c 128,-1,9
 293 774 293 774 328.5 774 c 128,-1,10
 364 774 364 774 407.5 848.5 c 128,-1,11
 451 923 451 923 451 990 c 128,-1,4
 451 1057 451 1057 431.5 1096 c 128,-1,5
182 763 m 128,-1,13
 129 821 129 821 129 925.5 c 128,-1,14
 129 1030 129 1030 213 1117 c 128,-1,15
 297 1204 297 1204 383 1204 c 128,-1,16
 469 1204 469 1204 522 1145.5 c 128,-1,17
 575 1087 575 1087 575 982.5 c 128,-1,18
 575 878 575 878 491 791.5 c 128,-1,19
 407 705 407 705 321 705 c 128,-1,12
 235 705 235 705 182 763 c 128,-1,13
861.5 385.5 m 128,-1,21
 842 424 842 424 806.5 424 c 128,-1,22
 771 424 771 424 727.5 350.5 c 128,-1,23
 684 277 684 277 684 209 c 128,-1,24
 684 141 684 141 703.5 102 c 128,-1,25
 723 63 723 63 758.5 63 c 128,-1,26
 794 63 794 63 837.5 137 c 128,-1,27
 881 211 881 211 881 279 c 128,-1,20
 881 347 881 347 861.5 385.5 c 128,-1,21
611 52.5 m 128,-1,29
 559 111 559 111 559 215.5 c 128,-1,30
 559 320 559 320 643 407 c 128,-1,31
 727 494 727 494 813 494 c 128,-1,32
 899 494 899 494 952.5 435.5 c 128,-1,33
 1006 377 1006 377 1006 273 c 128,-1,34
 1006 169 1006 169 920.5 81.5 c 128,-1,35
 835 -6 835 -6 749 -6 c 128,-1,28
 663 -6 663 -6 611 52.5 c 128,-1,29
EndSplineSet
EndChar

StartChar: ampersand
Encoding: 38 38 9
Width: 1239
GlyphClass: 2
Flags: HW
LayerCount: 2
Fore
SplineSet
694 1147 m 128,-1,1
 622 1147 622 1147 586.5 1075.5 c 128,-1,2
 551 1004 551 1004 551 914.5 c 128,-1,3
 551 825 551 825 567 731 c 1,4,5
 662.614558473 792.193317422 662.614558473 792.193317422 700.807279236 839.096658711 c 0,6,7
 766 919.157894737 766 919.157894737 766 1033.07894737 c 128,-1,0
 766 1147 766 1147 694 1147 c 128,-1,1
1196 707 m 1,8,-1
 1188 664 l 1,9,10
 1070 664 1070 664 1053 625 c 1,11,12
 906.382278481 322.202531646 906.382278481 322.202531646 782 184 c 1,13,14
 853 90 853 90 920.5 90 c 128,-1,15
 988 90 988 90 1022 105 c 128,-1,16
 1056 120 1056 120 1096 166 c 1,17,-1
 1116 145 l 1,18,19
 1074 68 1074 68 1019.5 24 c 128,-1,20
 965 -20 965 -20 862 -20 c 128,-1,21
 759 -20 759 -20 662 74 c 1,22,23
 527 -20 527 -20 375 -20 c 0,24,25
 -2 -20 -2 -20 -2 205 c 0,26,27
 -2 313 -2 313 56 389 c 0,28,29
 116.026622296 467.655574043 116.026622296 467.655574043 181.013311148 509.827787022 c 0,30,31
 293 582.5 293 582.5 406 639 c 1,32,33
 383 760 383 760 383 862.5 c 128,-1,34
 383 965 383 965 410 1037.5 c 128,-1,35
 437 1110 437 1110 481 1147.5 c 0,36,37
 564.893333333 1219 564.893333333 1219 659.946666667 1219 c 128,-1,38
 755 1219 755 1219 804.5 1163 c 128,-1,39
 854 1107 854 1107 854 1041.5 c 128,-1,40
 854 976 854 976 837.5 929 c 128,-1,41
 821 882 821 882 797 846 c 128,-1,42
 773 810 773 810 734.5 773 c 0,43,44
 676.76892822 717.518190757 676.76892822 717.518190757 584 655 c 1,45,46
 642 411 642 411 748 238 c 1,47,48
 847 363 847 363 973 631 c 1,49,50
 959 664 959 664 852 664 c 1,51,-1
 860 707 l 1,52,-1
 1196 707 l 1,8,-1
623 117 m 1,53,54
 494 273 494 273 426 551 c 1,55,56
 324.511363636 483.340909091 324.511363636 483.340909091 282.255681818 436.670454545 c 128,-1,57
 240 390 240 390 225.5 347 c 128,-1,58
 211 304 211 304 211 250 c 0,59,60
 211 66 211 66 465 66 c 0,61,62
 547 66 547 66 623 117 c 1,53,54
EndSplineSet
EndChar

StartChar: quotesingle
Encoding: 39 39 10
Width: 356
GlyphClass: 2
Flags: HW
LayerCount: 2
Fore
SplineSet
315 1028 m 2,0,1
 252 836 252 836 220 836 c 128,-1,2
 188 836 188 836 188 1008.5 c 128,-1,3
 188 1181 188 1181 202 1271.5 c 128,-1,4
 216 1362 216 1362 301.5 1362 c 128,-1,5
 387 1362 387 1362 387 1292 c 0,6,7
 387 1244 387 1244 351.5 1137.5 c 2,8,-1
 315 1028 l 2,0,1
EndSplineSet
EndChar

StartChar: parenleft
Encoding: 40 40 11
Width: 507
GlyphClass: 2
Flags: HW
LayerCount: 2
Fore
SplineSet
94 485 m 0,0,1
 94 542 94 542 111.5 654.5 c 128,-1,2
 129 767 129 767 179 887 c 128,-1,3
 229 1007 229 1007 294 1102.5 c 0,4,5
 403.565068493 1263.47636986 403.565068493 1263.47636986 508 1370 c 0,6,7
 531 1393 531 1393 545 1393 c 128,-1,8
 559 1393 559 1393 559 1374 c 0,9,10
 559 1365.52173913 559 1365.52173913 531 1319.26086957 c 128,-1,11
 503 1273 503 1273 497.5 1263.5 c 128,-1,12
 492 1254 492 1254 469.5 1215 c 128,-1,13
 447 1176 447 1176 439 1157.5 c 128,-1,14
 431 1139 431 1139 411 1097 c 128,-1,15
 391 1055 391 1055 380.5 1025 c 128,-1,16
 370 995 370 995 353.5 947.5 c 128,-1,17
 337 900 337 900 326 856.5 c 0,18,19
 252 563.863636364 252 563.863636364 252 338 c 0,20,21
 252 207.333333333 252 207.333333333 268 132.666666667 c 128,-1,22
 284 58 284 58 287.5 43.5 c 128,-1,23
 291 29 291 29 302.5 -13.5 c 128,-1,24
 314 -56 314 -56 316 -66.5 c 128,-1,25
 318 -77 318 -77 312.5 -89.5 c 128,-1,26
 307 -102 307 -102 293 -102 c 128,-1,27
 279 -102 279 -102 264 -80 c 1,28,29
 94 192 94 192 94 485 c 0,0,1
EndSplineSet
EndChar

StartChar: parenright
Encoding: 41 41 12
Width: 505
GlyphClass: 2
Flags: HW
LayerCount: 2
Fore
SplineSet
453 805 m 0,0,1
 453 734 453 734 438.5 640 c 128,-1,2
 424 546 424 546 385.5 445.5 c 128,-1,3
 347 345 347 345 304.5 269.5 c 128,-1,4
 262 194 262 194 207.5 119.5 c 0,5,6
 129.337008959 12.6533425224 129.337008959 12.6533425224 39 -80 c 0,7,8
 17 -102 17 -102 2.5 -102 c 128,-1,9
 -12 -102 -12 -102 -12 -84 c 0,10,11
 -12 -73.82 -12 -73.82 18.5 -24.41 c 128,-1,12
 49 25 49 25 56.5 38.5 c 128,-1,13
 64 52 64 52 87.5 93.5 c 128,-1,14
 111 135 111 135 122 160.5 c 128,-1,15
 133 186 133 186 153.5 231.5 c 128,-1,16
 174 277 174 277 187 317.5 c 128,-1,17
 200 358 200 358 216 411 c 0,18,19
 243.35600907 501.616780045 243.35600907 501.616780045 269.178004535 654.808390023 c 128,-1,20
 295 808 295 808 295 903 c 128,-1,21
 295 998 295 998 291.5 1043.5 c 128,-1,22
 288 1089 288 1089 284.5 1119.5 c 128,-1,23
 281 1150 281 1150 272 1190.5 c 128,-1,24
 263 1231 263 1231 259 1248 c 128,-1,25
 255 1265 255 1265 244 1304.5 c 128,-1,26
 233 1344 233 1344 230.5 1355.5 c 128,-1,27
 228 1367 228 1367 235 1380 c 128,-1,28
 242 1393 242 1393 255 1393 c 128,-1,29
 268 1393 268 1393 283 1370 c 0,30,31
 453 1098 453 1098 453 805 c 0,0,1
EndSplineSet
EndChar

StartChar: asterisk
Encoding: 42 42 13
Width: 737
GlyphClass: 2
Flags: HW
LayerCount: 2
Fore
SplineSet
221 963 m 0,0,1
 168 963 168 963 168 1020 c 0,2,3
 168 1066 168 1066 201 1103.5 c 128,-1,4
 234 1141 234 1141 268 1141 c 0,5,6
 273 1141 273 1141 290 1136 c 128,-1,7
 307 1131 307 1131 346.5 1080.5 c 128,-1,8
 386 1030 386 1030 391 1008 c 1,9,10
 407 1034 407 1034 442 1038 c 1,11,12
 428 1050 428 1050 405.5 1109.5 c 128,-1,13
 383 1169 383 1169 383 1199 c 128,-1,14
 383 1229 383 1229 414 1249.5 c 128,-1,15
 445 1270 445 1270 482.5 1270 c 128,-1,16
 520 1270 520 1270 541.5 1254 c 128,-1,17
 563 1238 563 1238 563 1211.5 c 128,-1,18
 563 1185 563 1185 518.5 1118.5 c 128,-1,19
 474 1052 474 1052 451 1038 c 1,20,21
 483 1035 483 1035 489 1006 c 1,22,23
 497 1025 497 1025 557.5 1078 c 128,-1,24
 618 1131 618 1131 636.5 1136 c 128,-1,25
 655 1141 655 1141 672 1141 c 128,-1,26
 689 1141 689 1141 707 1117 c 128,-1,27
 725 1093 725 1093 725 1056 c 128,-1,28
 725 1019 725 1019 704.5 991 c 128,-1,29
 684 963 684 963 649 963 c 128,-1,30
 614 963 614 963 557.5 975 c 128,-1,31
 501 987 501 987 489 997 c 1,32,33
 495 976 495 976 465 946 c 1,34,35
 488 946 488 946 548.5 914.5 c 128,-1,36
 609 883 609 883 617 866 c 128,-1,37
 625 849 625 849 625 838 c 0,38,39
 625 799 625 799 582.5 766 c 128,-1,40
 540 733 540 733 504 733 c 128,-1,41
 468 733 468 733 457 754 c 128,-1,42
 446 775 446 775 446 824.5 c 0,43,44
 446 918.333333333 446 918.333333333 459 940 c 1,45,46
 446 932 446 932 430.5 932 c 128,-1,47
 415 932 415 932 403 938 c 1,48,49
 403 901.545454545 403 901.545454545 382 837.272727273 c 128,-1,50
 361 773 361 773 341 753 c 128,-1,51
 321 733 321 733 289 733 c 128,-1,52
 257 733 257 733 229 759 c 128,-1,53
 201 785 201 785 201 814 c 128,-1,54
 201 843 201 843 218 863 c 128,-1,55
 235 883 235 883 303.5 913.5 c 128,-1,56
 372 944 372 944 395 946 c 1,57,58
 377.444444444 963.555555556 377.444444444 963.555555556 387 997 c 1,59,60
 368 987 368 987 310.5 975 c 128,-1,61
 253 963 253 963 221 963 c 0,0,1
EndSplineSet
EndChar

StartChar: plus
Encoding: 43 43 14
Width: 827
GlyphClass: 2
Flags: HW
LayerCount: 2
Fore
SplineSet
471 606 m 1,0,-1
 422 317 l 1,1,-1
 332 317 l 1,2,-1
 381 606 l 1,3,-1
 92 606 l 1,4,-1
 106 696 l 1,5,-1
 395 696 l 1,6,-1
 442 985 l 1,7,-1
 532 985 l 1,8,-1
 485 696 l 1,9,-1
 774 696 l 1,10,-1
 760 606 l 1,11,-1
 471 606 l 1,0,-1
EndSplineSet
EndChar

StartChar: comma
Encoding: 44 44 15
Width: 468
GlyphClass: 2
Flags: HW
LayerCount: 2
Fore
SplineSet
127 -12 m 0,0,1
 37 -12 37 -12 37 80.5 c 0,2,3
 37 131 37 131 85.5 168 c 128,-1,4
 134 205 134 205 186 205 c 128,-1,5
 238 205 238 205 273.5 156 c 128,-1,6
 309 107 309 107 309 35 c 0,7,8
 309 -170 309 -170 8 -264 c 1,9,-1
 18 -207 l 1,10,11
 71 -200 71 -200 133.5 -150 c 128,-1,12
 196 -100 196 -100 204 -49.5 c 128,-1,13
 212 1 212 1 210 7.5 c 128,-1,14
 208 14 208 14 199 14 c 128,-1,15
 190 14 190 14 169.5 1 c 128,-1,16
 149 -12 149 -12 127 -12 c 0,0,1
EndSplineSet
EndChar

StartChar: hyphen
Encoding: 45 45 16
Width: 802
GlyphClass: 2
Flags: HW
LayerCount: 2
Fore
SplineSet
158 696 m 1,0,-1
 698 696 l 1,1,-1
 684 606 l 1,2,-1
 143 606 l 1,3,-1
 158 696 l 1,0,-1
EndSplineSet
EndChar

StartChar: period
Encoding: 46 46 17
Width: 452
GlyphClass: 2
Flags: HW
LayerCount: 2
Fore
SplineSet
71 11 m 128,-1,1
 41 42 41 42 41 92.5 c 128,-1,2
 41 143 41 143 84 188 c 128,-1,3
 127 233 127 233 176.5 233 c 128,-1,4
 226 233 226 233 258.5 202.5 c 128,-1,5
 291 172 291 172 291 122.5 c 128,-1,6
 291 73 291 73 246 26.5 c 128,-1,7
 201 -20 201 -20 151 -20 c 128,-1,0
 101 -20 101 -20 71 11 c 128,-1,1
EndSplineSet
EndChar

StartChar: slash
Encoding: 47 47 18
Width: 952
GlyphClass: 2
Flags: HW
LayerCount: 2
Fore
SplineSet
-43 -20 m 1,0,-1
 967 1253 l 1,1,-1
 1020 1217 l 1,2,-1
 10 -57 l 1,3,-1
 -43 -20 l 1,0,-1
EndSplineSet
EndChar

StartChar: zero
Encoding: 48 48 19
Width: 1003
GlyphClass: 2
Flags: HW
LayerCount: 2
Fore
SplineSet
821 1052.5 m 128,-1,1
 776 1155 776 1155 691 1155 c 128,-1,2
 606 1155 606 1155 521.5 1036.5 c 128,-1,3
 437 918 437 918 387.5 744 c 128,-1,4
 338 570 338 570 338 437 c 128,-1,5
 338 304 338 304 357 223 c 128,-1,6
 376 142 376 142 415.5 92.5 c 128,-1,7
 455 43 455 43 510 43 c 0,8,9
 599 43 599 43 683 161 c 128,-1,10
 767 279 767 279 816.5 452.5 c 128,-1,11
 866 626 866 626 866 788 c 128,-1,0
 866 950 866 950 821 1052.5 c 128,-1,1
192.5 202.5 m 128,-1,13
 156 303 156 303 156 412 c 128,-1,14
 156 521 156 521 173.5 622 c 128,-1,15
 191 723 191 723 238.5 834.5 c 128,-1,16
 286 946 286 946 354 1032 c 128,-1,17
 422 1118 422 1118 513.5 1168.5 c 128,-1,18
 605 1219 605 1219 707 1219 c 0,19,20
 873 1219 873 1219 961 1091.5 c 128,-1,21
 1049 964 1049 964 1049 762 c 0,22,23
 1049 684 1049 684 1034 598 c 0,24,25
 973.925895087 237.555370525 973.925895087 237.555370525 747.5 66.5 c 0,26,27
 633 -20 633 -20 509.5 -20 c 128,-1,28
 386 -20 386 -20 307.5 41 c 128,-1,12
 229 102 229 102 192.5 202.5 c 128,-1,13
EndSplineSet
EndChar

StartChar: one
Encoding: 49 49 20
Width: 1003
GlyphClass: 2
Flags: HW
LayerCount: 2
Fore
SplineSet
860 1198 m 1,0,-1
 680 125 l 1,1,2
 680 119 l 2,3,4
 680 80 680 80 758 61.5 c 128,-1,5
 836 43 836 43 920 43 c 1,6,-1
 911 0 l 1,7,-1
 219 0 l 1,8,-1
 227 43 l 1,9,10
 355.7 43 355.7 43 421.35 69 c 128,-1,11
 487 95 487 95 492 125 c 2,12,-1
 623 909 l 1,13,14
 519 851 519 851 381 760 c 1,15,-1
 373 795 l 1,16,-1
 805 1198 l 1,17,-1
 860 1198 l 1,0,-1
EndSplineSet
EndChar

StartChar: two
Encoding: 50 50 21
Width: 1003
GlyphClass: 2
Flags: HW
LayerCount: 2
Fore
SplineSet
82 0 m 1,0,1
 89.4600262123 41.0301441678 89.4600262123 41.0301441678 278 190 c 0,2,3
 464.690922731 337.508877219 464.690922731 337.508877219 625.5 514.5 c 0,4,5
 705 602 705 602 758 704.5 c 128,-1,6
 811 807 811 807 811 894 c 128,-1,7
 811 981 811 981 771 1038.5 c 128,-1,8
 731 1096 731 1096 653.5 1096 c 128,-1,9
 576 1096 576 1096 517.5 1081.5 c 128,-1,10
 459 1067 459 1067 422.5 1045 c 128,-1,11
 386 1023 386 1023 357 997.5 c 128,-1,12
 328 972 328 972 313 950 c 0,13,14
 278.227272727 899 278.227272727 899 268 899 c 0,15,16
 239.123076923 899 239.123076923 899 276 969.5 c 0,17,18
 318.636112645 1051.01021535 318.636112645 1051.01021535 414 1127.5 c 0,19,20
 462 1166 462 1166 535 1192.5 c 128,-1,21
 608 1219 608 1219 690 1219 c 0,22,23
 857 1219 857 1219 937.5 1142 c 128,-1,24
 1018 1065 1018 1065 1018 942 c 0,25,26
 1018 816.413793103 1018 816.413793103 888 664 c 0,27,28
 776.355642023 533.106614786 776.355642023 533.106614786 662.677821012 435.553307393 c 128,-1,29
 549 338 549 338 490 288 c 0,30,31
 357.444078947 175.664473684 357.444078947 175.664473684 352 143 c 1,32,-1
 784 143 l 1,33,34
 815 155 815 155 857 189 c 128,-1,35
 899 223 899 223 926 272 c 1,36,-1
 967 272 l 1,37,-1
 844 0 l 1,38,-1
 82 0 l 1,0,1
EndSplineSet
EndChar

StartChar: three
Encoding: 51 51 22
Width: 1003
GlyphClass: 2
Flags: HW
LayerCount: 2
Fore
SplineSet
637 606 m 1,0,-1
 535 596 l 1,1,2
 520 596 520 596 509.5 603.5 c 128,-1,3
 499 611 499 611 500 621 c 128,-1,4
 501 631 501 631 516 637 c 1,5,6
 622.621359223 668.359223301 622.621359223 668.359223301 714 732.5 c 0,7,8
 829 813.221153846 829 813.221153846 829 948 c 0,9,10
 829 1017 829 1017 780 1056.5 c 128,-1,11
 731 1096 731 1096 650.5 1096 c 128,-1,12
 570 1096 570 1096 515 1079.5 c 128,-1,13
 460 1063 460 1063 429.5 1039.5 c 128,-1,14
 399 1016 399 1016 378.5 992.5 c 128,-1,15
 358 969 358 969 345.5 952.5 c 128,-1,16
 333 936 333 936 326 936 c 0,17,18
 297.084745763 936 297.084745763 936 331.5 1001.5 c 0,19,20
 369.29512894 1073.43266476 369.29512894 1073.43266476 431.14756447 1123.21633238 c 0,21,22
 550.151515152 1219 550.151515152 1219 682 1219 c 0,23,24
 856 1219 856 1219 935 1165 c 128,-1,25
 1014 1111 1014 1111 1014 1004 c 0,26,27
 1014 847.304878049 1014 847.304878049 860 736.5 c 0,28,29
 819 707 819 707 764 678 c 1,30,31
 850 657 850 657 908.5 573 c 128,-1,32
 967 489 967 489 967 397 c 128,-1,33
 967 305 967 305 939 232 c 128,-1,34
 911 159 911 159 854 101.5 c 0,35,36
 733.556521739 -20 733.556521739 -20 479 -20 c 0,37,38
 317.818181818 -20 317.818181818 -20 213.5 47.5 c 0,39,40
 123 106.058823529 123 106.058823529 123 145 c 0,41,42
 123 204 123 204 148.5 231 c 128,-1,43
 174 258 174 258 203.5 258 c 128,-1,44
 233 258 233 258 243.5 242 c 128,-1,45
 254 226 254 226 258.5 202 c 128,-1,46
 263 178 263 178 276 149.5 c 128,-1,47
 289 121 289 121 308 97 c 0,48,49
 352.333333333 41 352.333333333 41 477 41 c 0,50,51
 675.159090909 41 675.159090909 41 752 188 c 0,52,53
 793 266.434782609 793 266.434782609 793 373 c 0,54,55
 793 530.184615385 793 530.184615385 713.5 584 c 0,56,57
 681 606 681 606 637 606 c 1,0,-1
EndSplineSet
EndChar

StartChar: four
Encoding: 52 52 23
Width: 1003
GlyphClass: 2
Flags: HW
LayerCount: 2
Fore
SplineSet
764 84 m 1,0,1
 775.181818182 43 775.181818182 43 887 43 c 1,2,-1
 879 0 l 1,3,-1
 436 0 l 1,4,-1
 444 43 l 1,5,6
 557.636363636 43 557.636363636 43 580 84 c 1,7,-1
 625 360 l 1,8,-1
 139 360 l 1,9,-1
 844 1198 l 1,10,-1
 950 1198 l 1,11,-1
 819 422 l 1,12,-1
 985 422 l 1,13,-1
 975 360 l 1,14,-1
 809 360 l 1,15,-1
 764 84 l 1,0,1
635 422 m 1,16,-1
 727 973 l 1,17,-1
 262 422 l 1,18,-1
 635 422 l 1,16,-1
EndSplineSet
EndChar

StartChar: five
Encoding: 53 53 24
Width: 1003
GlyphClass: 2
Flags: HW
LayerCount: 2
Fore
SplineSet
424 793 m 1,0,1
 775.697674419 793 775.697674419 793 905 654 c 0,2,3
 977 576.6 977 576.6 977 465 c 0,4,5
 977 221 977 221 813.5 81.5 c 0,6,7
 694.537634409 -20 694.537634409 -20 504 -20 c 0,8,9
 296.195652174 -20 296.195652174 -20 179.5 68 c 0,10,11
 123 110.606557377 123 110.606557377 123 143 c 0,12,13
 123 202 123 202 149 230 c 128,-1,14
 175 258 175 258 204 258 c 128,-1,15
 233 258 233 258 243 242 c 128,-1,16
 253 226 253 226 256.5 202 c 128,-1,17
 260 178 260 178 274 149.5 c 128,-1,18
 288 121 288 121 310 97 c 0,19,20
 361.333333333 41 361.333333333 41 502 41 c 0,21,22
 577 41 577 41 637 79.5 c 128,-1,23
 697 118 697 118 731.5 178.5 c 0,24,25
 801 300.376811594 801 300.376811594 801 430 c 0,26,27
 801 713 801 713 328 713 c 1,28,-1
 477 1198 l 1,29,-1
 1049 1198 l 1,30,-1
 975 1055 l 1,31,-1
 504 1055 l 1,32,-1
 424 793 l 1,0,1
EndSplineSet
EndChar

StartChar: six
Encoding: 54 54 25
Width: 1003
GlyphClass: 2
Flags: HW
LayerCount: 2
Fore
SplineSet
784 487 m 0,0,1
 784 688 784 688 625 688 c 0,2,3
 488 688 488 688 412 641 c 1,4,5
 354 457 354 457 354 314 c 128,-1,6
 354 171 354 171 400.5 108 c 128,-1,7
 447 45 447 45 522 45 c 0,8,9
 619 45 619 45 701.5 179.5 c 128,-1,10
 784 314 784 314 784 487 c 0,0,1
434 709 m 1,11,12
 524 758 524 758 633 758 c 0,13,14
 817 758 817 758 894 690.5 c 128,-1,15
 971 623 971 623 971 496 c 0,16,17
 971 263 971 263 843 121.5 c 128,-1,18
 715 -20 715 -20 510 -20 c 0,19,20
 344 -20 344 -20 259 77.5 c 128,-1,21
 174 175 174 175 174 322.5 c 128,-1,22
 174 470 174 470 211.5 592.5 c 128,-1,23
 249 715 249 715 311 808.5 c 128,-1,24
 373 902 373 902 450 981 c 128,-1,25
 527 1060 527 1060 608 1113 c 0,26,27
 775.946676971 1222.89103555 775.946676971 1222.89103555 893 1235 c 1,28,-1
 911 1198 l 1,29,30
 753 1159 753 1159 629.5 1034.5 c 128,-1,31
 506 910 506 910 434 709 c 1,11,12
EndSplineSet
EndChar

StartChar: seven
Encoding: 55 55 26
Width: 1003
GlyphClass: 2
Flags: HW
LayerCount: 2
Fore
SplineSet
905 1055 m 1,0,-1
 457 1055 l 1,1,2
 426 1043 426 1043 384 1009 c 128,-1,3
 342 975 342 975 315 926 c 1,4,-1
 274 926 l 1,5,-1
 397 1198 l 1,6,-1
 1085 1198 l 1,7,8
 1079.27782041 1159.3752878 1079.27782041 1159.3752878 820.5 709.5 c 0,9,10
 723 540 723 540 632.5 341.5 c 128,-1,11
 542 143 542 143 522 23 c 0,12,13
 518 2 518 2 492 -9 c 128,-1,14
 466 -20 466 -20 438 -20 c 0,15,16
 375 -20 375 -20 375 16 c 0,17,18
 375 145.483660131 375 145.483660131 557.5 458 c 0,19,20
 634 589 634 589 711 713 c 0,21,22
 899.243840809 1016.14592546 899.243840809 1016.14592546 905 1055 c 1,0,-1
EndSplineSet
EndChar

StartChar: eight
Encoding: 56 56 27
Width: 1003
GlyphClass: 2
Flags: HW
LayerCount: 2
Fore
SplineSet
674 664 m 1,0,1
 750.88372093 702.441860465 750.88372093 702.441860465 802.941860465 758.720930233 c 0,2,3
 899 862.567567568 899 862.567567568 899 995 c 0,4,5
 899 1070 899 1070 852.5 1111.5 c 128,-1,6
 806 1153 806 1153 735 1153 c 0,7,8
 617 1153 617 1153 545 1092 c 128,-1,9
 473 1031 473 1031 473 920 c 0,10,11
 473 874.290322581 473 874.290322581 500.5 836.14516129 c 128,-1,12
 528 798 528 798 559.5 766.5 c 0,13,14
 592 734 592 734 674 664 c 1,0,1
1034 991 m 0,15,16
 1034 758 1034 758 729 616 c 1,17,18
 828 530 828 530 882 456 c 128,-1,19
 936 382 936 382 936 295 c 0,20,21
 936 156 936 156 810 68 c 128,-1,22
 684 -20 684 -20 508 -20 c 128,-1,23
 332 -20 332 -20 243 44 c 128,-1,24
 154 108 154 108 154 219 c 0,25,26
 154 411.367346939 154 411.367346939 361 555 c 0,27,28
 410 589 410 589 465 616 c 1,29,30
 384 688 384 688 338.5 758.5 c 128,-1,31
 293 829 293 829 293 909 c 0,32,33
 293 1044 293 1044 409.5 1131.5 c 128,-1,34
 526 1219 526 1219 699 1219 c 0,35,36
 1034 1219 1034 1219 1034 991 c 0,15,16
520 567 m 1,37,38
 357.598105548 476.776725304 357.598105548 476.776725304 306 323.5 c 0,39,40
 289 273 289 273 289 208.5 c 128,-1,41
 289 144 289 144 343 94.5 c 128,-1,42
 397 45 397 45 471 45 c 0,43,44
 590 45 590 45 674 112 c 128,-1,45
 758 179 758 179 758 285 c 0,46,47
 758 363.576923077 758 363.576923077 646 460.5 c 0,48,49
 620 483 620 483 607 494.5 c 128,-1,50
 594 506 594 506 563 531.5 c 128,-1,51
 532 557 532 557 520 567 c 1,37,38
EndSplineSet
EndChar

StartChar: nine
Encoding: 57 57 28
Width: 1003
GlyphClass: 2
Flags: HW
LayerCount: 2
Fore
SplineSet
580 510 m 0,0,1
 717 510 717 510 793 557 c 1,2,3
 850 738 850 738 850 882.5 c 128,-1,4
 850 1027 850 1027 803.5 1090 c 128,-1,5
 757 1153 757 1153 688 1153 c 128,-1,6
 619 1153 619 1153 558 1092.5 c 128,-1,7
 497 1032 497 1032 457.5 928.5 c 128,-1,8
 418 825 418 825 418 740 c 128,-1,9
 418 655 418 655 431.5 612.5 c 128,-1,10
 445 570 445 570 483 540 c 128,-1,11
 521 510 521 510 580 510 c 0,0,1
770 489 m 1,12,13
 680 440 680 440 571 440 c 0,14,15
 387 440 387 440 310 507.5 c 128,-1,16
 233 575 233 575 233 702 c 0,17,18
 233 935 233 935 361 1077 c 128,-1,19
 489 1219 489 1219 694 1219 c 0,20,21
 860 1219 860 1219 945 1121 c 128,-1,22
 1030 1023 1030 1023 1030 875.5 c 128,-1,23
 1030 728 1030 728 992.5 605.5 c 128,-1,24
 955 483 955 483 893 389.5 c 128,-1,25
 831 296 831 296 754 217 c 128,-1,26
 677 138 677 138 596 85 c 0,27,28
 428.053323029 -24.8910355487 428.053323029 -24.8910355487 311 -37 c 1,29,-1
 293 0 l 1,30,31
 451 39 451 39 574.5 163.5 c 128,-1,32
 698 288 698 288 770 489 c 1,12,13
EndSplineSet
EndChar

StartChar: colon
Encoding: 58 58 29
Width: 509
GlyphClass: 2
Flags: HW
LayerCount: 2
Fore
SplineSet
91.5 11 m 128,-1,1
 61 42 61 42 61 92 c 128,-1,2
 61 142 61 142 104 187.5 c 128,-1,3
 147 233 147 233 197 233 c 128,-1,4
 247 233 247 233 279 202.5 c 128,-1,5
 311 172 311 172 311 122.5 c 128,-1,6
 311 73 311 73 266.5 26.5 c 128,-1,7
 222 -20 222 -20 172 -20 c 128,-1,0
 122 -20 122 -20 91.5 11 c 128,-1,1
206.5 686.5 m 128,-1,9
 176 718 176 718 176 768.5 c 128,-1,10
 176 819 176 819 219 864 c 128,-1,11
 262 909 262 909 311.5 909 c 128,-1,12
 361 909 361 909 393.5 878.5 c 128,-1,13
 426 848 426 848 426 798.5 c 128,-1,14
 426 749 426 749 381.5 702 c 128,-1,15
 337 655 337 655 287 655 c 128,-1,8
 237 655 237 655 206.5 686.5 c 128,-1,9
EndSplineSet
EndChar

StartChar: semicolon
Encoding: 59 59 30
Width: 534
GlyphClass: 2
Flags: HW
LayerCount: 2
Fore
SplineSet
212.5 686.5 m 128,-1,1
 182 718 182 718 182 768 c 128,-1,2
 182 818 182 818 225 863.5 c 128,-1,3
 268 909 268 909 318 909 c 128,-1,4
 368 909 368 909 400 878.5 c 128,-1,5
 432 848 432 848 432 798.5 c 128,-1,6
 432 749 432 749 387.5 702 c 128,-1,7
 343 655 343 655 293 655 c 128,-1,0
 243 655 243 655 212.5 686.5 c 128,-1,1
154 -12 m 0,8,9
 63 -12 63 -12 63 81 c 0,10,11
 63 131 63 131 112 168 c 128,-1,12
 161 205 161 205 213 205 c 128,-1,13
 265 205 265 205 300.5 156 c 128,-1,14
 336 107 336 107 336 35 c 0,15,16
 336 -170 336 -170 35 -264 c 1,17,-1
 45 -207 l 1,18,19
 98 -200 98 -200 160 -150 c 128,-1,20
 222 -100 222 -100 230 -49.5 c 128,-1,21
 238 1 238 1 236 7.5 c 128,-1,22
 234 14 234 14 225 14 c 128,-1,23
 216 14 216 14 196 1 c 128,-1,24
 176 -12 176 -12 154 -12 c 0,8,9
EndSplineSet
EndChar

StartChar: less
Encoding: 60 60 31
Width: 954
GlyphClass: 2
Flags: HW
LayerCount: 2
Fore
SplineSet
90 696 m 1,0,-1
 903 1049 l 1,1,-1
 889 967 l 1,2,-1
 160 651 l 1,3,-1
 782 336 l 1,4,-1
 770 254 l 1,5,-1
 76 606 l 1,6,-1
 90 696 l 1,0,-1
EndSplineSet
EndChar

StartChar: equal
Encoding: 61 61 32
Width: 1003
GlyphClass: 2
Flags: HW
LayerCount: 2
Fore
SplineSet
145 573 m 1,0,-1
 870 573 l 1,1,-1
 854 483 l 1,2,-1
 129 483 l 1,3,-1
 145 573 l 1,0,-1
186 819 m 1,4,-1
 911 819 l 1,5,-1
 897 729 l 1,6,-1
 172 729 l 1,7,-1
 186 819 l 1,4,-1
EndSplineSet
EndChar

StartChar: greater
Encoding: 62 62 33
Width: 954
GlyphClass: 2
Flags: HW
LayerCount: 2
Fore
SplineSet
907 606 m 1,0,-1
 94 254 l 1,1,-1
 106 336 l 1,2,-1
 836 651 l 1,3,-1
 213 967 l 1,4,-1
 227 1049 l 1,5,-1
 922 696 l 1,6,-1
 907 606 l 1,0,-1
EndSplineSet
EndChar

StartChar: question
Encoding: 63 63 34
Width: 808
GlyphClass: 2
Flags: HW
LayerCount: 2
Fore
SplineSet
206.5 11 m 128,-1,1
 176 42 176 42 176 92.5 c 128,-1,2
 176 143 176 143 219 188 c 128,-1,3
 262 233 262 233 311.5 233 c 128,-1,4
 361 233 361 233 393.5 202.5 c 128,-1,5
 426 172 426 172 426 122.5 c 128,-1,6
 426 73 426 73 381.5 26.5 c 128,-1,7
 337 -20 337 -20 287 -20 c 128,-1,0
 237 -20 237 -20 206.5 11 c 128,-1,1
272 1067 m 1,8,-1
 289 995 l 1,9,10
 289 958 289 958 264 934.5 c 128,-1,11
 239 911 239 911 208.5 911 c 128,-1,12
 178 911 178 911 157.5 930.5 c 128,-1,13
 137 950 137 950 137 996 c 128,-1,14
 137 1042 137 1042 163.5 1095.5 c 128,-1,15
 190 1149 190 1149 237 1192.5 c 0,16,17
 342.344827586 1290 342.344827586 1290 508 1290 c 0,18,19
 745.022727273 1290 745.022727273 1290 803.5 1124 c 0,20,21
 819 1080 819 1080 819 1025.5 c 128,-1,22
 819 971 819 971 796 914 c 128,-1,23
 773 857 773 857 736 811 c 128,-1,24
 699 765 699 765 653.5 721 c 128,-1,25
 608 677 608 677 561.5 637.5 c 128,-1,26
 515 598 515 598 475 561.5 c 0,27,28
 384.484029484 478.904176904 384.484029484 478.904176904 373 410 c 0,29,30
 372 400 372 400 361 390.5 c 128,-1,31
 350 381 350 381 342 381 c 128,-1,32
 334 381 334 381 326 390.5 c 128,-1,33
 318 400 318 400 319 410 c 0,34,35
 338.433234421 526.599406528 338.433234421 526.599406528 421 624.5 c 0,36,37
 507.57635468 727.154820549 507.57635468 727.154820549 552.28817734 794.577410274 c 0,38,39
 639 925.333333333 639 925.333333333 639 1073 c 0,40,41
 639 1155 639 1155 600.5 1192 c 128,-1,42
 562 1229 562 1229 478 1229 c 128,-1,43
 394 1229 394 1229 333 1178 c 128,-1,44
 272 1127 272 1127 272 1067 c 1,8,-1
EndSplineSet
EndChar

StartChar: at
Encoding: 64 64 35
Width: 1286
GlyphClass: 2
Flags: HW
LayerCount: 2
Fore
SplineSet
786 399 m 0,0,1
 786 373 786 373 836.5 373 c 128,-1,2
 887 373 887 373 936 407 c 128,-1,3
 985 441 985 441 1016.5 493 c 128,-1,4
 1048 545 1048 545 1070.5 608 c 0,5,6
 1112 724.2 1112 724.2 1112 814.6 c 128,-1,7
 1112 905 1112 905 1094 960.5 c 128,-1,8
 1076 1016 1076 1016 1047 1048 c 128,-1,9
 1018 1080 1018 1080 975.5 1100 c 0,10,11
 905.375 1133 905.375 1133 812.6875 1133 c 128,-1,12
 720 1133 720 1133 635 1107 c 128,-1,13
 550 1081 550 1081 469 1027.5 c 128,-1,14
 388 974 388 974 324.5 900 c 128,-1,15
 261 826 261 826 222.5 721.5 c 128,-1,16
 184 617 184 617 184 506.5 c 128,-1,17
 184 396 184 396 224.5 310 c 128,-1,18
 265 224 265 224 329.5 171 c 0,19,20
 465.801886792 59 465.801886792 59 621 59 c 0,21,22
 936 59 936 59 1152 364 c 0,23,24
 1157 370 1157 370 1159 373 c 1,25,-1
 1190 356 l 1,26,27
 1024.57131154 82.5362496928 1024.57131154 82.5362496928 798.5 10 c 0,28,29
 705 -20 705 -20 602 -20 c 128,-1,30
 499 -20 499 -20 409.5 15.5 c 128,-1,31
 320 51 320 51 250.5 114 c 128,-1,32
 181 177 181 177 138.5 272.5 c 128,-1,33
 96 368 96 368 96 491 c 128,-1,34
 96 614 96 614 140 734 c 128,-1,35
 184 854 184 854 256.5 941 c 128,-1,36
 329 1028 329 1028 421.5 1092 c 0,37,38
 605.0546875 1219 605.0546875 1219 792.52734375 1219 c 128,-1,39
 980 1219 980 1219 1089 1118 c 128,-1,40
 1198 1017 1198 1017 1198 827 c 0,41,42
 1198 683.166666667 1198 683.166666667 1129 549 c 0,43,44
 1049.74833909 394.899548233 1049.74833909 394.899548233 922.5 333.5 c 0,45,46
 851 299 851 299 793 299 c 128,-1,47
 735 299 735 299 708.5 318.5 c 128,-1,48
 682 338 682 338 682 372 c 128,-1,49
 682 406 682 406 692 436 c 1,50,51
 582 326 582 326 481 326 c 0,52,53
 415 326 415 326 381.5 369 c 128,-1,54
 348 412 348 412 348 484.5 c 128,-1,55
 348 557 348 557 384 635 c 128,-1,56
 420 713 420 713 473 768.5 c 128,-1,57
 526 824 526 824 588 859.5 c 128,-1,58
 650 895 650 895 706 895 c 128,-1,59
 762 895 762 895 795.5 859 c 128,-1,60
 829 823 829 823 834 764 c 1,61,-1
 881 872 l 1,62,-1
 989 872 l 1,63,-1
 793 416 l 1,64,65
 786 406 786 406 786 399 c 0,0,1
531 732 m 128,-1,67
 444 630 444 630 444 522 c 128,-1,68
 444 414 444 414 527.5 414 c 128,-1,69
 611 414 611 414 697.5 514 c 128,-1,70
 784 614 784 614 784 731 c 0,71,72
 784 777 784 777 763 805.5 c 128,-1,73
 742 834 742 834 700 834 c 0,74,66
 618 834 618 834 531 732 c 128,-1,67
EndSplineSet
EndChar

StartChar: A
Encoding: 65 65 36
Width: 1112
GlyphClass: 2
Flags: HW
AnchorPoint: "Anchor-5" 696 1270 basechar 0
AnchorPoint: "Anchor-3" 508 590 basechar 0
AnchorPoint: "Anchor-2" 426 0 basechar 0
AnchorPoint: "Anchor-1" 811 0 basechar 0
AnchorPoint: "Anchor-0" 922 0 basechar 0
LayerCount: 2
Fore
SplineSet
606 0 m 1,0,-1
 614 43 l 1,1,2
 709 43 709 43 737 68 c 1,3,-1
 674 381 l 1,4,-1
 281 381 l 1,5,-1
 125 80 l 1,6,7
 133 59 133 59 159 51 c 128,-1,8
 185 43 185 43 246 43 c 1,9,-1
 238 0 l 1,10,-1
 -98 0 l 1,11,-1
 -90 43 l 1,12,13
 24 43 24 43 45 86 c 1,14,-1
 629 1198 l 1,15,-1
 727 1198 l 1,16,-1
 938 86 l 2,17,18
 947 43 947 43 1063 43 c 1,19,-1
 1055 0 l 1,20,-1
 606 0 l 1,0,-1
567 926 m 1,21,-1
 317 449 l 1,22,-1
 662 449 l 1,23,-1
 567 926 l 1,21,-1
EndSplineSet
EndChar

StartChar: B
Encoding: 66 66 37
Width: 1150
GlyphClass: 2
Flags: HW
AnchorPoint: "Anchor-5" 614 1270 basechar 0
AnchorPoint: "Anchor-3" 319 324 basechar 0
AnchorPoint: "Anchor-2" 414 0 basechar 0
LayerCount: 2
Fore
SplineSet
422 594 m 1,0,-1
 334 70 l 1,1,-1
 508 70 l 2,2,3
 673 70 673 70 758.5 158 c 128,-1,4
 844 246 844 246 844 391 c 0,5,6
 844 469.206896552 844 469.206896552 789 528 c 0,7,8
 727.258064516 594 727.258064516 594 571 594 c 2,9,-1
 422 594 l 1,0,-1
510 1128 m 1,10,-1
 430 653 l 1,11,-1
 514 653 l 2,12,13
 674 653 674 653 761 733 c 128,-1,14
 848 813 848 813 848 954 c 0,15,16
 848 1128 848 1128 569 1128 c 2,17,-1
 510 1128 l 1,10,-1
4 0 m 1,18,-1
 12 43 l 1,19,20
 124.636363636 43 124.636363636 43 147 84 c 1,21,-1
 319 1114 l 1,22,23
 313 1136 313 1136 286.5 1145.5 c 128,-1,24
 260 1155 260 1155 197 1155 c 1,25,-1
 205 1198 l 1,26,-1
 582 1198 l 2,27,28
 927.620689655 1198 927.620689655 1198 1026 1039.5 c 0,29,30
 1053 996 1053 996 1053 946 c 0,31,32
 1053 834 1053 834 981 753.5 c 128,-1,33
 909 673 909 673 786 633 c 1,34,35
 919 601 919 601 984 533 c 128,-1,36
 1049 465 1049 465 1049 383 c 0,37,38
 1049 213 1049 213 898.5 106.5 c 128,-1,39
 748 0 748 0 496 0 c 2,40,-1
 4 0 l 1,18,-1
EndSplineSet
EndChar

StartChar: C
Encoding: 67 67 38
Width: 1155
GlyphClass: 2
Flags: HW
AnchorPoint: "Anchor-5" 836 1270 basechar 0
AnchorPoint: "Anchor-2" 584 0 basechar 0
AnchorPoint: "Anchor-1" 584 0 basechar 0
LayerCount: 2
Fore
SplineSet
1000 1090 m 128,-1,1
 943 1149 943 1149 830.5 1149 c 128,-1,2
 718 1149 718 1149 624.5 1096.5 c 128,-1,3
 531 1044 531 1044 461.5 955 c 128,-1,4
 392 866 392 866 350.5 739.5 c 128,-1,5
 309 613 309 613 309 473 c 0,6,7
 309 271 309 271 404 160 c 128,-1,8
 499 49 499 49 643 49 c 0,9,10
 746 49 746 49 858 120 c 128,-1,11
 970 191 970 191 1012 270 c 1,12,-1
 1057 246 l 1,13,14
 995.379837984 141.245724572 995.379837984 141.245724572 892.5 67.5 c 0,15,16
 770.432098765 -20 770.432098765 -20 590 -20 c 0,17,18
 342.941176471 -20 342.941176471 -20 215 125 c 0,19,20
 92 264.4 92 264.4 92 469 c 0,21,22
 92 604 92 604 136 725.5 c 128,-1,23
 180 847 180 847 254 935.5 c 128,-1,24
 328 1024 328 1024 422.5 1089 c 0,25,26
 611.5 1219 611.5 1219 829 1219 c 0,27,28
 899 1219 899 1219 966 1188 c 128,-1,29
 1033 1157 1033 1157 1047 1157 c 0,30,31
 1070 1157 1070 1157 1077 1198 c 1,32,-1
 1124 1198 l 1,33,-1
 1102 938 l 1,34,-1
 1057 938 l 1,35,0
 1057 1031 1057 1031 1000 1090 c 128,-1,1
EndSplineSet
EndChar

StartChar: D
Encoding: 68 68 39
Width: 1261
GlyphClass: 2
Flags: HW
AnchorPoint: "Anchor-5" 672 1270 basechar 0
AnchorPoint: "Anchor-3" 373 586 basechar 0
AnchorPoint: "Anchor-2" 401 0 basechar 0
AnchorPoint: "Anchor-1" 401 0 basechar 0
LayerCount: 2
Fore
SplineSet
4 0 m 1,0,-1
 12 43 l 1,1,2
 124.636363636 43 124.636363636 43 147 84 c 1,3,-1
 319 1114 l 1,4,5
 313 1136 313 1136 286.5 1145.5 c 128,-1,6
 260 1155 260 1155 197 1155 c 1,7,-1
 205 1198 l 1,8,-1
 676 1198 l 2,9,10
 916 1198 916 1198 1053 1068.5 c 128,-1,11
 1190 939 1190 939 1190 721 c 0,12,13
 1190 564 1190 564 1133.5 427.5 c 128,-1,14
 1077 291 1077 291 982.5 198.5 c 128,-1,15
 888 106 888 106 762.5 53 c 128,-1,16
 637 0 637 0 500 0 c 2,17,-1
 4 0 l 1,0,-1
512 1139 m 1,18,-1
 334 70 l 1,19,-1
 512 70 l 2,20,21
 637.210526316 70 637.210526316 70 761 182 c 0,22,23
 900.624536377 308.326961484 900.624536377 308.326961484 956 507.5 c 0,24,25
 987 619 987 619 987 732 c 128,-1,26
 987 845 987 845 960 922.5 c 128,-1,27
 933 1000 933 1000 887 1046 c 0,28,29
 794 1139 794 1139 666 1139 c 2,30,-1
 512 1139 l 1,18,-1
EndSplineSet
EndChar

StartChar: E
Encoding: 69 69 40
Width: 1040
GlyphClass: 2
Flags: HW
AnchorPoint: "Anchor-5" 680 1270 basechar 0
AnchorPoint: "Anchor-3" 289 336 basechar 0
AnchorPoint: "Anchor-2" 451 0 basechar 0
AnchorPoint: "Anchor-1" 451 0 basechar 0
AnchorPoint: "Anchor-0" 750 0 basechar 0
LayerCount: 2
Fore
SplineSet
4 0 m 1,0,-1
 12 43 l 1,1,2
 124.636363636 43 124.636363636 43 147 84 c 1,3,-1
 319 1114 l 1,4,5
 313 1136 313 1136 286.5 1145.5 c 128,-1,6
 260 1155 260 1155 197 1155 c 1,7,-1
 205 1198 l 1,8,-1
 1030 1198 l 1,9,-1
 997 999 l 1,10,-1
 954 999 l 1,11,12
 961 1050 961 1050 961 1083 c 128,-1,13
 961 1116 961 1116 934 1128 c 1,14,-1
 510 1128 l 1,15,-1
 432 657 l 1,16,-1
 719 657 l 1,17,18
 743 666 743 666 756.5 694 c 128,-1,19
 770 722 770 722 780 786 c 1,20,-1
 823 786 l 1,21,-1
 768 459 l 1,22,-1
 725 459 l 1,23,24
 733 517 733 517 733 528 c 0,25,26
 733 576 733 576 707 588 c 1,27,-1
 420 588 l 1,28,-1
 334 70 l 1,29,-1
 801 70 l 1,30,31
 853 90 853 90 913 199 c 1,32,-1
 954 199 l 1,33,-1
 872 0 l 1,34,-1
 4 0 l 1,0,-1
EndSplineSet
EndChar

StartChar: F
Encoding: 70 70 41
Width: 976
GlyphClass: 2
Flags: HW
AnchorPoint: "Anchor-5" 680 1270 basechar 0
LayerCount: 2
Fore
SplineSet
336 84 m 1,0,1
 347.181818182 43 347.181818182 43 459 43 c 1,2,-1
 451 0 l 1,3,-1
 4 0 l 1,4,-1
 12 43 l 1,5,6
 124.636363636 43 124.636363636 43 147 84 c 1,7,-1
 319 1114 l 1,8,9
 313 1136 313 1136 286.5 1145.5 c 128,-1,10
 260 1155 260 1155 197 1155 c 1,11,-1
 205 1198 l 1,12,-1
 1030 1198 l 1,13,-1
 997 999 l 1,14,-1
 954 999 l 1,15,16
 961 1050 961 1050 961 1083 c 128,-1,17
 961 1116 961 1116 934 1128 c 1,18,-1
 510 1128 l 1,19,-1
 432 657 l 1,20,-1
 719 657 l 1,21,22
 743 666 743 666 756.5 694 c 128,-1,23
 770 722 770 722 780 786 c 1,24,-1
 823 786 l 1,25,-1
 768 459 l 1,26,-1
 725 459 l 1,27,28
 733 517 733 517 733 528 c 0,29,30
 733 576 733 576 707 588 c 1,31,-1
 420 588 l 1,32,-1
 336 84 l 1,0,1
EndSplineSet
EndChar

StartChar: G
Encoding: 71 71 42
Width: 1271
GlyphClass: 2
Flags: HW
AnchorPoint: "Anchor-5" 834 1270 basechar 0
AnchorPoint: "Anchor-3" 993 362 basechar 0
AnchorPoint: "Anchor-2" 582 0 basechar 0
AnchorPoint: "Anchor-1" 582 0 basechar 0
LayerCount: 2
Fore
SplineSet
920 508 m 1,0,1
 908.818181818 549 908.818181818 549 797 549 c 1,2,-1
 803 592 l 1,3,-1
 1249 592 l 1,4,-1
 1243 549 l 1,5,6
 1130.36363636 549 1130.36363636 549 1108 508 c 1,7,-1
 1049 164 l 1,8,9
 1008.56081081 106.533783784 1008.56081081 106.533783784 929.780405405 62.7668918919 c 0,10,11
 780.8 -20 780.8 -20 632.9 -20 c 128,-1,12
 485 -20 485 -20 385 20 c 128,-1,13
 285 60 285 60 221.5 128.5 c 0,14,15
 90 270.354330709 90 270.354330709 90 477 c 0,16,17
 90 611 90 611 136.5 731.5 c 128,-1,18
 183 852 183 852 260.5 939 c 128,-1,19
 338 1026 338 1026 436 1090.5 c 0,20,21
 631.240310078 1219 631.240310078 1219 848 1219 c 0,22,23
 917 1219 917 1219 994 1188 c 128,-1,24
 1071 1157 1071 1157 1085 1157 c 0,25,26
 1109 1157 1109 1157 1116 1198 c 1,27,-1
 1163 1198 l 1,28,-1
 1141 938 l 1,29,-1
 1096 938 l 1,30,31
 1096 1022 1096 1022 1029 1085.5 c 128,-1,32
 962 1149 962 1149 850 1149 c 128,-1,33
 738 1149 738 1149 640.5 1091.5 c 128,-1,34
 543 1034 543 1034 468 939 c 128,-1,35
 393 844 393 844 347 712 c 128,-1,36
 301 580 301 580 301 458.5 c 128,-1,37
 301 337 301 337 329.5 258.5 c 128,-1,38
 358 180 358 180 406 136 c 0,39,40
 500.909090909 49 500.909090909 49 620.954545455 49 c 128,-1,41
 741 49 741 49 848 88 c 1,42,-1
 920 508 l 1,0,1
EndSplineSet
EndChar

StartChar: H
Encoding: 72 72 43
Width: 1343
GlyphClass: 2
Flags: HW
AnchorPoint: "Anchor-5" 799 1270 basechar 0
AnchorPoint: "Anchor-3" 725 860 basechar 0
AnchorPoint: "Anchor-2" 584 0 basechar 0
AnchorPoint: "Anchor-1" 584 0 basechar 0
LayerCount: 2
Fore
SplineSet
336 84 m 1,0,1
 347.181818182 43 347.181818182 43 459 43 c 1,2,-1
 451 0 l 1,3,-1
 4 0 l 1,4,-1
 12 43 l 1,5,6
 124.636363636 43 124.636363636 43 147 84 c 1,7,-1
 319 1114 l 1,8,9
 313 1136 313 1136 286.5 1145.5 c 128,-1,10
 260 1155 260 1155 197 1155 c 1,11,-1
 205 1198 l 1,12,-1
 651 1198 l 1,13,-1
 643 1155 l 1,14,15
 530.363636364 1155 530.363636364 1155 508 1114 c 1,16,-1
 432 657 l 1,17,-1
 956 657 l 1,18,-1
 1032 1114 l 1,19,20
 1020.81818182 1155 1020.81818182 1155 909 1155 c 1,21,-1
 918 1198 l 1,22,-1
 1364 1198 l 1,23,-1
 1356 1155 l 1,24,25
 1243.36363636 1155 1243.36363636 1155 1221 1114 c 1,26,-1
 1049 84 l 1,27,28
 1055 62 1055 62 1081.5 52.5 c 128,-1,29
 1108 43 1108 43 1171 43 c 1,30,-1
 1163 0 l 1,31,-1
 717 0 l 1,32,-1
 725 43 l 1,33,34
 837.636363636 43 837.636363636 43 860 84 c 1,35,-1
 944 588 l 1,36,-1
 420 588 l 1,37,-1
 336 84 l 1,0,1
EndSplineSet
EndChar

StartChar: I
Encoding: 73 73 44
Width: 630
GlyphClass: 2
Flags: HW
AnchorPoint: "Anchor-5" 436 1270 basechar 0
AnchorPoint: "Anchor-3" 332 602 basechar 0
AnchorPoint: "Anchor-2" 223 0 basechar 0
AnchorPoint: "Anchor-1" 225 0 basechar 0
AnchorPoint: "Anchor-0" 330 0 basechar 0
LayerCount: 2
Fore
SplineSet
336 84 m 1,0,1
 347.181818182 43 347.181818182 43 459 43 c 1,2,-1
 451 0 l 1,3,-1
 4 0 l 1,4,-1
 12 43 l 1,5,6
 124.636363636 43 124.636363636 43 147 84 c 1,7,-1
 319 1114 l 1,8,9
 313 1136 313 1136 286.5 1145.5 c 128,-1,10
 260 1155 260 1155 197 1155 c 1,11,-1
 205 1198 l 1,12,-1
 651 1198 l 1,13,-1
 643 1155 l 1,14,15
 530.363636364 1155 530.363636364 1155 508 1114 c 1,16,-1
 336 84 l 1,0,1
EndSplineSet
EndChar

StartChar: J
Encoding: 74 74 45
Width: 851
GlyphClass: 2
Flags: HW
AnchorPoint: "Anchor-5" 698 1270 basechar 0
LayerCount: 2
Fore
SplineSet
63 266 m 0,0,1
 143 266 143 266 143 202 c 0,2,3
 143 167 143 167 122.5 142 c 128,-1,4
 102 117 102 117 78 109 c 1,5,6
 106.29787234 76.2340425532 106.29787234 76.2340425532 121.64893617 71.1170212766 c 2,7,-1
 147.5 62.5 l 2,8,9
 176 53 176 53 220.5 53 c 128,-1,10
 265 53 265 53 296 63.5 c 128,-1,11
 327 74 327 74 350 98.5 c 128,-1,12
 373 123 373 123 389 151 c 128,-1,13
 405 179 405 179 418.5 226.5 c 0,14,15
 441.577225131 307.697643979 441.577225131 307.697643979 461 426 c 2,16,-1
 575 1114 l 1,17,18
 569 1136 569 1136 542.5 1145.5 c 128,-1,19
 516 1155 516 1155 453 1155 c 1,20,-1
 461 1198 l 1,21,-1
 907 1198 l 1,22,-1
 899 1155 l 1,23,24
 786.363636364 1155 786.363636364 1155 764 1114 c 1,25,-1
 637 352 l 2,26,27
 612.231032516 205.450275718 612.231032516 205.450275718 525.5 101 c 0,28,29
 425.026785714 -20 425.026785714 -20 233 -20 c 0,30,31
 97 -20 97 -20 27 31 c 128,-1,32
 -43 82 -43 82 -43 140.5 c 128,-1,33
 -43 199 -43 199 -11.5 232.5 c 128,-1,34
 20 266 20 266 63 266 c 0,0,1
EndSplineSet
EndChar

StartChar: K
Encoding: 75 75 46
Width: 1185
GlyphClass: 2
Flags: HW
AnchorPoint: "Anchor-5" 788 1270 basechar 0
AnchorPoint: "Anchor-3" 385 946 basechar 0
AnchorPoint: "Anchor-2" 557 0 basechar 0
AnchorPoint: "Anchor-1" 557 0 basechar 0
LayerCount: 2
Fore
SplineSet
332 84 m 1,0,1
 343.181818182 43 343.181818182 43 455 43 c 1,2,-1
 446 0 l 1,3,-1
 4 0 l 1,4,-1
 12 43 l 1,5,6
 124.636363636 43 124.636363636 43 147 84 c 1,7,-1
 319 1114 l 1,8,9
 313 1136 313 1136 286.5 1145.5 c 128,-1,10
 260 1155 260 1155 197 1155 c 1,11,-1
 205 1198 l 1,12,-1
 647 1198 l 1,13,-1
 639 1155 l 1,14,15
 526.363636364 1155 526.363636364 1155 504 1114 c 1,16,-1
 332 84 l 1,0,1
719 0 m 1,17,-1
 727 43 l 1,18,19
 776 43 776 43 803 49 c 1,20,-1
 436 643 l 1,21,-1
 1020 1141 l 1,22,23
 995 1155 995 1155 918 1155 c 1,24,-1
 926 1198 l 1,25,-1
 1247 1198 l 1,26,-1
 1239 1155 l 1,27,28
 1200 1155 1200 1155 1170 1145.5 c 128,-1,29
 1140 1136 1140 1136 1131.5 1129.5 c 128,-1,30
 1123 1123 1123 1123 1106 1108 c 2,31,-1
 625 700 l 1,32,-1
 1001 76 l 1,33,34
 1027 43 1027 43 1126 43 c 1,35,-1
 1118 0 l 1,36,-1
 719 0 l 1,17,-1
EndSplineSet
EndChar

StartChar: L
Encoding: 76 76 47
Width: 1013
GlyphClass: 2
Flags: HW
AnchorPoint: "Anchor-5" 440 1270 basechar 0
AnchorPoint: "Anchor-3" 348 698 basechar 0
AnchorPoint: "Anchor-2" 463 0 basechar 0
AnchorPoint: "Anchor-1" 463 0 basechar 0
LayerCount: 2
Fore
SplineSet
4 0 m 1,0,-1
 12 43 l 1,1,2
 124.636363636 43 124.636363636 43 147 84 c 1,3,-1
 319 1114 l 1,4,5
 313 1136 313 1136 286.5 1145.5 c 128,-1,6
 260 1155 260 1155 197 1155 c 1,7,-1
 205 1198 l 1,8,-1
 651 1198 l 1,9,-1
 643 1155 l 1,10,11
 530.363636364 1155 530.363636364 1155 508 1114 c 1,12,-1
 334 70 l 1,13,-1
 801 70 l 1,14,15
 853 90 853 90 913 199 c 1,16,-1
 954 199 l 1,17,-1
 872 0 l 1,18,-1
 4 0 l 1,0,-1
EndSplineSet
EndChar

StartChar: M
Encoding: 77 77 48
Width: 1658
GlyphClass: 2
Flags: HW
AnchorPoint: "Anchor-5" 907 1270 basechar 0
AnchorPoint: "Anchor-2" 686 0 basechar 0
AnchorPoint: "Anchor-1" 686 0 basechar 0
LayerCount: 2
Fore
SplineSet
217 84 m 1,0,1
 228.181818182 43 228.181818182 43 340 43 c 1,2,-1
 332 0 l 1,3,-1
 4 0 l 1,4,-1
 12 43 l 1,5,6
 124.636363636 43 124.636363636 43 147 84 c 1,7,-1
 319 1114 l 1,8,9
 313 1136 313 1136 286.5 1145.5 c 128,-1,10
 260 1155 260 1155 197 1155 c 1,11,-1
 205 1198 l 1,12,-1
 504 1198 l 1,13,-1
 780 246 l 1,14,-1
 1376 1198 l 1,15,-1
 1679 1198 l 1,16,-1
 1671 1155 l 1,17,18
 1558.36363636 1155 1558.36363636 1155 1536 1114 c 1,19,-1
 1364 84 l 1,20,21
 1375.18181818 43 1375.18181818 43 1487 43 c 1,22,-1
 1479 0 l 1,23,-1
 1032 0 l 1,24,-1
 1040 43 l 1,25,26
 1153.63636364 43 1153.63636364 43 1176 84 c 1,27,-1
 1329 1004 l 1,28,-1
 702 0 l 1,29,-1
 672 0 l 1,30,-1
 373 1016 l 1,31,-1
 217 84 l 1,0,1
EndSplineSet
EndChar

StartChar: N
Encoding: 78 78 49
Width: 1316
GlyphClass: 2
Flags: HW
AnchorPoint: "Anchor-5" 782 1270 basechar 0
AnchorPoint: "Anchor-3" 705 676 basechar 0
AnchorPoint: "Anchor-2" 569 0 basechar 0
AnchorPoint: "Anchor-1" 569 0 basechar 0
LayerCount: 2
Fore
SplineSet
217 84 m 1,0,1
 228.181818182 43 228.181818182 43 340 43 c 1,2,-1
 332 0 l 1,3,-1
 4 0 l 1,4,-1
 12 43 l 1,5,6
 124.636363636 43 124.636363636 43 147 84 c 1,7,-1
 319 1114 l 1,8,9
 313 1136 313 1136 286.5 1145.5 c 128,-1,10
 260 1155 260 1155 197 1155 c 1,11,-1
 205 1198 l 1,12,-1
 479 1198 l 1,13,-1
 1016 360 l 1,14,-1
 1143 1114 l 1,15,16
 1131.81818182 1155 1131.81818182 1155 1020 1155 c 1,17,-1
 1028 1198 l 1,18,-1
 1356 1198 l 1,19,-1
 1348 1155 l 1,20,21
 1234.36363636 1155 1234.36363636 1155 1212 1114 c 1,22,-1
 1026 0 l 1,23,-1
 1008 0 l 1,24,-1
 373 1018 l 1,25,-1
 217 84 l 1,0,1
EndSplineSet
EndChar

StartChar: O
Encoding: 79 79 50
Width: 1318
GlyphClass: 2
Flags: HW
AnchorPoint: "Anchor-5" 784 1270 basechar 0
AnchorPoint: "Anchor-4" 1092 901 basechar 0
AnchorPoint: "Anchor-3" 684 602 basechar 0
AnchorPoint: "Anchor-2" 573 0 basechar 0
AnchorPoint: "Anchor-1" 573 0 basechar 0
AnchorPoint: "Anchor-0" 633 0 basechar 0
LayerCount: 2
Fore
SplineSet
318 657.5 m 128,-1,1
 299 562 299 562 299 474 c 128,-1,2
 299 386 299 386 315.5 313 c 128,-1,3
 332 240 332 240 365 179.5 c 0,4,5
 436.181818182 49 436.181818182 49 588 49 c 0,6,7
 693 49 693 49 781 111 c 128,-1,8
 869 173 869 173 924.5 272 c 0,9,10
 1042 481.594594595 1042 481.594594595 1042 723 c 0,11,12
 1042 895.848484848 1042 895.848484848 977 1016 c 0,13,14
 905.049180328 1149 905.049180328 1149 756 1149 c 0,15,16
 672 1149 672 1149 597.5 1108 c 128,-1,17
 523 1067 523 1067 469.5 998 c 128,-1,18
 416 929 416 929 376.5 841 c 128,-1,0
 337 753 337 753 318 657.5 c 128,-1,1
776 1219 m 0,19,20
 993 1219 993 1219 1121 1076.5 c 128,-1,21
 1249 934 1249 934 1249 717 c 0,22,23
 1249 568 1249 568 1192.5 431 c 128,-1,24
 1136 294 1136 294 1042.5 195.5 c 128,-1,25
 949 97 949 97 824 38.5 c 128,-1,26
 699 -20 699 -20 559.5 -20 c 128,-1,27
 420 -20 420 -20 311.5 46.5 c 0,28,29
 94 179.806451613 94 179.806451613 94 479 c 0,30,31
 94 629 94 629 150 766.5 c 128,-1,32
 206 904 206 904 299 1002.5 c 128,-1,33
 392 1101 392 1101 517 1160 c 128,-1,34
 642 1219 642 1219 776 1219 c 0,19,20
EndSplineSet
EndChar

StartChar: P
Encoding: 80 80 51
Width: 1114
GlyphClass: 2
Flags: HW
AnchorPoint: "Anchor-5" 623 1270 basechar 0
AnchorPoint: "Anchor-3" 283 328 basechar 0
AnchorPoint: "Anchor-2" 221 0 basechar 0
AnchorPoint: "Anchor-1" 221 0 basechar 0
LayerCount: 2
Fore
SplineSet
336 84 m 1,0,1
 347.181818182 43 347.181818182 43 459 43 c 1,2,-1
 451 0 l 1,3,-1
 4 0 l 1,4,-1
 12 43 l 1,5,6
 124.636363636 43 124.636363636 43 147 84 c 1,7,-1
 319 1114 l 1,8,9
 313 1136 313 1136 286.5 1145.5 c 128,-1,10
 260 1155 260 1155 197 1155 c 1,11,-1
 205 1198 l 1,12,-1
 668 1198 l 2,13,14
 1008.91578947 1198 1008.91578947 1198 1108.5 1019.5 c 0,15,16
 1135 972 1135 972 1135 920 c 0,17,18
 1135 751 1135 751 986 648 c 128,-1,19
 837 545 837 545 584 545 c 2,20,-1
 414 545 l 1,21,-1
 336 84 l 1,0,1
510 1128 m 1,22,-1
 424 614 l 1,23,-1
 594 614 l 2,24,25
 932 614 932 614 932 938 c 0,26,27
 932 1128 932 1128 655 1128 c 2,28,-1
 510 1128 l 1,22,-1
EndSplineSet
EndChar

StartChar: Q
Encoding: 81 81 52
Width: 1318
GlyphClass: 2
Flags: HW
LayerCount: 2
Fore
SplineSet
776 1219 m 0,0,1
 993 1219 993 1219 1121 1076.5 c 128,-1,2
 1249 934 1249 934 1249 724 c 128,-1,3
 1249 514 1249 514 1155.5 349.5 c 128,-1,4
 1062 185 1062 185 909 84 c 1,5,6
 960.93877551 -71.8163265306 960.93877551 -71.8163265306 994 -103.5 c 128,-1,7
 1026.86956522 -135 1026.86956522 -135 1071.43478261 -135 c 128,-1,8
 1116 -135 1116 -135 1161 -111.5 c 128,-1,9
 1206 -88 1206 -88 1226 -64 c 1,10,-1
 1247 -41 l 1,11,-1
 1274 -63 l 1,12,13
 1250.92857143 -109.142857143 1250.92857143 -109.142857143 1208.96428571 -143.071428571 c 0,14,15
 1127.42105263 -209 1127.42105263 -209 1062.21052632 -209 c 128,-1,16
 997 -209 997 -209 950 -196 c 128,-1,17
 903 -183 903 -183 872 -163.5 c 128,-1,18
 841 -144 841 -144 816 -113.5 c 0,19,20
 776.45183714 -65.2512413108 776.45183714 -65.2512413108 750 8 c 1,21,22
 658 -20 658 -20 567 -20 c 0,23,24
 420 -20 420 -20 311.5 46.5 c 0,25,26
 94 179.806451613 94 179.806451613 94 479 c 0,27,28
 94 629 94 629 150 766.5 c 128,-1,29
 206 904 206 904 299 1002.5 c 128,-1,30
 392 1101 392 1101 517 1160 c 128,-1,31
 642 1219 642 1219 776 1219 c 0,0,1
408 125 m 1,32,33
 478 49 478 49 588 49 c 0,34,35
 660 49 660 49 727 80 c 1,36,37
 707 144 707 144 683 176.5 c 128,-1,38
 659 209 659 209 616 209 c 0,39,40
 502 209 502 209 408 125 c 1,32,33
858 186 m 1,41,42
 1042 398 1042 398 1042 723 c 0,43,44
 1042 895.848484848 1042 895.848484848 977 1016 c 0,45,46
 905.049180328 1149 905.049180328 1149 756 1149 c 0,47,48
 672 1149 672 1149 597.5 1108 c 128,-1,49
 523 1067 523 1067 469.5 998 c 128,-1,50
 416 929 416 929 376.5 841 c 0,51,52
 299 668.341772152 299 668.341772152 299 472.170886076 c 128,-1,53
 299 276 299 276 379 160 c 1,54,55
 494 299 494 299 639 299 c 128,-1,56
 784 299 784 299 858 186 c 1,41,42
EndSplineSet
EndChar

StartChar: R
Encoding: 82 82 53
Width: 1193
GlyphClass: 2
Flags: HW
AnchorPoint: "Anchor-5" 713 1270 basechar 0
AnchorPoint: "Anchor-3" 283 328 basechar 0
AnchorPoint: "Anchor-2" 578 0 basechar 0
AnchorPoint: "Anchor-1" 578 0 basechar 0
LayerCount: 2
Fore
SplineSet
336 84 m 1,0,1
 347.181818182 43 347.181818182 43 459 43 c 1,2,-1
 451 0 l 1,3,-1
 4 0 l 1,4,-1
 12 43 l 1,5,6
 124.636363636 43 124.636363636 43 147 84 c 1,7,-1
 319 1114 l 1,8,9
 313 1136 313 1136 286.5 1145.5 c 128,-1,10
 260 1155 260 1155 197 1155 c 1,11,-1
 205 1198 l 1,12,-1
 668 1198 l 2,13,14
 946.816901408 1198 946.816901408 1198 1068 1078.5 c 0,15,16
 1135 1012.43055556 1135 1012.43055556 1135 928 c 0,17,18
 1135 804 1135 804 1046.5 708.5 c 128,-1,19
 958 613 958 613 811 573 c 1,20,-1
 1001 86 l 1,21,22
 1016.63636364 43 1016.63636364 43 1130 43 c 1,23,-1
 1122 0 l 1,24,-1
 1034 0 l 2,25,26
 890 0 890 0 850 16 c 128,-1,27
 810 32 810 32 780 106 c 2,28,-1
 606 545 l 1,29,-1
 414 545 l 1,30,-1
 336 84 l 1,0,1
510 1128 m 1,31,-1
 424 614 l 1,32,-1
 594 614 l 2,33,34
 768 614 768 614 850 695.5 c 128,-1,35
 932 777 932 777 932 950 c 0,36,37
 932 1036 932 1036 869 1082 c 128,-1,38
 806 1128 806 1128 655 1128 c 2,39,-1
 510 1128 l 1,31,-1
EndSplineSet
EndChar

StartChar: S
Encoding: 83 83 54
Width: 980
GlyphClass: 2
Flags: HW
AnchorPoint: "Anchor-5" 594 1270 basechar 0
AnchorPoint: "Anchor-3" 530 602 basechar 0
AnchorPoint: "Anchor-2" 406 0 basechar 0
AnchorPoint: "Anchor-1" 406 0 basechar 0
LayerCount: 2
Fore
SplineSet
415.5 -20 m 0,0,1
 348 -20 348 -20 281.5 -5 c 128,-1,2
 215 10 215 10 173.5 25.5 c 128,-1,3
 132 41 132 41 119 41 c 128,-1,4
 106 41 106 41 88.5 29 c 128,-1,5
 71 17 71 17 68 0 c 1,6,-1
 20 0 l 1,7,-1
 68 285 l 1,8,-1
 113 285 l 1,9,10
 115.811836115 107.854324734 115.811836115 107.854324734 310.5 61.5 c 0,11,12
 363 49 363 49 419.5 49 c 128,-1,13
 476 49 476 49 524.5 62 c 128,-1,14
 573 75 573 75 614.5 100.5 c 0,15,16
 705 156.108433735 705 156.108433735 705 274 c 0,17,18
 705 350.5 705 350.5 637 407.5 c 0,19,20
 590.327649208 446.622411693 590.327649208 446.622411693 515.663824604 490.811205847 c 0,21,22
 337.796460177 596.079646018 337.796460177 596.079646018 253.898230088 678.539823009 c 128,-1,23
 170 761 170 761 170 857 c 128,-1,24
 170 953 170 953 234.5 1037.5 c 128,-1,25
 299 1122 299 1122 395 1170.5 c 128,-1,26
 491 1219 491 1219 586 1219 c 0,27,28
 655 1219 655 1219 732 1188 c 128,-1,29
 809 1157 809 1157 823 1157 c 0,30,31
 847 1157 847 1157 854 1198 c 1,32,-1
 901 1198 l 1,33,-1
 879 938 l 1,34,-1
 834 938 l 1,35,36
 834 1027 834 1027 767 1088 c 128,-1,37
 700 1149 700 1149 587.5 1149 c 128,-1,38
 475 1149 475 1149 405.5 1082.5 c 128,-1,39
 336 1016 336 1016 336 944 c 0,40,41
 336 875.205882353 336 875.205882353 403 822 c 0,42,43
 458.274011299 778.105932203 458.274011299 778.105932203 527.13700565 738.052966102 c 0,44,45
 706.458715596 633.753604194 706.458715596 633.753604194 795.729357798 548.876802097 c 128,-1,46
 885 464 885 464 885 352 c 0,47,48
 885 143.737704918 885 143.737704918 670 38 c 0,49,50
 552.066666667 -20 552.066666667 -20 415.5 -20 c 0,0,1
EndSplineSet
EndChar

StartChar: T
Encoding: 84 84 55
Width: 1095
GlyphClass: 2
Flags: HW
AnchorPoint: "Anchor-5" 672 1270 basechar 0
AnchorPoint: "Anchor-3" 565 647 basechar 0
AnchorPoint: "Anchor-2" 459 0 basechar 0
AnchorPoint: "Anchor-1" 459 0 basechar 0
LayerCount: 2
Fore
SplineSet
565 84 m 1,0,1
 576.181818182 43 576.181818182 43 688 43 c 1,2,-1
 680 0 l 1,3,-1
 233 0 l 1,4,-1
 242 43 l 1,5,6
 354.636363636 43 354.636363636 43 377 84 c 1,7,-1
 551 1128 l 1,8,-1
 215 1128 l 1,9,10
 191 1119 191 1119 177.5 1091 c 128,-1,11
 164 1063 164 1063 154 999 c 1,12,-1
 111 999 l 1,13,-1
 143 1198 l 1,14,-1
 1171 1198 l 1,15,-1
 1139 999 l 1,16,-1
 1096 999 l 1,17,18
 1102 1042 1102 1042 1102 1079 c 128,-1,19
 1102 1116 1102 1116 1075 1128 c 1,20,-1
 739 1128 l 1,21,-1
 565 84 l 1,0,1
EndSplineSet
EndChar

StartChar: U
Encoding: 85 85 56
Width: 1267
GlyphClass: 2
Flags: HW
AnchorPoint: "Anchor-5" 811 1270 basechar 0
AnchorPoint: "Anchor-4" 1317 1155 basechar 0
AnchorPoint: "Anchor-3" 702 694 basechar 0
AnchorPoint: "Anchor-2" 586 0 basechar 0
AnchorPoint: "Anchor-1" 586 0 basechar 0
AnchorPoint: "Anchor-0" 586 0 basechar 0
LayerCount: 2
Fore
SplineSet
1112 1114 m 1,0,1
 1100.81818182 1155 1100.81818182 1155 989 1155 c 1,2,-1
 997 1198 l 1,3,-1
 1325 1198 l 1,4,-1
 1317 1155 l 1,5,6
 1204.36363636 1155 1204.36363636 1155 1182 1114 c 1,7,-1
 1081 508 l 2,8,9
 1015.49797186 117.835745405 1015.49797186 117.835745405 741 10.5 c 0,10,11
 663 -20 663 -20 578 -20 c 0,12,13
 162 -20 162 -20 162 360 c 0,14,15
 162 415 162 415 176 508 c 1,16,-1
 276 1114 l 1,17,18
 270 1136 270 1136 243.5 1145.5 c 128,-1,19
 217 1155 217 1155 154 1155 c 1,20,-1
 162 1198 l 1,21,-1
 608 1198 l 1,22,-1
 600 1155 l 1,23,24
 487.363636364 1155 487.363636364 1155 465 1114 c 1,25,-1
 358 479 l 1,26,27
 348 407 348 407 348 360 c 0,28,29
 348 211 348 211 418.5 130 c 128,-1,30
 489 49 489 49 594 49 c 128,-1,31
 699 49 699 49 781 99 c 128,-1,32
 863 149 863 149 923 245.5 c 128,-1,33
 983 342 983 342 1004 467 c 2,34,-1
 1112 1114 l 1,0,1
EndSplineSet
EndChar

StartChar: V
Encoding: 86 86 57
Width: 1112
GlyphClass: 2
Flags: HW
AnchorPoint: "Anchor-5" 729 1270 basechar 0
AnchorPoint: "Anchor-3" 666 901 basechar 0
AnchorPoint: "Anchor-2" 461 0 basechar 0
AnchorPoint: "Anchor-1" 461 0 basechar 0
LayerCount: 2
Fore
SplineSet
535 1198 m 1,0,-1
 526 1155 l 1,1,2
 431 1155 431 1155 403 1130 c 1,3,-1
 573 272 l 1,4,-1
 1016 1118 l 1,5,6
 1008 1139 1008 1139 982 1147 c 128,-1,7
 956 1155 956 1155 895 1155 c 1,8,-1
 903 1198 l 1,9,-1
 1239 1198 l 1,10,-1
 1231 1155 l 1,11,12
 1120 1155 1120 1155 1102 1122 c 2,13,-1
 512 0 l 1,14,-1
 414 0 l 1,15,-1
 203 1112 l 2,16,17
 194 1155 194 1155 78 1155 c 1,18,-1
 86 1198 l 1,19,-1
 535 1198 l 1,0,-1
EndSplineSet
EndChar

StartChar: W
Encoding: 87 87 58
Width: 1720
GlyphClass: 2
Flags: HW
AnchorPoint: "Anchor-5" 938 1270 basechar 0
AnchorPoint: "Anchor-3" 868 602 basechar 0
AnchorPoint: "Anchor-2" 780 0 basechar 0
AnchorPoint: "Anchor-1" 780 0 basechar 0
AnchorPoint: "Anchor-0" 1081 0 basechar 0
LayerCount: 2
Fore
SplineSet
1143 1198 m 1,0,-1
 1135 1155 l 1,1,2
 1040 1155 1040 1155 1012 1130 c 1,3,-1
 1182 272 l 1,4,-1
 1624 1118 l 1,5,6
 1616 1139 1616 1139 1590 1147 c 128,-1,7
 1564 1155 1564 1155 1503 1155 c 1,8,-1
 1511 1198 l 1,9,-1
 1847 1198 l 1,10,-1
 1839 1155 l 1,11,12
 1725 1155 1725 1155 1704 1112 c 1,13,-1
 1120 0 l 1,14,-1
 1022 0 l 1,15,-1
 885 715 l 1,16,-1
 512 0 l 1,17,-1
 414 0 l 1,18,-1
 203 1112 l 2,19,20
 194 1155 194 1155 78 1155 c 1,21,-1
 86 1198 l 1,22,-1
 535 1198 l 1,23,-1
 526 1155 l 1,24,25
 431 1155 431 1155 403 1130 c 1,26,-1
 573 274 l 1,27,-1
 864 829 l 1,28,-1
 811 1112 l 2,29,30
 802 1155 802 1155 686 1155 c 1,31,-1
 694 1198 l 1,32,-1
 1143 1198 l 1,0,-1
EndSplineSet
EndChar

StartChar: X
Encoding: 88 88 59
Width: 1064
GlyphClass: 2
Flags: HW
LayerCount: 2
Fore
SplineSet
575 1198 m 1,0,-1
 567 1155 l 1,1,2
 472 1155 472 1155 444 1130 c 1,3,-1
 602 739 l 1,4,-1
 911 1122 l 1,5,6
 897 1155 897 1155 791 1155 c 1,7,-1
 799 1198 l 1,8,-1
 1135 1198 l 1,9,-1
 1126 1155 l 1,10,11
 1026.63157895 1155 1026.63157895 1155 999 1120 c 2,12,-1
 633 668 l 1,13,-1
 868 86 l 1,14,15
 884 43 884 43 993 43 c 1,16,-1
 985 0 l 1,17,-1
 537 0 l 1,18,-1
 545 43 l 1,19,20
 640 43 640 43 668 68 c 1,21,-1
 494 496 l 1,22,-1
 154 76 l 1,23,24
 168 43 168 43 274 43 c 1,25,-1
 266 0 l 1,26,-1
 -70 0 l 1,27,-1
 -61 43 l 1,28,29
 43 43 43 43 76 88 c 1,30,-1
 463 567 l 1,31,-1
 244 1114 l 2,32,33
 227.227272727 1155 227.227272727 1155 119 1155 c 1,34,-1
 127 1198 l 1,35,-1
 575 1198 l 1,0,-1
EndSplineSet
EndChar

StartChar: Y
Encoding: 89 89 60
Width: 1148
GlyphClass: 2
Flags: HW
AnchorPoint: "Anchor-5" 752 1270 basechar 0
AnchorPoint: "Anchor-3" 565 410 basechar 0
AnchorPoint: "Anchor-2" 502 0 basechar 0
AnchorPoint: "Anchor-1" 506 0 basechar 0
AnchorPoint: "Anchor-0" 567 0 basechar 0
LayerCount: 2
Fore
SplineSet
602 84 m 1,0,1
 613.181818182 43 613.181818182 43 725 43 c 1,2,-1
 717 0 l 1,3,-1
 270 0 l 1,4,-1
 279 43 l 1,5,6
 391.636363636 43 391.636363636 43 414 84 c 1,7,-1
 475 451 l 1,8,-1
 207 1114 l 1,9,10
 186 1155 186 1155 82 1155 c 1,11,-1
 90 1198 l 1,12,-1
 539 1198 l 1,13,-1
 530 1155 l 1,14,15
 436 1155 436 1155 408 1130 c 1,16,-1
 633 575 l 1,17,-1
 1051 1118 l 1,18,19
 1036 1155 1036 1155 930 1155 c 1,20,-1
 938 1198 l 1,21,-1
 1274 1198 l 1,22,-1
 1266 1155 l 1,23,24
 1179 1155 1179 1155 1145 1128 c 1,25,-1
 674 516 l 1,26,-1
 602 84 l 1,0,1
EndSplineSet
EndChar

StartChar: Z
Encoding: 90 90 61
Width: 1030
GlyphClass: 2
Flags: HW
AnchorPoint: "Anchor-5" 637 1270 basechar 0
AnchorPoint: "Anchor-3" 500 602 basechar 0
AnchorPoint: "Anchor-2" 444 0 basechar 0
AnchorPoint: "Anchor-1" 444 0 basechar 0
LayerCount: 2
Fore
SplineSet
297 1137 m 1,0,1
 251.025751073 1119.75965665 251.025751073 1119.75965665 233 1008 c 1,2,-1
 190 1008 l 1,3,-1
 223 1198 l 1,4,-1
 1049 1198 l 1,5,-1
 207 61 l 1,6,-1
 764 61 l 1,7,8
 831 87 831 87 881 197 c 1,9,-1
 924 197 l 1,10,-1
 838 0 l 1,11,-1
 -47 0 l 1,12,-1
 795 1137 l 1,13,-1
 297 1137 l 1,0,1
EndSplineSet
EndChar

StartChar: bracketleft
Encoding: 91 91 62
Width: 593
GlyphClass: 2
Flags: HW
LayerCount: 2
Fore
SplineSet
430 1186 m 1,0,-1
 190 -246 l 1,1,-1
 428 -246 l 1,2,-1
 416 -319 l 1,3,-1
 14 -319 l 1,4,-1
 279 1260 l 1,5,-1
 680 1260 l 1,6,-1
 668 1186 l 1,7,-1
 430 1186 l 1,0,-1
EndSplineSet
EndChar

StartChar: backslash
Encoding: 92 92 63
Width: 921
GlyphClass: 2
Flags: HW
LayerCount: 2
Fore
SplineSet
799 -20 m 1,0,-1
 733 -57 l 1,1,-1
 150 1217 l 1,2,-1
 215 1253 l 1,3,-1
 799 -20 l 1,0,-1
EndSplineSet
EndChar

StartChar: bracketright
Encoding: 93 93 64
Width: 593
GlyphClass: 2
Flags: HW
LayerCount: 2
Fore
SplineSet
150 -246 m 1,0,-1
 389 1186 l 1,1,-1
 152 1186 l 1,2,-1
 164 1260 l 1,3,-1
 565 1260 l 1,4,-1
 301 -319 l 1,5,-1
 -100 -319 l 1,6,-1
 -88 -246 l 1,7,-1
 150 -246 l 1,0,-1
EndSplineSet
EndChar

StartChar: asciicircum
Encoding: 94 94 65
Width: 933
GlyphClass: 2
Flags: HW
LayerCount: 2
Fore
SplineSet
678 1106 m 1,0,-1
 950 705 l 1,1,-1
 870 647 l 1,2,-1
 635 999 l 1,3,-1
 281 647 l 1,4,-1
 221 705 l 1,5,-1
 623 1106 l 1,6,-1
 678 1106 l 1,0,-1
EndSplineSet
EndChar

StartChar: underscore
Encoding: 95 95 66
Width: 942
GlyphClass: 2
Flags: HW
LayerCount: 2
Fore
SplineSet
-6 -102 m 1,0,-1
 739 -102 l 1,1,-1
 723 -193 l 1,2,-1
 -23 -193 l 1,3,-1
 -6 -102 l 1,0,-1
EndSplineSet
EndChar

StartChar: grave
Encoding: 96 96 67
Width: 614
GlyphClass: 2
Flags: HW
LayerCount: 2
Fore
SplineSet
567 1356 m 1,0,-1
 664 1024 l 1,1,-1
 610 1024 l 1,2,-1
 350 1356 l 1,3,-1
 567 1356 l 1,0,-1
EndSplineSet
EndChar

StartChar: a
Encoding: 97 97 68
Width: 987
GlyphClass: 2
Flags: HW
AnchorPoint: "Anchor-5" 545 1055 basechar 0
AnchorPoint: "Anchor-3" 401 242 basechar 0
AnchorPoint: "Anchor-2" 399 0 basechar 0
AnchorPoint: "Anchor-1" 319 0 basechar 0
AnchorPoint: "Anchor-0" 758 0 basechar 0
LayerCount: 2
Fore
SplineSet
268 750 m 1,0,1
 328 750 328 750 328 681 c 0,2,3
 328 642 328 642 297 618 c 128,-1,4
 266 594 266 594 227.5 594 c 0,5,6
 150 594 150 594 150 672 c 0,7,8
 150 791 150 791 255 856.5 c 128,-1,9
 360 922 360 922 525 922 c 128,-1,10
 690 922 690 922 768 849.5 c 128,-1,11
 846 777 846 777 846 655 c 0,12,13
 846 632 846 632 838 578 c 2,14,-1
 778 217 l 1,15,16
 774 185 774 185 774 172 c 0,17,18
 774 113 774 113 802.5 80 c 128,-1,19
 831 47 831 47 879 47 c 1,20,-1
 870 0 l 1,21,22
 669 0 669 0 610 76 c 1,23,24
 465 -20 465 -20 283 -20 c 0,25,26
 155 -20 155 -20 83.5 22.5 c 128,-1,27
 12 65 12 65 12 170 c 0,28,29
 12 277.617283951 12 277.617283951 95.5 340.5 c 0,30,31
 176.801327167 401.726925397 176.801327167 401.726925397 266.900663583 426.363462699 c 128,-1,32
 357 451 357 451 410.5 463 c 128,-1,33
 464 475 464 475 532 489.5 c 128,-1,34
 600 504 600 504 643 516 c 1,35,36
 657 616 657 616 657 685.5 c 128,-1,37
 657 755 657 755 612.5 801.5 c 128,-1,38
 568 848 568 848 486.5 848 c 128,-1,39
 405 848 405 848 348.5 827 c 128,-1,40
 292 806 292 806 268 750 c 1,0,1
635 471 m 1,41,42
 610 463 610 463 566.5 452 c 128,-1,43
 523 441 523 441 492.5 433 c 128,-1,44
 462 425 462 425 421.5 411 c 128,-1,45
 381 397 381 397 352.5 383.5 c 128,-1,46
 324 370 324 370 294 348.5 c 128,-1,47
 264 327 264 327 245.5 302 c 0,48,49
 203 244.567567568 203 244.567567568 203 173.783783784 c 0,50,51
 203 49 203 49 330 49 c 0,52,53
 392 49 392 49 465 68.5 c 128,-1,54
 538 88 538 88 590 119 c 1,55,56
 586 139 586 139 586 154 c 128,-1,57
 586 169 586 169 590 197 c 2,58,-1
 635 471 l 1,41,42
EndSplineSet
EndChar

StartChar: b
Encoding: 98 98 69
Width: 1095
GlyphClass: 2
Flags: HW
AnchorPoint: "Anchor-5" 647 1055 basechar 0
AnchorPoint: "Anchor-3" 350 1044 basechar 0
AnchorPoint: "Anchor-2" 414 0 basechar 0
LayerCount: 2
Fore
SplineSet
358 770 m 1,0,1
 503 930 503 930 666 930 c 0,2,3
 766.150943396 930 766.150943396 930 831.575471698 893.5 c 128,-1,4
 897 857 897 857 932.5 817.5 c 0,5,6
 1014 726.816901408 1014 726.816901408 1014 578.408450704 c 128,-1,7
 1014 430 1014 430 969 317 c 128,-1,8
 924 204 924 204 847 131 c 0,9,10
 687.726027397 -20 687.726027397 -20 461 -20 c 0,11,12
 259.444444444 -20 259.444444444 -20 119 59 c 0,13,14
 87 78 87 78 61 102 c 1,15,-1
 238 1145 l 1,16,17
 110 1155 110 1155 109 1155 c 2,18,-1
 117 1202 l 1,19,20
 156 1202 156 1202 276 1246 c 128,-1,21
 396 1290 396 1290 444 1290 c 1,22,-1
 358 770 l 1,0,1
340 666 m 1,23,-1
 242 78 l 1,24,25
 342 49 342 49 461 49 c 0,26,27
 524 49 524 49 588 88 c 128,-1,28
 652 127 652 127 704 195 c 128,-1,29
 756 263 756 263 788.5 364.5 c 128,-1,30
 821 466 821 466 821 587.5 c 128,-1,31
 821 709 821 709 770.5 784.5 c 128,-1,32
 720 860 720 860 634 860 c 128,-1,33
 548 860 548 860 472.5 803.5 c 128,-1,34
 397 747 397 747 340 666 c 1,23,-1
EndSplineSet
EndChar

StartChar: c
Encoding: 99 99 70
Width: 978
GlyphClass: 2
Flags: HW
AnchorPoint: "Anchor-5" 637 1055 basechar 0
AnchorPoint: "Anchor-2" 453 0 basechar 0
AnchorPoint: "Anchor-1" 453 0 basechar 0
LayerCount: 2
Fore
SplineSet
801 602 m 0,0,1
 721 602 721 602 721 670.5 c 0,2,3
 721 709 721 709 749.5 733.5 c 128,-1,4
 778 758 778 758 807 758 c 1,5,6
 799 860 799 860 614 860 c 0,7,8
 472 860 472 860 368 734 c 128,-1,9
 264 608 264 608 264 414 c 0,10,11
 264 266 264 266 337 161.5 c 128,-1,12
 410 57 410 57 509 57 c 128,-1,13
 608 57 608 57 681 88 c 128,-1,14
 754 119 754 119 825 193 c 1,15,-1
 870 168 l 1,16,17
 795 71 795 71 692 25.5 c 128,-1,18
 589 -20 589 -20 432 -20 c 0,19,20
 162.496296296 -20 162.496296296 -20 86 204.5 c 0,21,22
 63 272 63 272 63 374.5 c 128,-1,23
 63 477 63 477 101 580.5 c 128,-1,24
 139 684 139 684 208 759.5 c 128,-1,25
 277 835 277 835 379 878.5 c 128,-1,26
 481 922 481 922 616.5 922 c 128,-1,27
 752 922 752 922 830.5 876 c 128,-1,28
 909 830 909 830 909 741 c 0,29,30
 909 680 909 680 879.5 641 c 128,-1,31
 850 602 850 602 801 602 c 0,0,1
EndSplineSet
EndChar

StartChar: d
Encoding: 100 100 71
Width: 1103
GlyphClass: 2
Flags: HW
AnchorPoint: "Anchor-5" 561 1055 basechar 0
AnchorPoint: "Anchor-3" 887 1040 basechar 0
AnchorPoint: "Anchor-2" 434 0 basechar 0
LayerCount: 2
Fore
SplineSet
807 881 m 1,0,-1
 852 1145 l 1,1,2
 724 1155 724 1155 723 1155 c 2,3,-1
 731 1202 l 1,4,5
 769 1202 769 1202 890 1246 c 128,-1,6
 1011 1290 1011 1290 1059 1290 c 1,7,-1
 881 217 l 1,8,9
 877 185 877 185 877 172 c 0,10,11
 877 113 877 113 905 80 c 128,-1,12
 933 47 933 47 981 47 c 1,13,-1
 973 0 l 1,14,15
 761 0 761 0 709 78 c 1,16,17
 591 -20 591 -20 410 -20 c 0,18,19
 310.538461538 -20 310.538461538 -20 244.769230769 16 c 128,-1,20
 179 52 179 52 143 91.5 c 0,21,22
 61 181.472222222 61 181.472222222 61 330.236111111 c 128,-1,23
 61 479 61 479 106 592.5 c 128,-1,24
 151 706 151 706 228 778.5 c 0,25,26
 388.903448276 930 388.903448276 930 614 930 c 0,27,28
 733 930 733 930 807 881 c 1,0,-1
692 125 m 1,29,30
 688 145 688 145 688 159 c 128,-1,31
 688 173 688 173 692 197 c 2,32,-1
 797 815 l 1,33,34
 729 860 729 860 614 860 c 0,35,36
 500.273504274 860 500.273504274 860 385.5 734.5 c 0,37,38
 332 676 332 676 297 583.5 c 128,-1,39
 262 491 262 491 262 400 c 128,-1,40
 262 309 262 309 282 233.5 c 128,-1,41
 302 158 302 158 345 103.5 c 128,-1,42
 388 49 388 49 442 49 c 0,43,44
 591 49 591 49 692 125 c 1,29,30
EndSplineSet
EndChar

StartChar: e
Encoding: 101 101 72
Width: 1003
GlyphClass: 2
Flags: HW
AnchorPoint: "Anchor-5" 592 1055 basechar 0
AnchorPoint: "Anchor-3" 543 692 basechar 0
AnchorPoint: "Anchor-2" 451 0 basechar 0
AnchorPoint: "Anchor-1" 451 0 basechar 0
AnchorPoint: "Anchor-0" 526 0 basechar 0
LayerCount: 2
Fore
SplineSet
922.5 740 m 0,0,1
 942 694 942 694 942 658 c 128,-1,2
 942 622 942 622 937.5 605 c 128,-1,3
 933 588 933 588 917 567.5 c 128,-1,4
 901 547 901 547 872 532.5 c 0,5,6
 802.407407407 497.703703704 802.407407407 497.703703704 664 479 c 2,7,-1
 268 426 l 1,8,9
 268 272 268 272 339.5 164.5 c 128,-1,10
 411 57 411 57 510.5 57 c 128,-1,11
 610 57 610 57 683 88 c 128,-1,12
 756 119 756 119 827 193 c 1,13,-1
 872 168 l 1,14,15
 797 71 797 71 694 25.5 c 128,-1,16
 591 -20 591 -20 434 -20 c 0,17,18
 247.192771084 -20 247.192771084 -20 147 95.5 c 0,19,20
 66 188.875 66 188.875 66 352.9375 c 128,-1,21
 66 517 66 517 124 643.5 c 128,-1,22
 182 770 182 770 298 846 c 128,-1,23
 414 922 414 922 571 922 c 0,24,25
 845.347826087 922 845.347826087 922 922.5 740 c 0,0,1
272 489 m 1,26,-1
 578 530 l 2,27,28
 667 541 667 541 712.5 575 c 128,-1,29
 758 609 758 609 758 676 c 0,30,31
 758 737.558139535 758 737.558139535 726.5 780.779069767 c 0,32,33
 668.762711864 860 668.762711864 860 553 860 c 0,34,35
 470 860 470 860 384 755 c 128,-1,36
 298 650 298 650 272 489 c 1,26,-1
EndSplineSet
EndChar

StartChar: f
Encoding: 102 102 73
Width: 512
GlyphClass: 2
Flags: HW
AnchorPoint: "Anchor-5" 567 1341 basechar 0
LayerCount: 2
Fore
SplineSet
718 1257 m 128,-1,1
 774 1224 774 1224 774 1182.5 c 128,-1,2
 774 1141 774 1141 744 1117.5 c 128,-1,3
 714 1094 714 1094 680.5 1094 c 128,-1,4
 647 1094 647 1094 633 1108 c 128,-1,5
 619 1122 619 1122 616.5 1142 c 128,-1,6
 614 1162 614 1162 612 1181.5 c 0,7,8
 607.128205128 1229 607.128205128 1229 563.564102564 1229 c 128,-1,9
 520 1229 520 1229 485.5 1170 c 128,-1,10
 451 1111 451 1111 432 999 c 2,11,-1
 416 901 l 1,12,-1
 510 901 l 1,13,-1
 500 840 l 1,14,-1
 406 840 l 1,15,-1
 264 0 l 1,16,-1
 160 -72 l 1,17,-1
 68 -72 l 1,18,-1
 221 840 l 1,19,-1
 119 840 l 1,20,-1
 129 901 l 1,21,-1
 231 901 l 1,22,-1
 242 971 l 1,23,24
 271 1140 271 1140 353 1215 c 128,-1,25
 435 1290 435 1290 548.5 1290 c 128,-1,0
 662 1290 662 1290 718 1257 c 128,-1,1
EndSplineSet
EndChar

StartChar: g
Encoding: 103 103 74
Width: 1058
GlyphClass: 2
Flags: HW
AnchorPoint: "Anchor-5" 645 1055 basechar 0
AnchorPoint: "Anchor-3" 834 467 basechar 0
AnchorPoint: "Anchor-2" 408 0 basechar 0
LayerCount: 2
Fore
SplineSet
209 -182 m 0,0,1
 209 -257 209 -257 141 -281 c 1,2,3
 161.589285714 -306.736607143 161.589285714 -306.736607143 230.294642857 -321.368303571 c 128,-1,4
 299 -336 299 -336 366.5 -336 c 128,-1,5
 434 -336 434 -336 485.5 -303 c 0,6,7
 600.165745856 -229.524861878 600.165745856 -229.524861878 662 41 c 1,8,9
 559 -20 559 -20 410 -20 c 0,10,11
 244.454545455 -20 244.454545455 -20 143 88.5 c 0,12,13
 61 176.194444444 61 176.194444444 61 324.597222222 c 128,-1,14
 61 473 61 473 105.5 586 c 128,-1,15
 150 699 150 699 226.5 771.5 c 0,16,17
 385.303448276 922 385.303448276 922 612 922 c 0,18,19
 769.8 922 769.8 922 861 874 c 0,20,21
 939.746987952 832.554216867 939.746987952 832.554216867 963 800 c 2,22,-1
 973 786 l 1,23,-1
 852 59 l 2,24,25
 817 -151 817 -151 694 -280.5 c 128,-1,26
 571 -410 571 -410 391 -410 c 128,-1,27
 211 -410 211 -410 115.5 -356 c 128,-1,28
 20 -302 20 -302 20 -245.5 c 128,-1,29
 20 -189 20 -189 53.5 -156 c 128,-1,30
 87 -123 87 -123 123.5 -123 c 0,31,32
 209 -123 209 -123 209 -182 c 0,0,1
676 109 m 1,33,-1
 795 819 l 1,34,35
 705 852 705 852 628 852 c 128,-1,36
 551 852 551 852 487.5 813 c 128,-1,37
 424 774 424 774 372 707 c 128,-1,38
 320 640 320 640 287 539 c 128,-1,39
 254 438 254 438 254 317 c 128,-1,40
 254 196 254 196 304 122.5 c 128,-1,41
 354 49 354 49 442 49 c 0,42,43
 577 49 577 49 676 109 c 1,33,-1
EndSplineSet
EndChar

StartChar: h
Encoding: 104 104 75
Width: 1091
GlyphClass: 2
Flags: HW
AnchorPoint: "Anchor-5" 375 1341 basechar 0
AnchorPoint: "Anchor-3" 391 1057 basechar 0
AnchorPoint: "Anchor-2" 442 0 basechar 0
AnchorPoint: "Anchor-1" 741 0 basechar 0
LayerCount: 2
Fore
SplineSet
879 217 m 1,0,1
 874 177 874 177 874 172 c 0,2,3
 874 113 874 113 902.5 80 c 128,-1,4
 931 47 931 47 979 47 c 1,5,-1
 971 0 l 1,6,7
 827 0 827 0 756.5 36.5 c 128,-1,8
 686 73 686 73 686 156 c 0,9,10
 686 169 686 169 690 197 c 2,11,-1
 766 653 l 2,12,13
 772 683 772 683 772 711 c 0,14,15
 772 852 772 852 612 852 c 0,16,17
 534 852 534 852 464 781 c 128,-1,18
 394 710 394 710 340 610 c 1,19,-1
 238 0 l 1,20,-1
 53 0 l 1,21,-1
 246 1145 l 1,22,23
 118 1155 118 1155 117 1155 c 2,24,-1
 125 1202 l 1,25,26
 164 1202 164 1202 285 1246 c 128,-1,27
 406 1290 406 1290 453 1290 c 1,28,-1
 365 758 l 1,29,30
 488 922 488 922 646.5 922 c 0,31,32
 805 922 805 922 880.5 875 c 128,-1,33
 956 828 956 828 956 717 c 0,34,35
 956 697 956 697 948 639 c 1,36,-1
 879 217 l 1,0,1
EndSplineSet
EndChar

StartChar: i
Encoding: 105 105 76
Width: 497
GlyphClass: 2
Flags: HW
AnchorPoint: "Anchor-5" 387 1270 basechar 0
AnchorPoint: "Anchor-3" 272 532 basechar 0
AnchorPoint: "Anchor-2" 170 0 basechar 0
AnchorPoint: "Anchor-1" 170 0 basechar 0
AnchorPoint: "Anchor-0" 227 0 basechar 0
LayerCount: 2
Fore
SplineSet
451 1262 m 128,-1,1
 479 1234 479 1234 479 1184 c 128,-1,2
 479 1134 479 1134 441.5 1093.5 c 128,-1,3
 404 1053 404 1053 357 1053 c 128,-1,4
 310 1053 310 1053 283 1080 c 128,-1,5
 256 1107 256 1107 256 1157 c 128,-1,6
 256 1207 256 1207 293 1248.5 c 128,-1,7
 330 1290 330 1290 376.5 1290 c 128,-1,0
 423 1290 423 1290 451 1262 c 128,-1,1
217 776 m 1,8,9
 199 777 199 777 170.5 780 c 0,10,11
 113.5 786 113.5 786 90 786 c 1,12,-1
 98 834 l 1,13,14
 136 834 136 834 257 878 c 128,-1,15
 378 922 378 922 426 922 c 1,16,-1
 272 0 l 1,17,-1
 88 0 l 1,18,-1
 217 776 l 1,8,9
EndSplineSet
EndChar

StartChar: j
Encoding: 106 106 77
Width: 493
GlyphClass: 2
Flags: HW
AnchorPoint: "Anchor-5" 379 1270 basechar 0
LayerCount: 2
Fore
SplineSet
448 1264 m 128,-1,1
 475 1236 475 1236 475 1186 c 128,-1,2
 475 1136 475 1136 437.5 1095.5 c 128,-1,3
 400 1055 400 1055 353 1055 c 128,-1,4
 306 1055 306 1055 279 1082 c 128,-1,5
 252 1109 252 1109 252 1159 c 128,-1,6
 252 1209 252 1209 290 1250.5 c 128,-1,7
 328 1292 328 1292 374.5 1292 c 128,-1,0
 421 1292 421 1292 448 1264 c 128,-1,1
215 778 m 1,8,9
 87 788 87 788 86 788 c 2,10,-1
 94 836 l 1,11,12
 133 836 133 836 253.5 880 c 128,-1,13
 374 924 374 924 422 924 c 1,14,-1
 254 -88 l 1,15,16
 225 -255 225 -255 136 -331.5 c 128,-1,17
 47 -408 47 -408 -70 -408 c 0,18,19
 -311 -408 -311 -408 -311 -264 c 0,20,21
 -311 -211 -311 -211 -280.5 -179 c 128,-1,22
 -250 -147 -250 -147 -214 -147 c 128,-1,23
 -178 -147 -178 -147 -158.5 -165 c 128,-1,24
 -139 -183 -139 -183 -139 -216 c 128,-1,25
 -139 -249 -139 -249 -170 -276 c 1,26,-1
 -170 -289 l 2,27,28
 -170 -346 -170 -346 -80 -346 c 0,29,30
 -39 -346 -39 -346 2.5 -286 c 128,-1,31
 44 -226 44 -226 63 -117 c 2,32,-1
 215 778 l 1,8,9
EndSplineSet
EndChar

StartChar: k
Encoding: 107 107 78
Width: 991
GlyphClass: 2
Flags: HW
AnchorPoint: "Anchor-5" 375 1341 basechar 0
AnchorPoint: "Anchor-3" 238 532 basechar 0
AnchorPoint: "Anchor-2" 434 0 basechar 0
AnchorPoint: "Anchor-1" 143 0 basechar 0
LayerCount: 2
Fore
SplineSet
987 901 m 1,0,-1
 979 858 l 1,1,2
 902 858 902 858 864 831 c 1,3,-1
 530 571 l 1,4,-1
 801 82 l 2,5,6
 813 60 813 60 839.5 51.5 c 128,-1,7
 866 43 866 43 924 43 c 1,8,-1
 915 0 l 1,9,-1
 709 0 l 2,10,11
 658 0 658 0 627.5 26.5 c 128,-1,12
 597 53 597 53 573 98 c 2,13,-1
 340 520 l 1,14,-1
 756 846 l 1,15,16
 729 858 729 858 657 858 c 1,17,-1
 666 901 l 1,18,-1
 987 901 l 1,0,-1
246 1145 m 1,19,20
 118 1155 118 1155 117 1155 c 2,21,-1
 125 1202 l 1,22,23
 164 1202 164 1202 285 1246 c 128,-1,24
 406 1290 406 1290 453 1290 c 1,25,-1
 238 0 l 1,26,-1
 53 0 l 1,27,-1
 246 1145 l 1,19,20
EndSplineSet
EndChar

StartChar: l
Encoding: 108 108 79
Width: 491
GlyphClass: 2
Flags: HW
AnchorPoint: "Anchor-5" 375 1341 basechar 0
AnchorPoint: "Anchor-3" 266 698 basechar 0
AnchorPoint: "Anchor-2" 147 0 basechar 0
AnchorPoint: "Anchor-1" 147 0 basechar 0
LayerCount: 2
Fore
SplineSet
246 1145 m 1,0,1
 118 1155 118 1155 117 1155 c 2,2,-1
 125 1202 l 1,3,4
 164 1202 164 1202 285 1246 c 128,-1,5
 406 1290 406 1290 453 1290 c 1,6,-1
 274 217 l 1,7,8
 270 185 270 185 270 172 c 0,9,10
 270 113 270 113 298.5 80 c 128,-1,11
 327 47 327 47 375 47 c 1,12,-1
 367 0 l 1,13,14
 223 0 223 0 152.5 36.5 c 128,-1,15
 82 73 82 73 82 156 c 0,16,17
 82 169 82 169 86 197 c 2,18,-1
 246 1145 l 1,0,1
EndSplineSet
EndChar

StartChar: m
Encoding: 109 109 80
Width: 1662
GlyphClass: 2
Flags: HW
AnchorPoint: "Anchor-5" 930 1055 basechar 0
AnchorPoint: "Anchor-3" 825 455 basechar 0
AnchorPoint: "Anchor-2" 750 0 basechar 0
AnchorPoint: "Anchor-1" 750 0 basechar 0
LayerCount: 2
Fore
SplineSet
842 0 m 1,0,-1
 657 0 l 1,1,-1
 760 612 l 2,2,3
 770 677 770 677 770 732 c 0,4,5
 770 852 770 852 629 852 c 0,6,7
 559 852 559 852 495.5 800 c 128,-1,8
 432 748 432 748 383 670 c 1,9,-1
 270 0 l 1,10,-1
 86 0 l 1,11,-1
 215 776 l 1,12,13
 197 777 197 777 168.5 780 c 0,14,15
 111.5 786 111.5 786 88 786 c 1,16,-1
 96 834 l 1,17,18
 135 834 135 834 255.5 878 c 128,-1,19
 376 922 376 922 424 922 c 1,20,-1
 401 786 l 1,21,22
 509 922 509 922 651 922 c 0,23,24
 933 922 933 922 958 766 c 1,25,26
 1070 922 1070 922 1223 922 c 0,27,28
 1532 922 1532 922 1532 733 c 0,29,30
 1532 720 1532 720 1528 688 c 1,31,-1
 1450 217 l 1,32,33
 1446 185 1446 185 1446 172 c 0,34,35
 1446 113 1446 113 1474 80 c 128,-1,36
 1502 47 1502 47 1550 47 c 1,37,-1
 1542 0 l 1,38,39
 1398 0 1398 0 1327.5 36.5 c 128,-1,40
 1257 73 1257 73 1257 156 c 0,41,42
 1257 162 1257 162 1262 197 c 2,43,-1
 1331 612 l 2,44,45
 1341 677 1341 677 1341 732 c 0,46,47
 1341 852 1341 852 1206.5 852 c 128,-1,48
 1072 852 1072 852 954 668 c 1,49,-1
 842 0 l 1,0,-1
EndSplineSet
EndChar

StartChar: n
Encoding: 110 110 81
Width: 1124
GlyphClass: 2
Flags: HW
AnchorPoint: "Anchor-5" 672 1055 basechar 0
AnchorPoint: "Anchor-3" 567 455 basechar 0
AnchorPoint: "Anchor-2" 492 0 basechar 0
AnchorPoint: "Anchor-1" 492 0 basechar 0
LayerCount: 2
Fore
SplineSet
399 772 m 1,0,1
 523 924 523 924 725 924 c 0,2,3
 987 924 987 924 987 707 c 0,4,5
 987 672 987 672 981 631 c 2,6,-1
 911 217 l 1,7,8
 907 185 907 185 907 172 c 0,9,10
 907 113 907 113 935.5 80 c 128,-1,11
 964 47 964 47 1012 47 c 1,12,-1
 1004 0 l 1,13,14
 860 0 860 0 789.5 36.5 c 128,-1,15
 719 73 719 73 719 156 c 0,16,17
 719 169 719 169 723 197 c 2,18,-1
 799 645 l 2,19,20
 803 665 803 665 803 705 c 0,21,22
 803 852 803 852 645 852 c 0,23,24
 564 852 564 852 496.5 794.5 c 128,-1,25
 429 737 429 737 381 657 c 1,26,-1
 270 0 l 1,27,-1
 86 0 l 1,28,-1
 215 776 l 1,29,30
 197 777 197 777 168.5 780 c 0,31,32
 111.5 786 111.5 786 88 786 c 1,33,-1
 96 834 l 1,34,35
 135 834 135 834 255.5 878 c 128,-1,36
 376 922 376 922 424 922 c 1,37,-1
 399 772 l 1,0,1
EndSplineSet
EndChar

StartChar: o
Encoding: 111 111 82
Width: 1120
GlyphClass: 2
Flags: HW
AnchorPoint: "Anchor-5" 653 1055 basechar 0
AnchorPoint: "Anchor-4" 899 641 basechar 0
AnchorPoint: "Anchor-3" 551 471 basechar 0
AnchorPoint: "Anchor-2" 489 0 basechar 0
AnchorPoint: "Anchor-1" 489 0 basechar 0
AnchorPoint: "Anchor-0" 489 0 basechar 0
LayerCount: 2
Fore
SplineSet
301 597 m 128,-1,1
 264 485 264 485 264 342 c 128,-1,2
 264 199 264 199 330.5 120 c 128,-1,3
 397 41 397 41 504.5 41 c 128,-1,4
 612 41 612 41 687 115.5 c 128,-1,5
 762 190 762 190 800 307 c 128,-1,6
 838 424 838 424 838 559 c 0,7,8
 838 858 838 858 578 858 c 0,9,10
 485 858 485 858 411.5 783.5 c 128,-1,0
 338 709 338 709 301 597 c 128,-1,1
479 -20 m 0,11,12
 279 -20 279 -20 172.5 82 c 128,-1,13
 66 184 66 184 66 360 c 0,14,15
 66 601.189781022 66 601.189781022 205.5 758 c 0,16,17
 351.396103896 922 351.396103896 922 623 922 c 0,18,19
 830 922 830 922 933 825.5 c 128,-1,20
 1036 729 1036 729 1036 557 c 0,21,22
 1036 311.485294118 1036 311.485294118 897 150 c 0,23,24
 829 71 829 71 721.5 25.5 c 128,-1,25
 614 -20 614 -20 479 -20 c 0,11,12
EndSplineSet
EndChar

StartChar: p
Encoding: 112 112 83
Width: 1101
GlyphClass: 2
Flags: HW
AnchorPoint: "Anchor-5" 684 1055 basechar 0
AnchorPoint: "Anchor-3" 256 446 basechar 0
AnchorPoint: "Anchor-2" 520 0 basechar 0
LayerCount: 2
Fore
SplineSet
-109 -393 m 1,0,-1
 -102 -350 l 1,1,2
 12.6363636364 -350 12.6363636364 -350 35 -309 c 1,3,-1
 215 776 l 1,4,5
 197 777 197 777 168.5 780 c 0,6,7
 111.5 786 111.5 786 88 786 c 1,8,-1
 96 834 l 1,9,10
 135 834 135 834 255.5 878 c 128,-1,11
 376 922 376 922 424 922 c 1,12,-1
 399 766 l 1,13,14
 529 922 529 922 707 922 c 0,15,16
 861.078947368 922 861.078947368 922 950 813 c 0,17,18
 1020 727.193548387 1020 727.193548387 1020 580.096774194 c 128,-1,19
 1020 433 1020 433 976 318.5 c 128,-1,20
 932 204 932 204 856 131 c 0,21,22
 698.794520548 -20 698.794520548 -20 467 -20 c 0,23,24
 348 -20 348 -20 274 25 c 1,25,-1
 219 -309 l 1,26,27
 225 -331 225 -331 251 -340.5 c 128,-1,28
 277 -350 277 -350 340 -350 c 1,29,-1
 334 -393 l 1,30,-1
 -109 -393 l 1,0,-1
823 559 m 0,31,32
 823 852 823 852 676 852 c 0,33,34
 508 852 508 852 379 651 c 1,35,-1
 285 90 l 1,36,37
 357 49 357 49 443 49 c 128,-1,38
 529 49 529 49 592 85.5 c 128,-1,39
 655 122 655 122 706.5 186.5 c 128,-1,40
 758 251 758 251 790.5 349 c 128,-1,41
 823 447 823 447 823 559 c 0,31,32
EndSplineSet
EndChar

StartChar: q
Encoding: 113 113 84
Width: 1062
GlyphClass: 2
Flags: HW
LayerCount: 2
Fore
SplineSet
469 -393 m 1,0,-1
 475 -350 l 1,1,2
 589.636363636 -350 589.636363636 -350 612 -309 c 1,3,-1
 672 47 l 1,4,5
 565 -20 565 -20 410 -20 c 0,6,7
 244.454545455 -20 244.454545455 -20 143 88.5 c 0,8,9
 61 176.194444444 61 176.194444444 61 324.597222222 c 128,-1,10
 61 473 61 473 105.5 586 c 128,-1,11
 150 699 150 699 226.5 771.5 c 0,12,13
 385.303448276 922 385.303448276 922 612 922 c 0,14,15
 686 922 686 922 750 900 c 128,-1,16
 814 878 814 878 852.5 847 c 0,17,18
 928.663043478 785.673913043 928.663043478 785.673913043 956 731 c 2,19,-1
 967 709 l 1,20,-1
 797 -309 l 1,21,22
 803 -331 803 -331 829 -340.5 c 128,-1,23
 855 -350 855 -350 918 -350 c 1,24,-1
 911 -393 l 1,25,-1
 469 -393 l 1,0,-1
682 113 m 1,26,-1
 797 795 l 1,27,28
 712 852 712 852 631.5 852 c 128,-1,29
 551 852 551 852 487.5 813 c 128,-1,30
 424 774 424 774 372 707 c 128,-1,31
 320 640 320 640 287 539 c 128,-1,32
 254 438 254 438 254 317 c 128,-1,33
 254 196 254 196 304 122.5 c 128,-1,34
 354 49 354 49 442 49 c 0,35,36
 583 49 583 49 682 113 c 1,26,-1
EndSplineSet
EndChar

StartChar: r
Encoding: 114 114 85
Width: 788
GlyphClass: 2
Flags: HW
AnchorPoint: "Anchor-5" 567 1055 basechar 0
AnchorPoint: "Anchor-2" 182 0 basechar 0
LayerCount: 2
Fore
SplineSet
796.5 756.5 m 128,-1,1
 768 735 768 735 735 735 c 128,-1,2
 702 735 702 735 685.5 753.5 c 128,-1,3
 669 772 669 772 663.5 793.5 c 128,-1,4
 658 815 658 815 640.5 833.5 c 128,-1,5
 623 852 623 852 591 852 c 0,6,7
 529.918918919 852 529.918918919 852 367 578 c 1,8,-1
 270 0 l 1,9,-1
 86 0 l 1,10,-1
 215 776 l 1,11,12
 197 777 197 777 168.5 780 c 0,13,14
 111.5 786 111.5 786 88 786 c 1,15,-1
 96 834 l 1,16,17
 135 834 135 834 255.5 878 c 128,-1,18
 376 922 376 922 424 922 c 1,19,-1
 391 721 l 1,20,21
 534 922 534 922 624 922 c 128,-1,22
 714 922 714 922 769.5 890 c 128,-1,23
 825 858 825 858 825 818 c 128,-1,0
 825 778 825 778 796.5 756.5 c 128,-1,1
EndSplineSet
EndChar

StartChar: s
Encoding: 115 115 86
Width: 835
GlyphClass: 2
Flags: HW
AnchorPoint: "Anchor-5" 516 1055 basechar 0
AnchorPoint: "Anchor-3" 403 469 basechar 0
AnchorPoint: "Anchor-2" 285 0 basechar 0
AnchorPoint: "Anchor-1" 285 0 basechar 0
LayerCount: 2
Fore
SplineSet
618.5 789 m 128,-1,1
 549 852 549 852 467.5 852 c 128,-1,2
 386 852 386 852 324 814 c 128,-1,3
 262 776 262 776 262 728.5 c 128,-1,4
 262 681 262 681 296 644.5 c 128,-1,5
 330 608 330 608 381 584 c 128,-1,6
 432 560 432 560 491.5 530.5 c 128,-1,7
 551 501 551 501 602 472 c 128,-1,8
 653 443 653 443 687 396 c 128,-1,9
 721 349 721 349 721 271.5 c 128,-1,10
 721 194 721 194 664 122 c 0,11,12
 551.583333333 -20 551.583333333 -20 328 -20 c 0,13,14
 238.032258065 -20 238.032258065 -20 148.5 25.5 c 0,15,16
 118 41 118 41 104 41 c 0,17,18
 81 41 81 41 74 0 c 1,19,-1
 25 0 l 1,20,-1
 47 260 l 1,21,-1
 92 260 l 1,22,23
 92 205 92 205 135 158 c 128,-1,24
 178 111 178 111 238.5 86 c 128,-1,25
 299 61 299 61 341.5 61 c 128,-1,26
 384 61 384 61 412 66.5 c 128,-1,27
 440 72 440 72 474.5 86 c 128,-1,28
 509 100 509 100 531 132 c 128,-1,29
 553 164 553 164 553 211.5 c 128,-1,30
 553 259 553 259 508.5 297 c 128,-1,31
 464 335 464 335 400.5 363 c 128,-1,32
 337 391 337 391 273.5 422.5 c 128,-1,33
 210 454 210 454 165.5 507 c 128,-1,34
 121 560 121 560 121 631 c 0,35,36
 121 768 121 768 218.5 845 c 128,-1,37
 316 922 316 922 461 922 c 0,38,39
 544 922 544 922 634 875.5 c 0,40,41
 664 860 664 860 676.5 860 c 0,42,43
 704.166666667 860 704.166666667 860 711 901 c 1,44,-1
 758 901 l 1,45,-1
 733 641 l 1,46,-1
 688 641 l 1,47,0
 688 726 688 726 618.5 789 c 128,-1,1
EndSplineSet
EndChar

StartChar: t
Encoding: 116 116 87
Width: 681
GlyphClass: 2
Flags: HW
AnchorPoint: "Anchor-5" 451 1270 basechar 0
AnchorPoint: "Anchor-2" 291 0 basechar 0
AnchorPoint: "Anchor-1" 291 0 basechar 0
LayerCount: 2
Fore
SplineSet
483 1198 m 1,0,-1
 434 901 l 1,1,-1
 610 901 l 1,2,-1
 600 840 l 1,3,-1
 424 840 l 1,4,-1
 313 188 l 1,5,6
 309 156 309 156 309 141 c 0,7,8
 309 57 309 57 399 57 c 0,9,10
 435 57 435 57 480 93.5 c 128,-1,11
 525 130 525 130 549 193 c 1,12,-1
 594 168 l 1,13,14
 519 -20 519 -20 317 -20 c 0,15,16
 115 -20 115 -20 115 147 c 0,17,18
 115 175 115 175 121 205 c 2,19,-1
 227 840 l 1,20,-1
 84 840 l 1,21,-1
 94 901 l 1,22,23
 212 901 212 901 301 990.5 c 128,-1,24
 390 1080 390 1080 410 1198 c 1,25,-1
 483 1198 l 1,0,-1
EndSplineSet
EndChar

StartChar: u
Encoding: 117 117 88
Width: 1128
GlyphClass: 2
Flags: HW
AnchorPoint: "Anchor-5" 645 1055 basechar 0
AnchorPoint: "Anchor-4" 965 641 basechar 0
AnchorPoint: "Anchor-3" 551 504 basechar 0
AnchorPoint: "Anchor-2" 477 0 basechar 0
AnchorPoint: "Anchor-1" 453 0 basechar 0
AnchorPoint: "Anchor-0" 709 0 basechar 0
LayerCount: 2
Fore
SplineSet
215 817 m 1,0,1
 203.818181818 858 203.818181818 858 92 858 c 1,2,-1
 100 901 l 1,3,-1
 414 901 l 1,4,-1
 305 256 l 2,5,6
 299 226 299 226 299 197 c 0,7,8
 299 49 299 49 459 49 c 0,9,10
 597 49 597 49 713 178 c 1,11,-1
 834 901 l 1,12,-1
 1018 901 l 1,13,-1
 903 217 l 1,14,15
 899 185 899 185 899 172 c 0,16,17
 899 113 899 113 927.5 80 c 128,-1,18
 956 47 956 47 1004 47 c 1,19,-1
 995 0 l 1,20,21
 743.80952381 0 743.80952381 0 715 121 c 1,22,23
 574 -20 574 -20 421 -20 c 0,24,25
 117 -20 117 -20 117 197 c 0,26,27
 117 230 117 230 123 270 c 2,28,-1
 215 817 l 1,0,1
EndSplineSet
EndChar

StartChar: v
Encoding: 118 118 89
Width: 937
GlyphClass: 2
Flags: HW
AnchorPoint: "Anchor-5" 602 1055 basechar 0
AnchorPoint: "Anchor-2" 381 0 basechar 0
LayerCount: 2
Fore
SplineSet
334 0 m 1,0,-1
 145 817 l 2,1,2
 139 839 139 839 112.5 848.5 c 128,-1,3
 86 858 86 858 23 858 c 1,4,-1
 31 901 l 1,5,-1
 322 901 l 1,6,-1
 475 250 l 1,7,8
 485 264 485 264 539.5 335.5 c 128,-1,9
 594 407 594 407 613.5 434 c 128,-1,10
 633 461 633 461 677.5 526.5 c 128,-1,11
 722 592 722 592 744 633 c 0,12,13
 805.784671533 748.144160584 805.784671533 748.144160584 831 840 c 1,14,15
 807 858 807 858 725 858 c 1,16,-1
 733 901 l 1,17,-1
 946 901 l 1,18,19
 913.941017316 704.874458874 913.941017316 704.874458874 748 474 c 0,20,21
 679 378 679 378 611 291 c 0,22,23
 446.985207101 81.1575443787 446.985207101 81.1575443787 434 0 c 1,24,-1
 334 0 l 1,0,-1
EndSplineSet
EndChar

StartChar: w
Encoding: 119 119 90
Width: 1454
GlyphClass: 2
Flags: HW
AnchorPoint: "Anchor-5" 807 1055 basechar 0
AnchorPoint: "Anchor-2" 653 0 basechar 0
LayerCount: 2
Fore
SplineSet
872 754 m 1,0,-1
 991 250 l 1,1,2
 1203.10526316 527.368421053 1203.10526316 527.368421053 1243.05263158 601.184210526 c 0,3,4
 1322.99134948 748.897058824 1322.99134948 748.897058824 1348 840 c 1,5,6
 1324 858 1324 858 1241 858 c 1,7,-1
 1249 901 l 1,8,-1
 1462 901 l 1,9,10
 1429.94101732 704.874458874 1429.94101732 704.874458874 1264 474 c 0,11,12
 1195 378 1195 378 1127 291 c 0,13,14
 962.985207101 81.1575443787 962.985207101 81.1575443787 950 0 c 1,15,-1
 850 0 l 1,16,-1
 731 520 l 1,17,-1
 434 0 l 1,18,-1
 334 0 l 1,19,-1
 145 817 l 2,20,21
 139 839 139 839 112.5 848.5 c 128,-1,22
 86 858 86 858 23 858 c 1,23,-1
 31 901 l 1,24,-1
 322 901 l 1,25,-1
 475 250 l 1,26,-1
 762 754 l 1,27,-1
 872 754 l 1,0,-1
EndSplineSet
EndChar

StartChar: x
Encoding: 120 120 91
Width: 958
GlyphClass: 2
Flags: HW
LayerCount: 2
Fore
SplineSet
965 901 m 1,0,-1
 956 858 l 1,1,2
 846.428571429 858 846.428571429 858 813 819 c 2,3,-1
 563 520 l 1,4,-1
 766 72 l 1,5,6
 777.941176471 43 777.941176471 43 883 43 c 1,7,-1
 874 0 l 1,8,-1
 670 0 l 2,9,10
 613 0 613 0 589 22.5 c 128,-1,11
 565 45 565 45 530 123 c 2,12,-1
 424 356 l 1,13,-1
 125 0 l 1,14,-1
 -70 0 l 1,15,-1
 -61 43 l 1,16,17
 46.6086956522 43 46.6086956522 43 84 86 c 2,18,-1
 383 442 l 1,19,-1
 209 829 l 1,20,21
 197.058823529 858 197.058823529 858 94 858 c 1,22,-1
 102 901 l 1,23,-1
 276 901 l 2,24,25
 319 901 319 901 340 898.5 c 128,-1,26
 361 896 361 896 380.5 881 c 128,-1,27
 400 866 400 866 411.5 845.5 c 128,-1,28
 423 825 423 825 444 778 c 2,29,-1
 522 606 l 1,30,-1
 770 901 l 1,31,-1
 965 901 l 1,0,-1
EndSplineSet
EndChar

StartChar: y
Encoding: 121 121 92
Width: 911
GlyphClass: 2
Flags: HW
AnchorPoint: "Anchor-5" 596 1055 basechar 0
AnchorPoint: "Anchor-2" 510 0 basechar 0
AnchorPoint: "Anchor-0" 580 0 basechar 0
LayerCount: 2
Fore
SplineSet
332 0 m 1,0,-1
 143 817 l 1,1,2
 131.818181818 858 131.818181818 858 20 858 c 1,3,-1
 29 901 l 1,4,-1
 319 901 l 1,5,-1
 473 250 l 1,6,-1
 805 836 l 1,7,8
 780 858 780 858 694 858 c 1,9,-1
 702 901 l 1,10,-1
 944 901 l 1,11,-1
 313 -209 l 1,12,13
 258 -303 258 -303 193 -340 c 128,-1,14
 128 -377 128 -377 84.5 -377 c 128,-1,15
 41 -377 41 -377 16.5 -359 c 128,-1,16
 -8 -341 -8 -341 -8 -310.5 c 128,-1,17
 -8 -280 -8 -280 16.5 -251.5 c 128,-1,18
 41 -223 41 -223 65 -223 c 128,-1,19
 89 -223 89 -223 109 -240.5 c 128,-1,20
 129 -258 129 -258 143 -258 c 0,21,22
 188 -258 188 -258 207 -221 c 1,23,-1
 332 0 l 1,0,-1
EndSplineSet
EndChar

StartChar: z
Encoding: 122 122 93
Width: 876
GlyphClass: 2
Flags: HW
AnchorPoint: "Anchor-5" 537 1055 basechar 0
AnchorPoint: "Anchor-3" 438 483 basechar 0
AnchorPoint: "Anchor-2" 348 0 basechar 0
AnchorPoint: "Anchor-1" 348 0 basechar 0
LayerCount: 2
Fore
SplineSet
637 61 m 1,0,1
 682.215189873 77.9556962025 682.215189873 77.9556962025 700 190 c 1,2,-1
 743 190 l 1,3,-1
 711 0 l 1,4,-1
 -47 0 l 1,5,-1
 637 840 l 1,6,-1
 244 840 l 1,7,8
 198.025751073 822.759656652 198.025751073 822.759656652 180 711 c 1,9,-1
 137 711 l 1,10,-1
 170 901 l 1,11,-1
 879 901 l 1,12,-1
 195 61 l 1,13,-1
 637 61 l 1,0,1
EndSplineSet
EndChar

StartChar: braceleft
Encoding: 123 123 94
Width: 544
GlyphClass: 2
Flags: HW
LayerCount: 2
Fore
SplineSet
74 -160 m 0,0,1
 74 -130.013157895 74 -130.013157895 118.5 71.9934210526 c 0,2,3
 172 314.855263158 172 314.855263158 172 352.427631579 c 0,4,5
 172 428 172 428 35 428 c 1,6,-1
 43 475 l 1,7,8
 122 475 122 475 164 501.5 c 128,-1,9
 206 528 206 528 217 598 c 0,10,11
 223 632 223 632 242.5 803.5 c 128,-1,12
 262 975 262 975 270 1028 c 1,13,14
 303 1217 303 1217 600 1217 c 1,15,-1
 594 1169 l 1,16,17
 514 1169 514 1169 470.5 1142.5 c 128,-1,18
 427 1116 427 1116 416 1047 c 0,19,20
 410 1013 410 1013 391.5 841 c 128,-1,21
 373 669 373 669 365 616 c 0,22,23
 346 497 346 497 215 453 c 1,24,25
 313 416 313 416 313 324 c 0,26,27
 313 281.280487805 313 281.280487805 266.5 85.6402439024 c 0,28,29
 213 -139.451219512 213 -139.451219512 213 -182.225609756 c 0,30,31
 213 -264 213 -264 352 -264 c 1,32,-1
 344 -313 l 1,33,34
 74 -313 74 -313 74 -160 c 0,0,1
EndSplineSet
EndChar

StartChar: bar
Encoding: 124 124 95
Width: 391
GlyphClass: 2
Flags: HW
LayerCount: 2
Fore
SplineSet
295 1331 m 1,0,-1
 369 1331 l 1,1,-1
 135 -61 l 1,2,-1
 61 -61 l 1,3,-1
 295 1331 l 1,0,-1
EndSplineSet
EndChar

StartChar: braceright
Encoding: 125 125 96
Width: 544
GlyphClass: 2
Flags: HW
LayerCount: 2
Fore
SplineSet
451 1063 m 0,0,1
 451 1037.55263158 451 1037.55263158 406 833.276315789 c 0,2,3
 352 588.144736842 352 588.144736842 352 550.572368421 c 0,4,5
 352 475 352 475 489 475 c 1,6,-1
 481 428 l 1,7,8
 402 428 402 428 360 401.5 c 128,-1,9
 318 375 318 375 307 305 c 0,10,11
 301 271 301 271 281.5 99.5 c 128,-1,12
 262 -72 262 -72 254 -125 c 1,13,14
 221 -313 221 -313 -78 -313 c 1,15,-1
 -70 -266 l 1,16,17
 9 -266 9 -266 53.5 -239 c 128,-1,18
 98 -212 98 -212 109 -143 c 0,19,20
 115 -109 115 -109 132.5 62.5 c 128,-1,21
 150 234 150 234 158 287 c 0,22,23
 177 407 177 407 309 451 c 1,24,25
 211 488 211 488 211 580 c 0,26,27
 211 621.585365854 211 621.585365854 257.5 817.792682927 c 0,28,29
 311 1043.53658537 311 1043.53658537 311 1085.76829268 c 0,30,31
 311 1167 311 1167 170 1167 c 1,32,-1
 178 1217 l 1,33,34
 451 1217 451 1217 451 1063 c 0,0,1
EndSplineSet
EndChar

StartChar: asciitilde
Encoding: 126 126 97
Width: 1124
GlyphClass: 2
Flags: HW
LayerCount: 2
Fore
SplineSet
778 426 m 0,0,1
 718 426 718 426 538.5 496.5 c 128,-1,2
 359 567 359 567 322 567 c 0,3,4
 244 567 244 567 209.5 532.5 c 128,-1,5
 175 498 175 498 164 426 c 1,6,-1
 111 426 l 1,7,8
 155 696 155 696 365 696 c 0,9,10
 425 696 425 696 604.5 625.5 c 128,-1,11
 784 555 784 555 821 555 c 0,12,13
 899 555 899 555 934.5 589.5 c 128,-1,14
 970 624 970 624 981 696 c 1,15,-1
 1034 696 l 1,16,17
 990 426 990 426 778 426 c 0,0,1
EndSplineSet
EndChar

StartChar: exclamdown
Encoding: 161 161 99
Width: 479
GlyphClass: 2
Flags: HW
LayerCount: 2
Fore
SplineSet
404 1054 m 128,-1,1
 434 1023 434 1023 434 972.5 c 128,-1,2
 434 922 434 922 391 876.5 c 128,-1,3
 348 831 348 831 298.5 831 c 128,-1,4
 249 831 249 831 216.5 862 c 128,-1,5
 184 893 184 893 184 942.5 c 128,-1,6
 184 992 184 992 229 1038.5 c 128,-1,7
 274 1085 274 1085 324 1085 c 128,-1,0
 374 1085 374 1085 404 1054 c 128,-1,1
266 684 m 0,8,9
 291 684 291 684 291 605 c 128,-1,10
 291 526 291 526 269 248 c 128,-1,11
 247 -30 247 -30 229 -133 c 0,12,13
 222 -178 222 -178 190.5 -201.5 c 128,-1,14
 159 -225 159 -225 117.5 -225 c 128,-1,15
 76 -225 76 -225 51.5 -206 c 128,-1,16
 27 -187 27 -187 27 -163 c 128,-1,17
 27 -139 27 -139 33.5 -99.5 c 128,-1,18
 40 -60 40 -60 111 216.5 c 128,-1,19
 182 493 182 493 190 520.5 c 128,-1,20
 198 548 198 548 201 558.5 c 0,21,22
 236.857142857 684 236.857142857 684 266 684 c 0,8,9
EndSplineSet
EndChar

StartChar: cent
Encoding: 162 162 100
Width: 970
GlyphClass: 2
Flags: HW
LayerCount: 2
Fore
SplineSet
786 602 m 0,0,1
 707 602 707 602 707 670.5 c 0,2,3
 707 709 707 709 735.5 733.5 c 128,-1,4
 764 758 764 758 793 758 c 1,5,6
 785 840 785 840 674 856 c 1,7,-1
 410 82 l 1,8,9
 455 57 455 57 524.5 57 c 0,10,11
 680.513513514 57 680.513513514 57 811 193 c 1,12,-1
 856 168 l 1,13,14
 781 71 781 71 678 25.5 c 128,-1,15
 575 -20 575 -20 418 -20 c 0,16,17
 387 -20 387 -20 373 -18 c 1,18,-1
 291 -262 l 1,19,-1
 217 -248 l 1,20,-1
 299 -6 l 1,21,22
 49 61.0731707317 49 61.0731707317 49 356 c 0,23,24
 49 517 49 517 114 645 c 128,-1,25
 179 773 179 773 303 847.5 c 128,-1,26
 427 922 427 922 590 922 c 2,27,-1
 618 922 l 1,28,-1
 707 1174 l 1,29,-1
 778 1159 l 1,30,-1
 694 915 l 1,31,32
 895 887 895 887 895 741 c 0,33,34
 895 680 895 680 865 641 c 128,-1,35
 835 602 835 602 786 602 c 0,0,1
598 860 m 1,36,37
 457 858 457 858 354.5 732.5 c 128,-1,38
 252 607 252 607 252 414 c 0,39,40
 252 237.666666667 252 237.666666667 348 131 c 1,41,-1
 598 860 l 1,36,37
EndSplineSet
EndChar

StartChar: sterling
Encoding: 163 163 101
Width: 1093
GlyphClass: 2
Flags: HW
LayerCount: 2
Fore
SplineSet
543 707 m 1,0,1
 538 668 538 668 526.5 546 c 0,2,3
 504.615671642 313.835820896 504.615671642 313.835820896 457 205 c 1,4,5
 543 147 543 147 638 147 c 128,-1,6
 733 147 733 147 801 165.5 c 128,-1,7
 869 184 869 184 898.5 206.5 c 128,-1,8
 928 229 928 229 948 247.5 c 128,-1,9
 968 266 968 266 973 266 c 0,10,11
 1005.30769231 266 1005.30769231 266 973 206 c 0,12,13
 935.836363636 136.981818182 935.836363636 136.981818182 876.418181818 84.9909090909 c 0,14,15
 761 -16 761 -16 627 -16 c 128,-1,16
 493 -16 493 -16 389 92 c 1,17,18
 295 -20 295 -20 176 -20 c 0,19,20
 87 -20 87 -20 43.5 23 c 128,-1,21
 0 66 0 66 0 137 c 128,-1,22
 0 208 0 208 66 270 c 128,-1,23
 132 332 132 332 198.5 332 c 128,-1,24
 265 332 265 332 322 301 c 1,25,26
 333 366 333 366 338 493 c 128,-1,27
 343 620 343 620 356 707 c 1,28,-1
 217 707 l 1,29,-1
 231 797 l 1,30,-1
 371 797 l 1,31,32
 416 1018 416 1018 506 1118.5 c 128,-1,33
 596 1219 596 1219 728 1219 c 128,-1,34
 860 1219 860 1219 937 1178.5 c 128,-1,35
 1014 1138 1014 1138 1014 1065 c 0,36,37
 1014 1017 1014 1017 981.5 987.5 c 128,-1,38
 949 958 949 958 914.5 958 c 128,-1,39
 880 958 880 958 861 976 c 128,-1,40
 842 994 842 994 842 1027.5 c 128,-1,41
 842 1061 842 1061 872 1087 c 1,42,-1
 872 1094 l 2,43,44
 872 1124 872 1124 830.5 1140.5 c 128,-1,45
 789 1157 789 1157 736 1157 c 0,46,47
 617.448979592 1157 617.448979592 1157 555 797 c 1,48,-1
 772 797 l 1,49,-1
 758 707 l 1,50,-1
 543 707 l 1,0,1
297 197 m 1,51,52
 242 262 242 262 193.5 262 c 128,-1,53
 145 262 145 262 108.5 228 c 128,-1,54
 72 194 72 194 72 148 c 128,-1,55
 72 102 72 102 102.5 75.5 c 128,-1,56
 133 49 133 49 180 49 c 0,57,58
 254 49 254 49 297 197 c 1,51,52
EndSplineSet
EndChar

StartChar: currency
Encoding: 164 164 102
Width: 1048
GlyphClass: 2
Flags: HW
LayerCount: 2
Fore
SplineSet
282.5 661 m 128,-1,1
 231 581 231 581 231 481.5 c 128,-1,2
 231 382 231 382 301 313 c 128,-1,3
 371 244 371 244 467.5 244 c 128,-1,4
 564 244 564 244 643.5 288 c 128,-1,5
 723 332 723 332 774 412 c 128,-1,6
 825 492 825 492 825 591.5 c 128,-1,7
 825 691 825 691 755.5 760 c 128,-1,8
 686 829 686 829 589.5 829 c 128,-1,9
 493 829 493 829 413.5 785 c 128,-1,0
 334 741 334 741 282.5 661 c 128,-1,1
920 602 m 0,10,11
 920 435 920 435 791 299 c 1,12,-1
 883 193 l 1,13,-1
 805 127 l 1,14,-1
 717 236 l 1,15,16
 595 152 595 152 460.5 152 c 128,-1,17
 326 152 326 152 236 236 c 1,18,-1
 109 127 l 1,19,-1
 55 193 l 1,20,-1
 184 301 l 1,21,22
 137 380 137 380 137 473 c 0,23,24
 137 640 137 640 266 776 c 1,25,-1
 172 889 l 1,26,-1
 248 954 l 1,27,-1
 342 840 l 1,28,29
 461 922 461 922 591.5 922 c 128,-1,30
 722 922 722 922 815 842 c 1,31,-1
 944 954 l 1,32,-1
 999 889 l 1,33,-1
 870 778 l 1,34,35
 920 704 920 704 920 602 c 0,10,11
EndSplineSet
EndChar

StartChar: yen
Encoding: 165 165 103
Width: 1114
GlyphClass: 2
Flags: HW
LayerCount: 2
Fore
SplineSet
575 84 m 1,0,1
 586.181818182 43 586.181818182 43 698 43 c 1,2,-1
 690 0 l 1,3,-1
 244 0 l 1,4,-1
 252 43 l 1,5,6
 364.636363636 43 364.636363636 43 387 84 c 1,7,-1
 399 156 l 1,8,-1
 221 156 l 1,9,-1
 236 246 l 1,10,-1
 414 246 l 1,11,-1
 432 360 l 1,12,-1
 254 360 l 1,13,-1
 270 451 l 1,14,-1
 426 451 l 1,15,-1
 272 1114 l 2,16,17
 266 1136 266 1136 239.5 1145.5 c 128,-1,18
 213 1155 213 1155 150 1155 c 1,19,-1
 158 1198 l 1,20,-1
 555 1198 l 1,21,-1
 547 1155 l 1,22,23
 492 1155 492 1155 461 1147 c 1,24,-1
 604 547 l 1,25,-1
 936 1133 l 1,26,27
 911 1155 911 1155 823 1155 c 1,28,-1
 831 1198 l 1,29,-1
 1167 1198 l 1,30,-1
 1159 1155 l 1,31,32
 1046 1155 1046 1155 1026 1116 c 1,33,-1
 649 451 l 1,34,-1
 811 451 l 1,35,-1
 795 360 l 1,36,-1
 621 360 l 1,37,-1
 602 246 l 1,38,-1
 776 246 l 1,39,-1
 762 156 l 1,40,-1
 588 156 l 1,41,-1
 575 84 l 1,0,1
EndSplineSet
EndChar

StartChar: brokenbar
Encoding: 166 166 104
Width: 401
GlyphClass: 2
Flags: HW
LayerCount: 2
Fore
SplineSet
299 1331 m 1,0,-1
 373 1331 l 1,1,-1
 274 741 l 1,2,-1
 201 741 l 1,3,-1
 299 1331 l 1,0,-1
164 528 m 1,4,-1
 238 528 l 1,5,-1
 139 -61 l 1,6,-1
 66 -61 l 1,7,-1
 164 528 l 1,4,-1
EndSplineSet
EndChar

StartChar: section
Encoding: 167 167 105
Width: 841
GlyphClass: 2
Flags: HW
LayerCount: 2
Fore
SplineSet
166 -166 m 1,0,-1
 162 -211 l 1,1,2
 162 -264 162 -264 186.5 -304 c 128,-1,3
 211 -344 211 -344 256 -344 c 128,-1,4
 301 -344 301 -344 335.5 -335 c 128,-1,5
 370 -326 370 -326 399 -294.5 c 128,-1,6
 428 -263 428 -263 428 -219.5 c 128,-1,7
 428 -176 428 -176 391 -119.5 c 128,-1,8
 354 -63 354 -63 301 0.5 c 128,-1,9
 248 64 248 64 195 131 c 0,10,11
 68 291.547169811 68 291.547169811 68 401 c 0,12,13
 68 598.906976744 68 598.906976744 234 707 c 0,14,15
 277 735 277 735 324 750 c 1,16,17
 217 876 217 876 217 974.5 c 128,-1,18
 217 1073 217 1073 323.5 1147 c 128,-1,19
 430 1221 430 1221 578 1221 c 0,20,21
 666 1221 666 1221 729.5 1154.5 c 128,-1,22
 793 1088 793 1088 793 1041 c 128,-1,23
 793 994 793 994 768.5 966 c 128,-1,24
 744 938 744 938 713.5 938 c 128,-1,25
 683 938 683 938 664 957 c 128,-1,26
 645 976 645 976 645 1001 c 1,27,-1
 649 1047 l 1,28,29
 649 1100 649 1100 624.5 1140 c 128,-1,30
 600 1180 600 1180 555 1180 c 128,-1,31
 510 1180 510 1180 475.5 1171 c 128,-1,32
 441 1162 441 1162 412 1130.5 c 128,-1,33
 383 1099 383 1099 383 1055.5 c 128,-1,34
 383 1012 383 1012 420 955.5 c 128,-1,35
 457 899 457 899 510 835.5 c 128,-1,36
 563 772 563 772 616 704.5 c 0,37,38
 743 542.754716981 743 542.754716981 743 434 c 0,39,40
 743 237.093023256 743 237.093023256 577 129 c 0,41,42
 534 101 534 101 487 86 c 1,43,44
 594 -40 594 -40 594 -139 c 128,-1,45
 594 -238 594 -238 489 -311.5 c 128,-1,46
 384 -385 384 -385 236 -385 c 0,47,48
 147 -385 147 -385 83.5 -319 c 128,-1,49
 20 -253 20 -253 20 -206 c 128,-1,50
 20 -159 20 -159 45 -130.5 c 128,-1,51
 70 -102 70 -102 100 -102 c 128,-1,52
 130 -102 130 -102 148 -121.5 c 128,-1,53
 166 -141 166 -141 166 -166 c 1,0,-1
373 694 m 1,54,55
 209 644 209 644 209 512 c 0,56,57
 209 450.5 209 450.5 231 409.25 c 128,-1,58
 253 368 253 368 265.5 346.5 c 128,-1,59
 278 325 278 325 305.5 292 c 128,-1,60
 333 259 333 259 347 243 c 128,-1,61
 361 227 361 227 395 190 c 128,-1,62
 429 153 429 153 440 141 c 1,63,64
 602 190 602 190 602 324 c 0,65,66
 602 385.5 602 385.5 580 426.75 c 128,-1,67
 558 468 558 468 546.5 489 c 128,-1,68
 535 510 535 510 506.5 544 c 128,-1,69
 478 578 478 578 466 592.5 c 128,-1,70
 454 607 454 607 418 645.5 c 128,-1,71
 382 684 382 684 373 694 c 1,54,55
EndSplineSet
EndChar

StartChar: dieresis
Encoding: 168 168 106
Width: 823
GlyphClass: 2
Flags: HW
LayerCount: 2
Fore
SplineSet
710.5 1048.5 m 128,-1,1
 686 1073 686 1073 686 1114.5 c 128,-1,2
 686 1156 686 1156 722.5 1190.5 c 128,-1,3
 759 1225 759 1225 800.5 1225 c 128,-1,4
 842 1225 842 1225 866.5 1200.5 c 128,-1,5
 891 1176 891 1176 891 1134.5 c 128,-1,6
 891 1093 891 1093 854.5 1058.5 c 128,-1,7
 818 1024 818 1024 776.5 1024 c 128,-1,0
 735 1024 735 1024 710.5 1048.5 c 128,-1,1
333.5 1048.5 m 128,-1,9
 309 1073 309 1073 309 1114.5 c 128,-1,10
 309 1156 309 1156 345.5 1190.5 c 128,-1,11
 382 1225 382 1225 423.5 1225 c 128,-1,12
 465 1225 465 1225 489.5 1200.5 c 128,-1,13
 514 1176 514 1176 514 1134.5 c 128,-1,14
 514 1093 514 1093 477.5 1058.5 c 128,-1,15
 441 1024 441 1024 399.5 1024 c 128,-1,8
 358 1024 358 1024 333.5 1048.5 c 128,-1,9
EndSplineSet
EndChar

StartChar: copyright
Encoding: 169 169 107
Width: 1323
GlyphClass: 2
Flags: HW
LayerCount: 2
Fore
SplineSet
150 465 m 0,0,1
 150 282 150 282 272 160.5 c 128,-1,2
 394 39 394 39 582 39 c 0,3,4
 720 39 720 39 849 107.5 c 128,-1,5
 978 176 978 176 1066.5 293.5 c 128,-1,6
 1155 411 1155 411 1178 549 c 1,7,8
 1184 593 1184 593 1184 633 c 0,9,10
 1184 816 1184 816 1063 937.5 c 128,-1,11
 942 1059 942 1059 754 1059 c 0,12,13
 571.412844037 1059 571.412844037 1059 413.5 946.5 c 0,14,15
 247.490642799 828.23189585 247.490642799 828.23189585 184 655.5 c 0,16,17
 150 563 150 563 150 465 c 0,0,1
1105.5 979 m 128,-1,19
 1241 844 1241 844 1241 643 c 0,20,21
 1241 439.775510204 1241 439.775510204 1110 266 c 0,22,23
 1012 136 1012 136 869 60 c 128,-1,24
 726 -16 726 -16 573 -16 c 0,25,26
 365 -16 365 -16 229.5 119 c 128,-1,27
 94 254 94 254 94 455 c 0,28,29
 94 779.630952381 94 779.630952381 384 988.5 c 0,30,31
 558.247933884 1114 558.247933884 1114 764.123966942 1114 c 128,-1,18
 970 1114 970 1114 1105.5 979 c 128,-1,19
737 823 m 0,32,33
 637 823 637 823 566.5 727.5 c 128,-1,34
 496 632 496 632 496 515 c 128,-1,35
 496 398 496 398 541.5 345.5 c 128,-1,36
 587 293 587 293 647 293 c 128,-1,37
 707 293 707 293 759 329.5 c 128,-1,38
 811 366 811 366 834 408 c 1,39,-1
 874 387 l 1,40,41
 791 238 791 238 623 238 c 0,42,43
 498 238 498 238 432.5 311 c 128,-1,44
 367 384 367 384 367 481.5 c 128,-1,45
 367 579 367 579 402.5 654 c 128,-1,46
 438 729 438 729 494 777 c 0,47,48
 613 879 613 879 748 879 c 0,49,50
 796.75 879 796.75 879 823.875 863.5 c 128,-1,51
 851 848 851 848 854 848 c 128,-1,52
 857 848 857 848 860 868 c 1,53,-1
 905 868 l 1,54,-1
 891 717 l 1,55,-1
 850 717 l 1,56,57
 848 768 848 768 823.5 795.5 c 128,-1,58
 799 823 799 823 737 823 c 0,32,33
EndSplineSet
EndChar

StartChar: ordfeminine
Encoding: 170 170 108
Width: 745
GlyphClass: 2
Flags: HW
LayerCount: 2
Fore
SplineSet
102 317 m 1,0,-1
 594 317 l 1,1,-1
 586 264 l 1,2,-1
 94 264 l 1,3,-1
 102 317 l 1,0,-1
256 748 m 0,4,5
 213 748 213 748 213 805.5 c 128,-1,6
 213 863 213 863 270.5 897.5 c 128,-1,7
 328 932 328 932 413.5 932 c 128,-1,8
 499 932 499 932 539.5 893 c 128,-1,9
 580 854 580 854 580 791 c 0,10,11
 580 785 580 785 575 750 c 2,12,-1
 543 547 l 2,13,14
 534 494 534 494 559 494 c 0,15,16
 581.375 494 581.375 494 584.1875 501.5 c 128,-1,17
 587 509 587 509 588 518 c 1,18,-1
 627 518 l 1,19,20
 620 476 620 476 593.5 459 c 128,-1,21
 567 442 567 442 512.5 442 c 128,-1,22
 458 442 458 442 440 479 c 1,23,24
 370 440 370 440 287 440 c 0,25,26
 143 440 143 440 143 545 c 0,27,28
 143 610 143 610 200 648 c 0,29,30
 250.202531646 681.46835443 250.202531646 681.46835443 303.601265823 693.234177215 c 128,-1,31
 357 705 357 705 398.5 713.5 c 128,-1,32
 440 722 440 722 459 727 c 1,33,34
 465 768 465 768 465 802.5 c 0,35,36
 465 874 465 874 393 874 c 128,-1,37
 321 874 321 874 297 844 c 1,38,39
 329 834 329 834 323.5 800.5 c 0,40,41
 314.880597015 748 314.880597015 748 256 748 c 0,4,5
453 682 m 1,42,43
 327.909090909 650.727272727 327.909090909 650.727272727 309.954545455 636.363636364 c 128,-1,44
 292 622 292 622 279.5 609.5 c 0,45,46
 258 588 258 588 258 552 c 128,-1,47
 258 516 258 516 271 506 c 128,-1,48
 284 496 284 496 328 496 c 128,-1,49
 372 496 372 496 430 524 c 1,50,51
 430 547 430 547 434 575 c 2,52,-1
 453 682 l 1,42,43
EndSplineSet
EndChar

StartChar: guillemotleft
Encoding: 171 171 109
Width: 899
GlyphClass: 2
Flags: HW
LayerCount: 2
Fore
SplineSet
459 664 m 2,0,-1
 823 856 l 1,1,-1
 815 803 l 1,2,-1
 604 612 l 1,3,-1
 750 422 l 1,4,-1
 741 369 l 1,5,-1
 442 561 l 2,6,7
 417 577 417 577 424.5 613.5 c 128,-1,8
 432 650 432 650 459 664 c 2,0,-1
115 561 m 2,9,10
 94.5151515152 573.606060606 94.5151515152 573.606060606 94.5151515152 609.343995511 c 128,-1,11
 94.5151515152 645.081930415 94.5151515152 645.081930415 131 664 c 2,12,-1
 496 856 l 1,13,-1
 487 803 l 1,14,-1
 276 612 l 1,15,-1
 422 422 l 1,16,-1
 414 369 l 1,17,-1
 115 561 l 2,9,10
EndSplineSet
EndChar

StartChar: logicalnot
Encoding: 172 172 110
Width: 878
GlyphClass: 2
Flags: HW
LayerCount: 2
Fore
SplineSet
662 606 m 1,0,-1
 150 606 l 1,1,-1
 164 696 l 1,2,-1
 762 696 l 1,3,-1
 717 426 l 1,4,-1
 631 426 l 1,5,-1
 662 606 l 1,0,-1
EndSplineSet
EndChar

StartChar: uni00AD
Encoding: 173 173 111
Width: 817
GlyphClass: 2
Flags: HW
LayerCount: 2
Fore
SplineSet
170 696 m 1,0,-1
 711 696 l 1,1,-1
 682 606 l 1,2,-1
 141 606 l 1,3,-1
 170 696 l 1,0,-1
EndSplineSet
EndChar

StartChar: registered
Encoding: 174 174 112
Width: 1325
GlyphClass: 2
Flags: HW
LayerCount: 2
Fore
SplineSet
150 465 m 0,0,1
 150 282 150 282 272 160.5 c 128,-1,2
 394 39 394 39 582 39 c 0,3,4
 692 39 692 39 801 85 c 128,-1,5
 910 131 910 131 994.5 209 c 128,-1,6
 1079 287 1079 287 1131.5 399 c 128,-1,7
 1184 511 1184 511 1184 633 c 0,8,9
 1184 816 1184 816 1063 937.5 c 128,-1,10
 942 1059 942 1059 754 1059 c 0,11,12
 644 1059 644 1059 534.5 1013 c 128,-1,13
 425 967 425 967 340.5 889 c 128,-1,14
 256 811 256 811 203 699 c 128,-1,15
 150 587 150 587 150 465 c 0,0,1
762 1114 m 0,16,17
 970 1114 970 1114 1105.5 979 c 128,-1,18
 1241 844 1241 844 1241 643 c 0,19,20
 1241 507 1241 507 1182.5 383 c 128,-1,21
 1124 259 1124 259 1030 172.5 c 128,-1,22
 936 86 936 86 815.5 35 c 128,-1,23
 695 -16 695 -16 573 -16 c 0,24,25
 365 -16 365 -16 229.5 119 c 128,-1,26
 94 254 94 254 94 455 c 0,27,28
 94 591 94 591 152.5 715 c 128,-1,29
 211 839 211 839 305 925.5 c 128,-1,30
 399 1012 399 1012 519.5 1063 c 128,-1,31
 640 1114 640 1114 762 1114 c 0,16,17
346 250 m 1,32,-1
 354 291 l 1,33,34
 406 291 406 291 420 305 c 1,35,-1
 506 815 l 1,36,37
 503 827 503 827 444 827 c 1,38,-1
 451 868 l 1,39,-1
 692 868 l 2,40,41
 814 868 814 868 874 827 c 128,-1,42
 934 786 934 786 934 724 c 128,-1,43
 934 662 934 662 889 613 c 128,-1,44
 844 564 844 564 774 541 c 1,45,-1
 866 307 l 1,46,47
 869 291 869 291 932 291 c 1,48,-1
 924 250 l 1,49,-1
 870 250 l 2,50,51
 797 250 797 250 773.5 260.5 c 128,-1,52
 750 271 750 271 735 309 c 2,53,-1
 651 522 l 1,54,-1
 571 522 l 1,55,-1
 535 305 l 1,56,57
 538 291 538 291 596 291 c 1,58,-1
 588 250 l 1,59,-1
 346 250 l 1,32,-1
775.5 615 m 128,-1,61
 811 652 811 652 811 733.5 c 128,-1,62
 811 815 811 815 684 815 c 2,63,-1
 621 815 l 1,64,-1
 580 578 l 1,65,-1
 655 578 l 2,66,60
 740 578 740 578 775.5 615 c 128,-1,61
EndSplineSet
EndChar

StartChar: macron
Encoding: 175 175 113
Width: 786
GlyphClass: 2
Flags: HW
LayerCount: 2
Fore
SplineSet
313 1143 m 1,0,-1
 854 1143 l 1,1,-1
 840 1053 l 1,2,-1
 299 1053 l 1,3,-1
 313 1143 l 1,0,-1
EndSplineSet
EndChar

StartChar: degree
Encoding: 176 176 114
Width: 641
GlyphClass: 2
Flags: HW
LayerCount: 2
Fore
SplineSet
518 1170 m 128,-1,1
 483 1206 483 1206 422 1206 c 128,-1,2
 361 1206 361 1206 305.5 1154.5 c 128,-1,3
 250 1103 250 1103 250 1041 c 128,-1,4
 250 979 250 979 286 944 c 128,-1,5
 322 909 322 909 383 909 c 128,-1,6
 444 909 444 909 498.5 959.5 c 128,-1,7
 553 1010 553 1010 553 1072 c 128,-1,0
 553 1134 553 1134 518 1170 c 128,-1,1
221.5 881 m 128,-1,9
 166 937 166 937 166 1034 c 128,-1,10
 166 1131 166 1131 251.5 1210.5 c 128,-1,11
 337 1290 337 1290 431.5 1290 c 128,-1,12
 526 1290 526 1290 582.5 1234 c 128,-1,13
 639 1178 639 1178 639 1081 c 128,-1,14
 639 984 639 984 552.5 904.5 c 128,-1,15
 466 825 466 825 371.5 825 c 128,-1,8
 277 825 277 825 221.5 881 c 128,-1,9
EndSplineSet
EndChar

StartChar: plusminus
Encoding: 177 177 115
Width: 864
GlyphClass: 2
Flags: HW
LayerCount: 2
Fore
SplineSet
115 365 m 1,0,-1
 700 365 l 1,1,-1
 684 274 l 1,2,-1
 98 274 l 1,3,-1
 115 365 l 1,0,-1
510 713 m 1,4,-1
 475 506 l 1,5,-1
 385 506 l 1,6,-1
 420 713 l 1,7,-1
 172 713 l 1,8,-1
 188 803 l 1,9,-1
 436 803 l 1,10,-1
 471 1010 l 1,11,-1
 561 1010 l 1,12,-1
 526 803 l 1,13,-1
 774 803 l 1,14,-1
 758 713 l 1,15,-1
 510 713 l 1,4,-1
EndSplineSet
EndChar

StartChar: uni00B2
Encoding: 178 178 116
Width: 741
GlyphClass: 2
Flags: HW
LayerCount: 2
Fore
SplineSet
567 688 m 1,0,1
 621.302439024 706.887804878 621.302439024 706.887804878 659 776 c 1,2,-1
 705 776 l 1,3,-1
 614 573 l 1,4,-1
 84 573 l 1,5,6
 89.3265602322 602.296081277 89.3265602322 602.296081277 126.663280116 636.148040639 c 128,-1,7
 164 670 164 670 218 709.5 c 128,-1,8
 272 749 272 749 334 802 c 128,-1,9
 396 855 396 855 449 908.5 c 0,10,11
 573 1033.66981132 573 1033.66981132 573 1149 c 0,12,13
 573 1249 573 1249 463 1249 c 0,14,15
 349.973684211 1249 349.973684211 1249 295.5 1203 c 0,16,17
 273 1184 273 1184 257.5 1164.5 c 128,-1,18
 242 1145 242 1145 230.5 1131.5 c 128,-1,19
 219 1118 219 1118 208.5 1118 c 0,20,21
 187.25 1118 187.25 1118 191.125 1136.5 c 128,-1,22
 195 1155 195 1155 207.5 1179 c 128,-1,23
 220 1203 220 1203 246 1233 c 128,-1,24
 272 1263 272 1263 305.5 1289.5 c 0,25,26
 384.509433962 1352 384.509433962 1352 500.754716981 1352 c 128,-1,27
 617 1352 617 1352 674 1307.5 c 128,-1,28
 731 1263 731 1263 731 1195.5 c 128,-1,29
 731 1128 731 1128 692.5 1064 c 128,-1,30
 654 1000 654 1000 595 943.5 c 128,-1,31
 536 887 536 887 477 838.5 c 128,-1,32
 418 790 418 790 363.5 747.5 c 128,-1,33
 309 705 309 705 293 688 c 1,34,-1
 567 688 l 1,0,1
EndSplineSet
EndChar

StartChar: uni00B3
Encoding: 179 179 117
Width: 729
GlyphClass: 2
Flags: HW
LayerCount: 2
Fore
SplineSet
451 950 m 1,0,-1
 381 942 l 1,1,2
 367 942 367 942 356.5 951 c 128,-1,3
 346 960 346 960 347.5 967.5 c 128,-1,4
 349 975 349 975 354 979.5 c 0,5,6
 362.333333333 987 362.333333333 987 412.166666667 1000.5 c 0,7,8
 567 1042.44481605 567 1042.44481605 567 1155 c 0,9,10
 567 1198 567 1198 534.5 1223.5 c 128,-1,11
 502 1249 502 1249 443.5 1249 c 128,-1,12
 385 1249 385 1249 345 1232 c 128,-1,13
 305 1215 305 1215 290.5 1195 c 0,14,15
 251.35 1141 251.35 1141 238.175 1141 c 128,-1,16
 225 1141 225 1141 221 1150 c 128,-1,17
 217 1159 217 1159 219.5 1171 c 128,-1,18
 222 1183 222 1183 240 1212 c 128,-1,19
 258 1241 258 1241 288.5 1273.5 c 128,-1,20
 319 1306 319 1306 369.5 1329 c 128,-1,21
 420 1352 420 1352 477 1352 c 0,22,23
 709 1352 709 1352 709 1196 c 0,24,25
 709 1074 709 1074 580 1006 c 1,26,27
 688 959.411764706 688 959.411764706 688 842.205882353 c 128,-1,28
 688 725 688 725 602.5 645 c 128,-1,29
 517 565 517 565 350 565 c 0,30,31
 190.275 565 190.275 565 118.5 652 c 0,32,33
 102 672 102 672 102 701 c 128,-1,34
 102 730 102 730 122.5 751 c 128,-1,35
 143 772 143 772 168 772 c 128,-1,36
 193 772 193 772 202.5 757 c 128,-1,37
 212 742 212 742 218 721 c 128,-1,38
 224 700 224 700 234.5 678.5 c 0,39,40
 259.651162791 627 259.651162791 627 352 627 c 0,41,42
 505.059701493 627 505.059701493 627 541.5 755.5 c 0,43,44
 551 789 551 789 551 833.5 c 128,-1,45
 551 878 551 878 527.5 914 c 128,-1,46
 504 950 504 950 451 950 c 1,0,-1
EndSplineSet
EndChar

StartChar: acute
Encoding: 180 180 118
Width: 614
GlyphClass: 2
Flags: HW
LayerCount: 2
Fore
SplineSet
502 1356 m 1,0,-1
 719 1356 l 1,1,-1
 348 1024 l 1,2,-1
 295 1024 l 1,3,-1
 502 1356 l 1,0,-1
EndSplineSet
EndChar

StartChar: uni00B5
Encoding: 181 181 119
Width: 1191
GlyphClass: 2
Flags: HW
LayerCount: 2
Fore
SplineSet
901 125 m 0,0,1
 901 41 901 41 956 41 c 0,2,3
 983 41 983 41 1008 56 c 128,-1,4
 1033 71 1033 71 1036 92 c 1,5,-1
 1073 92 l 1,6,7
 1064 34 1064 34 1016 7 c 128,-1,8
 968 -20 968 -20 864 -20 c 0,9,10
 731 -20 731 -20 723 125 c 1,11,12
 578 -20 578 -20 410 -20 c 128,-1,13
 242 -20 242 -20 170 49 c 1,14,-1
 150 -68 l 1,15,16
 147 -92 147 -92 147 -122 c 128,-1,17
 147 -152 147 -152 162.5 -179 c 128,-1,18
 178 -206 178 -206 196.5 -217.5 c 0,19,20
 246 -248.27027027 246 -248.27027027 246 -299.635135135 c 128,-1,21
 246 -351 246 -351 209.5 -380.5 c 128,-1,22
 173 -410 173 -410 131 -410 c 128,-1,23
 89 -410 89 -410 58 -385.5 c 128,-1,24
 27 -361 27 -361 27 -307 c 0,25,26
 27 -298 27 -298 31 -274 c 2,27,-1
 227 901 l 1,28,-1
 412 901 l 1,29,-1
 303 256 l 2,30,31
 297 226 297 226 297 197 c 0,32,33
 297 127 297 127 332.5 88 c 128,-1,34
 368 49 368 49 457 49 c 0,35,36
 588 49 588 49 725 197 c 1,37,-1
 844 901 l 1,38,-1
 1028 901 l 1,39,-1
 905 170 l 1,40,41
 901 138 901 138 901 125 c 0,0,1
EndSplineSet
EndChar

StartChar: paragraph
Encoding: 182 182 120
Width: 1091
GlyphClass: 2
Flags: HW
LayerCount: 2
Fore
SplineSet
795 84 m 1,0,1
 806.181818182 43 806.181818182 43 918 43 c 1,2,-1
 909 0 l 1,3,-1
 592 0 l 1,4,-1
 780 1128 l 1,5,-1
 676 1128 l 1,6,-1
 487 0 l 1,7,-1
 170 0 l 1,8,-1
 178 43 l 1,9,10
 290.636363636 43 290.636363636 43 313 84 c 1,11,-1
 391 549 l 1,12,13
 257 562 257 562 185 632 c 128,-1,14
 113 702 113 702 113 813 c 0,15,16
 113 965.5 113 965.5 231 1076.5 c 0,17,18
 360.162162162 1198 360.162162162 1198 618 1198 c 2,19,-1
 1110 1198 l 1,20,-1
 1102 1155 l 1,21,22
 989.363636364 1155 989.363636364 1155 967 1114 c 1,23,-1
 795 84 l 1,0,1
EndSplineSet
EndChar

StartChar: periodcentered
Encoding: 183 183 121
Width: 468
GlyphClass: 2
Flags: HW
LayerCount: 2
Fore
SplineSet
153 523 m 128,-1,1
 123 554 123 554 123 604.5 c 128,-1,2
 123 655 123 655 166 700 c 128,-1,3
 209 745 209 745 258.5 745 c 128,-1,4
 308 745 308 745 340.5 714.5 c 128,-1,5
 373 684 373 684 373 634.5 c 128,-1,6
 373 585 373 585 328 538.5 c 128,-1,7
 283 492 283 492 233 492 c 128,-1,0
 183 492 183 492 153 523 c 128,-1,1
EndSplineSet
EndChar

StartChar: cedilla
Encoding: 184 184 122
Width: 622
GlyphClass: 2
Flags: HW
LayerCount: 2
Fore
SplineSet
113 -362 m 0,0,1
 200 -362 200 -362 239.5 -329.5 c 128,-1,2
 279 -297 279 -297 279 -248 c 0,3,4
 279 -176 279 -176 168 -176 c 1,5,-1
 258 25 l 1,6,-1
 336 25 l 1,7,-1
 276 -113 l 1,8,9
 329.846153846 -113 329.846153846 -113 374.423076923 -132 c 0,10,11
 459 -168.049180328 459 -168.049180328 459 -236.524590164 c 128,-1,12
 459 -305 459 -305 398 -356.5 c 128,-1,13
 337 -408 337 -408 207 -408 c 0,14,15
 143 -408 143 -408 57 -393 c 1,16,-1
 63 -358 l 1,17,18
 99 -362 99 -362 113 -362 c 0,0,1
EndSplineSet
EndChar

StartChar: uni00B9
Encoding: 185 185 123
Width: 499
GlyphClass: 2
Flags: HW
LayerCount: 2
Fore
SplineSet
272 1085 m 1,0,1
 250 1073 250 1073 199 1022 c 1,2,-1
 166 1040 l 1,3,4
 179 1057 179 1057 214 1105 c 128,-1,5
 249 1153 249 1153 275 1187 c 128,-1,6
 301 1221 301 1221 332.5 1260 c 0,7,8
 397.923076923 1341 397.923076923 1341 424 1341 c 2,9,-1
 461 1341 l 1,10,-1
 342 641 l 1,11,12
 350 621 350 621 428 621 c 1,13,-1
 420 573 l 1,14,-1
 100 573 l 1,15,-1
 109 621 l 1,16,17
 181 621 181 621 197 641 c 1,18,-1
 272 1085 l 1,0,1
EndSplineSet
EndChar

StartChar: ordmasculine
Encoding: 186 186 124
Width: 759
GlyphClass: 2
Flags: HW
LayerCount: 2
Fore
SplineSet
98 317 m 1,0,-1
 596 317 l 1,1,-1
 588 264 l 1,2,-1
 90 264 l 1,3,-1
 98 317 l 1,0,-1
422 879 m 0,4,5
 358 879 358 879 317 805 c 128,-1,6
 276 731 276 731 276 639 c 0,7,8
 276 492 276 492 393 492 c 0,9,10
 460 492 460 492 500.5 565.5 c 128,-1,11
 541 639 541 639 541 739 c 0,12,13
 541 879 541 879 422 879 c 0,4,5
585.5 525 m 128,-1,15
 509 440 509 440 388.5 440 c 128,-1,16
 268 440 268 440 212 495 c 128,-1,17
 156 550 156 550 156 659 c 128,-1,18
 156 768 156 768 233 850 c 128,-1,19
 310 932 310 932 433 932 c 0,20,21
 662 932 662 932 662 741 c 0,22,14
 662 610 662 610 585.5 525 c 128,-1,15
EndSplineSet
EndChar

StartChar: guillemotright
Encoding: 187 187 125
Width: 899
GlyphClass: 2
Flags: HW
LayerCount: 2
Fore
SplineSet
813 664 m 2,0,1
 832.53125 651.5 832.53125 651.5 832.53125 615.1328125 c 128,-1,2
 832.53125 578.765625 832.53125 578.765625 797 561 c 2,3,-1
 432 369 l 1,4,-1
 440 422 l 1,5,-1
 651 612 l 1,6,-1
 506 803 l 1,7,-1
 514 856 l 1,8,-1
 813 664 l 2,0,1
485 664 m 2,9,10
 505.484848485 651.393939394 505.484848485 651.393939394 505.484848485 615.318181818 c 128,-1,11
 505.484848485 579.242424242 505.484848485 579.242424242 469 561 c 2,12,-1
 104 369 l 1,13,-1
 113 422 l 1,14,-1
 324 612 l 1,15,-1
 178 803 l 1,16,-1
 186 856 l 1,17,-1
 485 664 l 2,9,10
EndSplineSet
EndChar

StartChar: onequarter
Encoding: 188 188 126
Width: 1425
GlyphClass: 2
Flags: HW
LayerCount: 2
Fore
SplineSet
158 1040 m 1,0,1
 171 1057 171 1057 206 1105 c 128,-1,2
 241 1153 241 1153 267 1187 c 128,-1,3
 293 1221 293 1221 324.5 1260 c 0,4,5
 389.923076923 1341 389.923076923 1341 416 1341 c 2,6,-1
 453 1341 l 1,7,-1
 334 641 l 1,8,9
 342 621 342 621 420 621 c 1,10,-1
 412 573 l 1,11,-1
 92 573 l 1,12,-1
 100 621 l 1,13,14
 172 621 172 621 188 641 c 1,15,-1
 264 1085 l 1,16,17
 241.5 1072.5 241.5 1072.5 218.75 1049.75 c 128,-1,18
 196 1027 196 1027 190 1022 c 1,19,-1
 158 1040 l 1,0,1
1298 768 m 1,20,-1
 1214 274 l 1,21,-1
 1327 274 l 1,22,-1
 1317 215 l 1,23,-1
 1204 215 l 1,24,-1
 1180 68 l 1,25,26
 1189 47 1189 47 1264 47 c 1,27,-1
 1255 0 l 1,28,-1
 940 0 l 1,29,-1
 948 47 l 1,30,31
 1022 47 1022 47 1036 68 c 1,32,-1
 1061 215 l 1,33,-1
 731 215 l 1,34,-1
 1212 768 l 1,35,-1
 1298 768 l 1,20,-1
1071 274 m 1,36,-1
 1122 582 l 1,37,-1
 856 274 l 1,38,-1
 1071 274 l 1,36,-1
143 -20 m 1,39,-1
 1153 1253 l 1,40,-1
 1206 1217 l 1,41,-1
 197 -57 l 1,42,-1
 143 -20 l 1,39,-1
EndSplineSet
EndChar

StartChar: onehalf
Encoding: 189 189 127
Width: 1478
GlyphClass: 2
Flags: HW
LayerCount: 2
Fore
SplineSet
158 1040 m 1,0,1
 171 1057 171 1057 206 1105 c 128,-1,2
 241 1153 241 1153 267 1187 c 128,-1,3
 293 1221 293 1221 324.5 1260 c 0,4,5
 389.923076923 1341 389.923076923 1341 416 1341 c 2,6,-1
 453 1341 l 1,7,-1
 334 641 l 1,8,9
 342 621 342 621 420 621 c 1,10,-1
 412 573 l 1,11,-1
 92 573 l 1,12,-1
 100 621 l 1,13,14
 172 621 172 621 188 641 c 1,15,-1
 264 1085 l 1,16,17
 241.5 1072.5 241.5 1072.5 218.75 1049.75 c 128,-1,18
 196 1027 196 1027 190 1022 c 1,19,-1
 158 1040 l 1,0,1
1231 115 m 1,20,21
 1285.30243902 133.887804878 1285.30243902 133.887804878 1323 203 c 1,22,-1
 1368 203 l 1,23,-1
 1278 0 l 1,24,-1
 748 0 l 1,25,26
 753.732899023 28.664495114 753.732899023 28.664495114 790.866449511 62.332247557 c 128,-1,27
 828 96 828 96 882 135.5 c 128,-1,28
 936 175 936 175 998 228 c 128,-1,29
 1060 281 1060 281 1113 334.5 c 0,30,31
 1237 459.669811321 1237 459.669811321 1237 575 c 0,32,33
 1237 676 1237 676 1126 676 c 0,34,35
 1012.15384615 676 1012.15384615 676 958.5 629.5 c 0,36,37
 936 610 936 610 920.5 591 c 128,-1,38
 905 572 905 572 893.5 558.5 c 128,-1,39
 882 545 882 545 871.5 545 c 0,40,41
 850.5 545 850.5 545 854.25 563 c 128,-1,42
 858 581 858 581 870.5 605 c 128,-1,43
 883 629 883 629 909 659 c 128,-1,44
 935 689 935 689 968.5 715.5 c 0,45,46
 1047.50943396 778 1047.50943396 778 1163.75471698 778 c 128,-1,47
 1280 778 1280 778 1337.5 733.5 c 128,-1,48
 1395 689 1395 689 1395 621.5 c 128,-1,49
 1395 554 1395 554 1356.5 490.5 c 128,-1,50
 1318 427 1318 427 1258.5 370 c 128,-1,51
 1199 313 1199 313 1140 265 c 128,-1,52
 1081 217 1081 217 1026.5 174.5 c 128,-1,53
 972 132 972 132 956 115 c 1,54,-1
 1231 115 l 1,20,21
94 -20 m 1,55,-1
 1104 1253 l 1,56,-1
 1157 1217 l 1,57,-1
 147 -57 l 1,58,-1
 94 -20 l 1,55,-1
EndSplineSet
EndChar

StartChar: threequarters
Encoding: 190 190 128
Width: 1499
GlyphClass: 2
Flags: HW
LayerCount: 2
Fore
SplineSet
436 950 m 1,0,-1
 367 942 l 1,1,2
 353 942 353 942 342.5 951 c 128,-1,3
 332 960 332 960 333.5 967.5 c 128,-1,4
 335 975 335 975 339.5 979.5 c 0,5,6
 347 987 347 987 397.5 1000.5 c 128,-1,7
 448 1014 448 1014 478 1031 c 0,8,9
 553 1073 553 1073 553 1155 c 0,10,11
 553 1198 553 1198 520.5 1223.5 c 128,-1,12
 488 1249 488 1249 429.5 1249 c 128,-1,13
 371 1249 371 1249 331 1232 c 128,-1,14
 291 1215 291 1215 276 1195 c 128,-1,15
 261 1175 261 1175 247 1158 c 128,-1,16
 233 1141 233 1141 221.5 1141 c 128,-1,17
 210 1141 210 1141 206.5 1150 c 128,-1,18
 203 1159 203 1159 205.5 1171 c 128,-1,19
 208 1183 208 1183 226 1212 c 128,-1,20
 244 1241 244 1241 274.5 1273.5 c 128,-1,21
 305 1306 305 1306 355.5 1329 c 128,-1,22
 406 1352 406 1352 463 1352 c 0,23,24
 694 1352 694 1352 694 1196 c 0,25,26
 694 1074 694 1074 565 1006 c 1,27,28
 616 984 616 984 645 943.5 c 128,-1,29
 674 903 674 903 674 852 c 0,30,31
 674 725 674 725 588.5 645 c 128,-1,32
 503 565 503 565 336 565 c 0,33,34
 176.275 565 176.275 565 104.5 652 c 0,35,36
 88 672 88 672 88 701 c 128,-1,37
 88 730 88 730 108.5 751 c 128,-1,38
 129 772 129 772 154 772 c 128,-1,39
 179 772 179 772 188.5 757 c 128,-1,40
 198 742 198 742 204 721 c 128,-1,41
 210 700 210 700 220.5 678.5 c 0,42,43
 245.651162791 627 245.651162791 627 338 627 c 0,44,45
 491.059701493 627 491.059701493 627 527.5 755.5 c 0,46,47
 537 789 537 789 537 833 c 128,-1,48
 537 877 537 877 513 913.5 c 128,-1,49
 489 950 489 950 436 950 c 1,0,-1
1372 768 m 1,50,-1
 1288 274 l 1,51,-1
 1401 274 l 1,52,-1
 1391 215 l 1,53,-1
 1278 215 l 1,54,-1
 1253 68 l 1,55,56
 1262 47 1262 47 1337 47 c 1,57,-1
 1329 0 l 1,58,-1
 1014 0 l 1,59,-1
 1022 47 l 1,60,61
 1096 47 1096 47 1110 68 c 1,62,-1
 1135 215 l 1,63,-1
 805 215 l 1,64,-1
 1286 768 l 1,65,-1
 1372 768 l 1,50,-1
1145 274 m 1,66,-1
 1196 582 l 1,67,-1
 930 274 l 1,68,-1
 1145 274 l 1,66,-1
238 -20 m 1,69,-1
 1247 1253 l 1,70,-1
 1300 1217 l 1,71,-1
 291 -57 l 1,72,-1
 238 -20 l 1,69,-1
EndSplineSet
EndChar

StartChar: questiondown
Encoding: 191 191 129
Width: 808
GlyphClass: 2
Flags: HW
LayerCount: 2
Fore
SplineSet
607 1054 m 128,-1,1
 637 1023 637 1023 637 972.5 c 128,-1,2
 637 922 637 922 594 876.5 c 128,-1,3
 551 831 551 831 501.5 831 c 128,-1,4
 452 831 452 831 419.5 862 c 128,-1,5
 387 893 387 893 387 942.5 c 128,-1,6
 387 992 387 992 432 1038.5 c 128,-1,7
 477 1085 477 1085 527 1085 c 128,-1,0
 577 1085 577 1085 607 1054 c 128,-1,1
541 -2 m 1,8,-1
 524 70 l 1,9,10
 524 107 524 107 549 130.5 c 128,-1,11
 574 154 574 154 604.5 154 c 128,-1,12
 635 154 635 154 655.5 134.5 c 128,-1,13
 676 115 676 115 676 68.5 c 128,-1,14
 676 22 676 22 649.5 -31.5 c 128,-1,15
 623 -85 623 -85 576 -128 c 0,16,17
 469.976744186 -225 469.976744186 -225 305 -225 c 0,18,19
 67.9772727273 -225 67.9772727273 -225 9.5 -59 c 0,20,21
 -6 -15 -6 -15 -6 39.5 c 128,-1,22
 -6 94 -6 94 17 151 c 128,-1,23
 40 208 40 208 77 254 c 128,-1,24
 114 300 114 300 159.5 344 c 128,-1,25
 205 388 205 388 251.5 427.5 c 128,-1,26
 298 467 298 467 338 503.5 c 0,27,28
 428.515970516 586.095823096 428.515970516 586.095823096 440 655 c 0,29,30
 441 665 441 665 452 674.5 c 128,-1,31
 463 684 463 684 471 684 c 128,-1,32
 479 684 479 684 487 674.5 c 128,-1,33
 495 665 495 665 494 655 c 0,34,35
 474.566765579 538.400593472 474.566765579 538.400593472 392 440.5 c 0,36,37
 305.42364532 337.845179451 305.42364532 337.845179451 260.71182266 270.422589726 c 0,38,39
 174 139.666666667 174 139.666666667 174 -8 c 0,40,41
 174 -90 174 -90 212.5 -127 c 128,-1,42
 251 -164 251 -164 335 -164 c 128,-1,43
 419 -164 419 -164 480 -113 c 128,-1,44
 541 -62 541 -62 541 -2 c 1,8,-1
EndSplineSet
EndChar

StartChar: AE
Encoding: 198 198 136
Width: 1556
GlyphClass: 2
Flags: HW
AnchorPoint: "Anchor-5" 963 1270 basechar 0
LayerCount: 2
Fore
SplineSet
98 80 m 1,0,1
 109.1 43 109.1 43 221 43 c 1,2,-1
 213 0 l 1,3,-1
 57 0 l 1,4,-1
 88 66 l 1,5,-1
 41 0 l 1,6,-1
 -123 0 l 1,7,-1
 -115 43 l 1,8,9
 -6.17391304348 43 -6.17391304348 43 20 86 c 1,10,-1
 20 84 l 1,11,-1
 782 1133 l 1,12,13
 763 1155 763 1155 670 1155 c 1,14,-1
 678 1198 l 1,15,-1
 1546 1198 l 1,16,-1
 1513 999 l 1,17,-1
 1470 999 l 1,18,19
 1477 1050 1477 1050 1477 1083 c 128,-1,20
 1477 1116 1477 1116 1450 1128 c 1,21,-1
 1026 1128 l 1,22,-1
 948 657 l 1,23,-1
 1235 657 l 1,24,25
 1259 666 1259 666 1272.5 694 c 128,-1,26
 1286 722 1286 722 1296 786 c 1,27,-1
 1339 786 l 1,28,-1
 1284 459 l 1,29,-1
 1241 459 l 1,30,31
 1249 517 1249 517 1249 528 c 0,32,33
 1249 576 1249 576 1223 588 c 1,34,-1
 936 588 l 1,35,-1
 850 70 l 1,36,-1
 1317 70 l 1,37,38
 1370 90 1370 90 1430 199 c 1,39,-1
 1470 199 l 1,40,-1
 1389 0 l 1,41,-1
 520 0 l 1,42,-1
 528 43 l 1,43,44
 641.636363636 43 641.636363636 43 664 84 c 1,45,-1
 713 381 l 1,46,-1
 317 381 l 1,47,-1
 98 80 l 1,0,1
367 449 m 1,48,-1
 725 449 l 1,49,-1
 831 1085 l 1,50,-1
 367 449 l 1,48,-1
EndSplineSet
EndChar

StartChar: Ccedilla
Encoding: 199 199 137
Width: 1157
GlyphClass: 2
Flags: HW
LayerCount: 2
Fore
SplineSet
410 -362 m 1,0,-1
 410 -365 l 1,1,2
 497 -365 497 -365 536 -332 c 128,-1,3
 575 -299 575 -299 575 -250 c 0,4,5
 575 -178 575 -178 465 -178 c 1,6,-1
 537 -20 l 1,7,8
 323 -3 323 -3 208.5 132.5 c 128,-1,9
 94 268 94 268 94 467 c 0,10,11
 94 602 94 602 138 723.5 c 128,-1,12
 182 845 182 845 256 933.5 c 128,-1,13
 330 1022 330 1022 424.5 1087 c 0,14,15
 613.5 1217 613.5 1217 831 1217 c 0,16,17
 901 1217 901 1217 968 1186 c 128,-1,18
 1035 1155 1035 1155 1049 1155 c 0,19,20
 1072 1155 1072 1155 1079 1196 c 1,21,-1
 1126 1196 l 1,22,-1
 1104 936 l 1,23,-1
 1059 936 l 1,24,25
 1059 1029 1059 1029 1002 1088 c 128,-1,26
 945 1147 945 1147 832.5 1147 c 128,-1,27
 720 1147 720 1147 626.5 1094.5 c 128,-1,28
 533 1042 533 1042 463.5 953 c 128,-1,29
 394 864 394 864 352.5 737.5 c 128,-1,30
 311 611 311 611 311 471 c 0,31,32
 311 269 311 269 406 158 c 128,-1,33
 501 47 501 47 645 47 c 0,34,35
 748 47 748 47 860 118 c 128,-1,36
 972 189 972 189 1014 268 c 1,37,-1
 1059 244 l 1,38,39
 1001.14881971 146.251453986 1001.14881971 146.251453986 900.5 71 c 0,40,41
 786.95184442 -13.8958172557 786.95184442 -13.8958172557 614 -20 c 1,42,-1
 573 -113 l 1,43,44
 626.846153846 -113 626.846153846 -113 671.423076923 -132 c 0,45,46
 756 -168.049180328 756 -168.049180328 756 -236.524590164 c 128,-1,47
 756 -305 756 -305 695 -356.5 c 128,-1,48
 634 -408 634 -408 504 -408 c 0,49,50
 440 -408 440 -408 354 -393 c 1,51,-1
 360 -358 l 1,52,53
 396 -362 396 -362 410 -362 c 1,0,-1
EndSplineSet
EndChar

StartChar: Eth
Encoding: 208 208 146
Width: 1251
GlyphClass: 2
Flags: HW
AnchorPoint: "Anchor-5" 651 1413 basechar 0
LayerCount: 2
Fore
SplineSet
219 1137 m 1,0,1
 173.784810127 1120.0443038 173.784810127 1120.0443038 156 1008 c 1,2,-1
 113 1008 l 1,3,-1
 145 1198 l 1,4,-1
 430 1198 l 1,5,-1
 455 1341 l 1,6,-1
 537 1341 l 1,7,-1
 512 1198 l 1,8,-1
 666 1198 l 2,9,10
 906 1198 906 1198 1043 1067.5 c 128,-1,11
 1180 937 1180 937 1180 719 c 0,12,13
 1180 562 1180 562 1123.5 425.5 c 128,-1,14
 1067 289 1067 289 972 196.5 c 128,-1,15
 877 104 877 104 751.5 51 c 128,-1,16
 626 -2 626 -2 489 -2 c 2,17,-1
 -6 -2 l 1,18,-1
 0 41 l 1,19,20
 114.636363636 41 114.636363636 41 137 82 c 1,21,-1
 176 315 l 2,22,23
 248.542635659 747.101786316 248.542635659 747.101786316 622 877 c 0,24,25
 760 925 760 925 944 936 c 1,26,27
 906 1037 906 1037 828 1087 c 128,-1,28
 750 1137 750 1137 655 1137 c 2,29,-1
 502 1137 l 1,30,-1
 473 963 l 1,31,-1
 391 963 l 1,32,-1
 420 1137 l 1,33,-1
 219 1137 l 1,0,1
963 874 m 1,34,35
 575.099199101 848.70212168 575.099199101 848.70212168 433.5 569 c 0,36,37
 393 489 393 489 377 393 c 2,38,-1
 324 68 l 1,39,-1
 502 68 l 2,40,41
 627.210526316 68 627.210526316 68 751 180 c 0,42,43
 890.624536377 306.326961484 890.624536377 306.326961484 946 505.5 c 0,44,45
 977 617 977 617 977 711.5 c 128,-1,46
 977 806 977 806 963 874 c 1,34,35
EndSplineSet
EndChar

StartChar: multiply
Encoding: 215 215 153
Width: 860
GlyphClass: 2
Flags: HW
LayerCount: 2
Fore
SplineSet
512 651 m 1,0,-1
 731 389 l 1,1,-1
 657 326 l 1,2,-1
 438 588 l 1,3,-1
 133 326 l 1,4,-1
 80 389 l 1,5,-1
 385 651 l 1,6,-1
 168 913 l 1,7,-1
 242 977 l 1,8,-1
 459 715 l 1,9,-1
 766 977 l 1,10,-1
 819 913 l 1,11,-1
 512 651 l 1,0,-1
EndSplineSet
EndChar

StartChar: Oslash
Encoding: 216 216 154
Width: 1318
GlyphClass: 2
Flags: HW
LayerCount: 2
Fore
SplineSet
326 -57 m 1,0,-1
 266 -20 l 1,1,-1
 309 47 l 1,2,3
 206 111 206 111 150 224.5 c 128,-1,4
 94 338 94 338 94 483.5 c 128,-1,5
 94 629 94 629 150 766.5 c 128,-1,6
 206 904 206 904 299 1002.5 c 128,-1,7
 392 1101 392 1101 517 1160 c 128,-1,8
 642 1219 642 1219 774 1219 c 128,-1,9
 906 1219 906 1219 1008 1165 c 1,10,-1
 1063 1253 l 1,11,-1
 1122 1217 l 1,12,-1
 1067 1126 l 1,13,14
 1155 1059 1155 1059 1202 952.5 c 128,-1,15
 1249 846 1249 846 1249 707 c 128,-1,16
 1249 568 1249 568 1192.5 431 c 128,-1,17
 1136 294 1136 294 1042.5 195.5 c 128,-1,18
 949 97 949 97 824 38.5 c 128,-1,19
 699 -20 699 -20 576 -20 c 128,-1,20
 453 -20 453 -20 371 16 c 1,21,-1
 326 -57 l 1,0,-1
987 999 m 1,22,-1
 426 104 l 1,23,24
 490 49 490 49 591.5 49 c 128,-1,25
 693 49 693 49 781 111 c 128,-1,26
 869 173 869 173 924.5 272 c 0,27,28
 1042 481.594594595 1042 481.594594595 1042 723 c 0,29,30
 1042 889 1042 889 987 999 c 1,22,-1
944 1063 m 1,31,32
 871 1149 871 1149 756 1149 c 0,33,34
 672 1149 672 1149 597.5 1108 c 128,-1,35
 523 1067 523 1067 469.5 998 c 128,-1,36
 416 929 416 929 376.5 841 c 0,37,38
 299 668.341772152 299 668.341772152 299 471.170886076 c 128,-1,39
 299 274 299 274 379 158 c 1,40,-1
 944 1063 l 1,31,32
EndSplineSet
EndChar

StartChar: Thorn
Encoding: 222 222 160
Width: 1077
GlyphClass: 2
Flags: HW
LayerCount: 2
Fore
SplineSet
336 84 m 1,0,1
 347.181818182 43 347.181818182 43 459 43 c 1,2,-1
 451 0 l 1,3,-1
 4 0 l 1,4,-1
 12 43 l 1,5,6
 124.636363636 43 124.636363636 43 147 84 c 1,7,-1
 319 1114 l 1,8,9
 313 1136 313 1136 286.5 1145.5 c 128,-1,10
 260 1155 260 1155 197 1155 c 1,11,-1
 205 1198 l 1,12,-1
 651 1198 l 1,13,-1
 643 1155 l 1,14,15
 530.363636364 1155 530.363636364 1155 508 1114 c 1,16,-1
 479 942 l 1,17,-1
 586 942 l 2,18,19
 823 942 823 942 938 867.5 c 128,-1,20
 1053 793 1053 793 1053 674 c 0,21,22
 1053 499 1053 499 906 394 c 128,-1,23
 759 289 759 289 502 289 c 2,24,-1
 371 289 l 1,25,-1
 336 84 l 1,0,1
467 872 m 1,26,-1
 381 358 l 1,27,-1
 512 358 l 2,28,29
 682 358 682 358 766 440.5 c 128,-1,30
 850 523 850 523 850 694 c 0,31,32
 850 782 850 782 787 827 c 128,-1,33
 724 872 724 872 573 872 c 2,34,-1
 467 872 l 1,26,-1
EndSplineSet
EndChar

StartChar: germandbls
Encoding: 223 223 161
Width: 1026
GlyphClass: 2
Flags: HW
LayerCount: 2
Fore
SplineSet
414 258 m 0,0,1
 449 258 449 258 449 202 c 0,2,3
 449 86.1282051282 449 86.1282051282 484.5 57 c 0,4,5
 504 41 504 41 536.5 41 c 128,-1,6
 569 41 569 41 608.5 68.5 c 128,-1,7
 648 96 648 96 683 142 c 0,8,9
 766 251.085714286 766 251.085714286 766 383.042857143 c 128,-1,10
 766 515 766 515 684.5 610 c 128,-1,11
 603 705 603 705 485 705 c 0,12,13
 469 705 469 705 461 711 c 128,-1,14
 453 717 453 717 455 725 c 0,15,16
 458 745 458 745 510 761.5 c 128,-1,17
 562 778 562 778 633.5 873 c 128,-1,18
 705 968 705 968 705 1046 c 128,-1,19
 705 1124 705 1124 677.5 1176.5 c 128,-1,20
 650 1229 650 1229 590.5 1229 c 128,-1,21
 531 1229 531 1229 478 1168.5 c 128,-1,22
 425 1108 425 1108 406 999 c 2,23,-1
 223 -90 l 2,24,25
 205 -195 205 -195 120.5 -241 c 128,-1,26
 36 -287 36 -287 -123 -287 c 1,27,-1
 -117 -240 l 1,28,29
 -60 -240 -60 -240 -16 -194 c 128,-1,30
 28 -148 28 -148 41 -70 c 2,31,-1
 215 971 l 1,32,33
 249.040223464 1166.73128492 249.040223464 1166.73128492 395 1246.5 c 0,34,35
 474.595744681 1290 474.595744681 1290 567 1290 c 0,36,37
 731 1290 731 1290 801.5 1239 c 128,-1,38
 872 1188 872 1188 872 1080 c 128,-1,39
 872 972 872 972 801.5 878.5 c 128,-1,40
 731 785 731 785 618 735 c 1,41,42
 754 710 754 710 848 618.5 c 128,-1,43
 942 527 942 527 942 426.5 c 128,-1,44
 942 326 942 326 907.5 242 c 128,-1,45
 873 158 873 158 816 101.5 c 0,46,47
 693.424778761 -20 693.424778761 -20 539 -20 c 0,48,49
 378.734693878 -20 378.734693878 -20 332 94.5 c 0,50,51
 322 119 322 119 322 159.5 c 128,-1,52
 322 200 322 200 347.5 229 c 128,-1,53
 373 258 373 258 414 258 c 0,0,1
EndSplineSet
EndChar

StartChar: ae
Encoding: 230 230 168
Width: 1562
GlyphClass: 2
Flags: HW
AnchorPoint: "Anchor-5" 829 1055 basechar 0
LayerCount: 2
Fore
SplineSet
831 489 m 1,0,-1
 1137 530 l 1,1,2
 1224 543 1224 543 1270.5 576.5 c 128,-1,3
 1317 610 1317 610 1317 676 c 0,4,5
 1317 737.558139535 1317 737.558139535 1285.5 780.779069767 c 0,6,7
 1227.76271186 860 1227.76271186 860 1112 860 c 0,8,9
 1029 860 1029 860 943 755 c 128,-1,10
 857 650 857 650 831 489 c 1,0,-1
993 -20 m 0,11,12
 792.8 -20 792.8 -20 694 113 c 1,13,14
 566 -20 566 -20 283 -20 c 0,15,16
 155 -20 155 -20 83.5 22.5 c 128,-1,17
 12 65 12 65 12 170 c 0,18,19
 12 278.888888889 12 278.888888889 94.5 340 c 0,20,21
 177.497533909 401.479654747 177.497533909 401.479654747 266.248766954 425.239827374 c 128,-1,22
 355 449 355 449 408.5 461 c 128,-1,23
 462 473 462 473 530 487.5 c 128,-1,24
 598 502 598 502 641 514 c 1,25,26
 657 586 657 586 657 673 c 128,-1,27
 657 760 657 760 619.5 804 c 128,-1,28
 582 848 582 848 493.5 848 c 128,-1,29
 405 848 405 848 348.5 827 c 128,-1,30
 292 806 292 806 268 750 c 1,31,32
 293 750 293 750 310.5 734.5 c 128,-1,33
 328 719 328 719 328 679.5 c 128,-1,34
 328 640 328 640 296 617 c 128,-1,35
 264 594 264 594 226 594 c 0,36,37
 150 594 150 594 150 672 c 0,38,39
 150 792 150 792 254.5 857 c 128,-1,40
 359 922 359 922 526 922 c 0,41,42
 731 922 731 922 805 807 c 1,43,44
 936 922 936 922 1130 922 c 0,45,46
 1404.34782609 922 1404.34782609 922 1481.5 740 c 0,47,48
 1501 694 1501 694 1501 658 c 128,-1,49
 1501 622 1501 622 1496.5 605 c 128,-1,50
 1492 588 1492 588 1476 567.5 c 128,-1,51
 1460 547 1460 547 1431 532.5 c 0,52,53
 1361.40740741 497.703703704 1361.40740741 497.703703704 1223 479 c 2,54,-1
 827 426 l 1,55,56
 827 272 827 272 898.5 164.5 c 128,-1,57
 970 57 970 57 1069.5 57 c 128,-1,58
 1169 57 1169 57 1242 88 c 128,-1,59
 1315 119 1315 119 1386 193 c 1,60,-1
 1432 168 l 1,61,62
 1357 71 1357 71 1253.5 25.5 c 128,-1,63
 1150 -20 1150 -20 993 -20 c 0,11,12
633 471 m 1,64,65
 470.214953271 443.869158879 470.214953271 443.869158879 412.607476636 418.934579439 c 128,-1,66
 355 394 355 394 316.5 370.5 c 128,-1,67
 278 347 278 347 255 319.5 c 0,68,69
 201 254.934782609 201 254.934782609 201 178.967391304 c 128,-1,70
 201 103 201 103 234 76 c 128,-1,71
 267 49 267 49 354.5 49 c 128,-1,72
 442 49 442 49 531 78 c 128,-1,73
 620 107 620 107 670 150 c 1,74,75
 625 232 625 232 625 327 c 128,-1,76
 625 422 625 422 633 471 c 1,64,65
EndSplineSet
EndChar

StartChar: ccedilla
Encoding: 231 231 169
Width: 980
GlyphClass: 2
Flags: HW
LayerCount: 2
Fore
SplineSet
281 -362 m 1,0,-1
 281 -358 l 1,1,2
 368 -358 368 -358 407 -325.5 c 128,-1,3
 446 -293 446 -293 446 -244 c 0,4,5
 446 -172 446 -172 336 -172 c 1,6,-1
 406 -16 l 1,7,8
 273.90406051 -9.90326433121 273.90406051 -9.90326433121 177 68 c 0,9,10
 66 157.235294118 66 157.235294118 66 360 c 0,11,12
 66 520 66 520 130.5 647.5 c 128,-1,13
 195 775 195 775 319 849.5 c 128,-1,14
 443 924 443 924 598.5 924 c 0,15,16
 911 924 911 924 911 743 c 0,17,18
 911 682 911 682 881.5 643 c 128,-1,19
 852 604 852 604 811 604 c 0,20,21
 723 604 723 604 723 664 c 0,22,23
 723 711 723 711 751.5 735.5 c 128,-1,24
 780 760 780 760 809 760 c 1,25,26
 801 862 801 862 616 862 c 0,27,28
 474 862 474 862 370 736 c 128,-1,29
 266 610 266 610 266 416 c 0,30,31
 266 268 266 268 339 163.5 c 128,-1,32
 412 59 412 59 511 59 c 128,-1,33
 610 59 610 59 683 90 c 128,-1,34
 756 121 756 121 827 195 c 1,35,-1
 872 170 l 1,36,37
 803 81 803 81 711 35 c 128,-1,38
 619 -11 619 -11 485 -18 c 1,39,-1
 444 -113 l 1,40,41
 497.846153846 -113 497.846153846 -113 542.423076923 -132 c 0,42,43
 627 -168.049180328 627 -168.049180328 627 -236.524590164 c 128,-1,44
 627 -305 627 -305 566 -356.5 c 128,-1,45
 505 -408 505 -408 375 -408 c 0,46,47
 311 -408 311 -408 225 -393 c 1,48,-1
 231 -358 l 1,49,50
 267 -362 267 -362 281 -362 c 1,0,-1
EndSplineSet
EndChar

StartChar: eth
Encoding: 240 240 178
Width: 1087
GlyphClass: 2
Flags: HW
LayerCount: 2
Fore
SplineSet
165.5 78.5 m 128,-1,1
 66 177 66 177 66 350 c 0,2,3
 66 657 66 657 253.5 811.5 c 0,4,5
 387.601941748 922 387.601941748 922 604 922 c 0,6,7
 674 922 674 922 737 909 c 1,8,9
 692 1008 692 1008 623 1090 c 1,10,-1
 434 991 l 1,11,-1
 410 1051 l 1,12,-1
 578 1139 l 1,13,14
 521 1196 521 1196 452 1242 c 1,15,-1
 434 1253 l 1,16,-1
 463 1290 l 1,17,18
 553 1256 553 1256 659 1182 c 1,19,-1
 856 1286 l 1,20,-1
 881 1227 l 1,21,-1
 717 1139 l 1,22,23
 999 910 999 910 999 575 c 0,24,25
 999 256.129032258 999 256.129032258 814 95 c 0,26,27
 681.962962963 -20 681.962962963 -20 473.481481481 -20 c 128,-1,0
 265 -20 265 -20 165.5 78.5 c 128,-1,1
574 858 m 0,28,29
 466 858 466 858 397 778.5 c 0,30,31
 264 625.260869565 264 625.260869565 264 344 c 0,32,33
 264 191 264 191 326 116 c 128,-1,34
 388 41 388 41 490.5 41 c 128,-1,35
 593 41 593 41 664 122 c 0,36,37
 801 278.295774648 801 278.295774648 801 568.147887324 c 128,-1,38
 801 858 801 858 574 858 c 0,28,29
EndSplineSet
EndChar

StartChar: divide
Encoding: 247 247 185
Width: 985
GlyphClass: 2
Flags: HW
LayerCount: 2
Fore
SplineSet
472 848 m 128,-1,1
 442 879 442 879 442 926 c 128,-1,2
 442 973 442 973 483.5 1016 c 128,-1,3
 525 1059 525 1059 572.5 1059 c 128,-1,4
 620 1059 620 1059 650 1029 c 128,-1,5
 680 999 680 999 680 952.5 c 128,-1,6
 680 906 680 906 637.5 861.5 c 128,-1,7
 595 817 595 817 548.5 817 c 128,-1,0
 502 817 502 817 472 848 c 128,-1,1
375.5 274.5 m 128,-1,9
 346 305 346 305 346 352 c 128,-1,10
 346 399 346 399 387 442 c 128,-1,11
 428 485 428 485 475.5 485 c 128,-1,12
 523 485 523 485 553.5 455.5 c 128,-1,13
 584 426 584 426 584 379.5 c 128,-1,14
 584 333 584 333 541 288.5 c 128,-1,15
 498 244 498 244 451.5 244 c 128,-1,8
 405 244 405 244 375.5 274.5 c 128,-1,9
117 696 m 1,16,-1
 924 696 l 1,17,-1
 909 606 l 1,18,-1
 102 606 l 1,19,-1
 117 696 l 1,16,-1
EndSplineSet
EndChar

StartChar: oslash
Encoding: 248 248 186
Width: 1120
GlyphClass: 2
Flags: HW
AnchorPoint: "Anchor-5" 653 1055 basechar 0
LayerCount: 2
Fore
SplineSet
231 39 m 1,0,1
 66 134.740740741 66 134.740740741 66 360 c 0,2,3
 66 601.189781022 66 601.189781022 205.5 758 c 0,4,5
 351.396103896 922 351.396103896 922 623 922 c 0,6,7
 734 922 734 922 825 889 c 1,8,-1
 885 973 l 1,9,-1
 940 932 l 1,10,-1
 889 858 l 1,11,12
 1036 768 1036 768 1036 557 c 0,13,14
 1036 311.485294118 1036 311.485294118 897 150 c 0,15,16
 829 71 829 71 721.5 25.5 c 128,-1,17
 614 -20 614 -20 495.5 -20 c 128,-1,18
 377 -20 377 -20 295 8 c 1,19,-1
 238 -72 l 1,20,-1
 182 -31 l 1,21,-1
 231 39 l 1,0,1
803 737 m 1,22,-1
 354 96 l 1,23,24
 415 41 415 41 513.5 41 c 128,-1,25
 612 41 612 41 687 115.5 c 128,-1,26
 762 190 762 190 800 307 c 128,-1,27
 838 424 838 424 838 546.5 c 128,-1,28
 838 669 838 669 803 737 c 1,22,-1
762 797 m 1,29,30
 701 858 701 858 593 858 c 128,-1,31
 485 858 485 858 411.5 783.5 c 128,-1,32
 338 709 338 709 301 597 c 128,-1,33
 264 485 264 485 264 358 c 128,-1,34
 264 231 264 231 309 152 c 1,35,-1
 762 797 l 1,29,30
EndSplineSet
EndChar

StartChar: thorn
Encoding: 254 254 192
Width: 1071
GlyphClass: 2
Flags: HW
LayerCount: 2
Fore
SplineSet
-141 -393 m 1,0,-1
 -135 -350 l 1,1,2
 -20.3636363636 -350 -20.3636363636 -350 2 -309 c 1,3,-1
 244 1145 l 1,4,5
 121 1155 121 1155 117 1155 c 1,6,-1
 125 1202 l 1,7,8
 164 1202 164 1202 285 1246 c 128,-1,9
 406 1290 406 1290 453 1290 c 1,10,-1
 358 729 l 1,11,12
 506 922 506 922 723 922 c 0,13,14
 934.095744681 922 934.095744681 922 983.5 750 c 0,15,16
 997 703 997 703 997 605.5 c 128,-1,17
 997 508 997 508 957.5 396 c 128,-1,18
 918 284 918 284 848 207 c 128,-1,19
 778 130 778 130 681.5 77 c 0,20,21
 495.783018868 -25 495.783018868 -25 233 -25 c 1,22,-1
 186 -309 l 1,23,24
 192 -331 192 -331 218 -340.5 c 128,-1,25
 244 -350 244 -350 307 -350 c 1,26,-1
 301 -393 l 1,27,-1
 -141 -393 l 1,0,-1
336 584 m 1,28,-1
 244 35 l 1,29,30
 536.907399919 38.2187626365 536.907399919 38.2187626365 689 242.5 c 0,31,32
 799 390.245098039 799 390.245098039 799 637 c 0,33,34
 799 738 799 738 770.5 795 c 128,-1,35
 742 852 742 852 687 852 c 128,-1,36
 632 852 632 852 575.5 828 c 128,-1,37
 519 804 519 804 474.5 763.5 c 0,38,39
 392.756076005 689.103844454 392.756076005 689.103844454 336 584 c 1,28,-1
EndSplineSet
EndChar

StartChar: Aogonek
Encoding: 260 260 198
Width: 1112
GlyphClass: 2
Flags: HW
LayerCount: 2
Fore
SplineSet
569 926 m 1,0,-1
 319 449 l 1,1,-1
 664 449 l 1,2,-1
 569 926 l 1,0,-1
1014 -340 m 0,3,4
 1042.66666667 -340 1042.66666667 -340 1083 -307 c 1,5,-1
 1100 -344 l 1,6,7
 1077.43640898 -370.324189526 1077.43640898 -370.324189526 1029.71820449 -390.162094763 c 128,-1,8
 982 -410 982 -410 911.5 -410 c 128,-1,9
 841 -410 841 -410 796.5 -370 c 128,-1,10
 752 -330 752 -330 752 -258 c 0,11,12
 752 -120 752 -120 895 0 c 1,13,-1
 608 0 l 1,14,-1
 614 45 l 1,15,16
 709 45 709 45 737 70 c 1,17,-1
 674 383 l 1,18,-1
 281 383 l 1,19,-1
 125 82 l 1,20,21
 133 61 133 61 159 53 c 128,-1,22
 185 45 185 45 246 45 c 1,23,-1
 238 2 l 1,24,-1
 -98 2 l 1,25,-1
 -90 45 l 1,26,27
 24 45 24 45 45 88 c 1,28,-1
 629 1200 l 1,29,-1
 727 1200 l 1,30,-1
 938 88 l 2,31,32
 947 45 947 45 1063 45 c 1,33,-1
 1055 2 l 1,34,-1
 948 2 l 1,35,36
 866 -91 866 -91 866 -168 c 0,37,38
 866 -340 866 -340 1014 -340 c 0,3,4
EndSplineSet
EndChar

StartChar: aogonek
Encoding: 261 261 199
Width: 987
GlyphClass: 2
Flags: HW
LayerCount: 2
Fore
SplineSet
637 471 m 1,0,1
 612 463 612 463 568.5 452 c 128,-1,2
 525 441 525 441 494.5 433 c 128,-1,3
 464 425 464 425 423.5 411 c 128,-1,4
 383 397 383 397 354.5 383.5 c 128,-1,5
 326 370 326 370 296 348.5 c 128,-1,6
 266 327 266 327 247.5 302 c 0,7,8
 205 244.567567568 205 244.567567568 205 173.783783784 c 0,9,10
 205 49 205 49 332 49 c 0,11,12
 394 49 394 49 467 68.5 c 128,-1,13
 540 88 540 88 592 119 c 1,14,15
 588 139 588 139 588 154 c 128,-1,16
 588 169 588 169 592 197 c 2,17,-1
 637 471 l 1,0,1
852 -340 m 0,18,19
 881.666666667 -340 881.666666667 -340 922 -307 c 1,20,-1
 938 -344 l 1,21,22
 915.436408978 -370.324189526 915.436408978 -370.324189526 867.718204489 -390.162094763 c 128,-1,23
 820 -410 820 -410 749.5 -410 c 128,-1,24
 679 -410 679 -410 634.5 -370 c 128,-1,25
 590 -330 590 -330 590 -258 c 0,26,27
 590 -113 590 -113 743 12 c 1,28,29
 652 27 652 27 612 76 c 1,30,31
 467 -20 467 -20 285 -20 c 0,32,33
 157 -20 157 -20 85.5 22.5 c 128,-1,34
 14 65 14 65 14 170 c 0,35,36
 14 277.617283951 14 277.617283951 97.5 340.5 c 0,37,38
 178.801327167 401.726925397 178.801327167 401.726925397 268.900663583 426.363462699 c 128,-1,39
 359 451 359 451 412.5 463 c 128,-1,40
 466 475 466 475 534 489.5 c 128,-1,41
 602 504 602 504 645 516 c 1,42,43
 659 616 659 616 659 685.5 c 128,-1,44
 659 755 659 755 614.5 801.5 c 128,-1,45
 570 848 570 848 488.5 848 c 128,-1,46
 407 848 407 848 350.5 827 c 128,-1,47
 294 806 294 806 270 750 c 1,48,49
 295 750 295 750 312.5 735 c 128,-1,50
 330 720 330 720 330 688 c 1,51,-1
 328 688 l 1,52,53
 328 642 328 642 297 618 c 128,-1,54
 266 594 266 594 227.5 594 c 0,55,56
 150 594 150 594 150 672 c 0,57,58
 150 791 150 791 255 856.5 c 128,-1,59
 360 922 360 922 525 922 c 128,-1,60
 690 922 690 922 768 849.5 c 128,-1,61
 846 777 846 777 846 655 c 0,62,63
 846 632 846 632 838 578 c 2,64,-1
 778 217 l 1,65,66
 774 185 774 185 774 172 c 0,67,68
 774 113 774 113 802.5 80 c 128,-1,69
 831 47 831 47 879 47 c 1,70,-1
 870 0 l 1,71,72
 838 0 838 0 788 4 c 1,73,74
 705 -90 705 -90 705 -168 c 0,75,76
 705 -340 705 -340 852 -340 c 0,18,19
EndSplineSet
EndChar

StartChar: Dcroat
Encoding: 272 272 210
Width: 1261
GlyphClass: 2
Flags: HW
LayerCount: 2
Fore
SplineSet
334 70 m 1,0,-1
 512 70 l 2,1,2
 637.210526316 70 637.210526316 70 761 182 c 0,3,4
 900.624536377 308.326961484 900.624536377 308.326961484 956 507.5 c 0,5,6
 987 619 987 619 987 732 c 128,-1,7
 987 845 987 845 960 922.5 c 128,-1,8
 933 1000 933 1000 887 1046 c 0,9,10
 794 1139 794 1139 666 1139 c 2,11,-1
 512 1139 l 1,12,-1
 438 694 l 1,13,-1
 686 694 l 1,14,-1
 670 604 l 1,15,-1
 422 604 l 1,16,-1
 334 70 l 1,0,-1
319 1114 m 1,17,18
 313 1136 313 1136 286.5 1145.5 c 128,-1,19
 260 1155 260 1155 197 1155 c 1,20,-1
 205 1198 l 1,21,-1
 676 1198 l 2,22,23
 916 1198 916 1198 1053 1068.5 c 128,-1,24
 1190 939 1190 939 1190 721 c 0,25,26
 1190 564 1190 564 1133.5 427.5 c 128,-1,27
 1077 291 1077 291 982.5 198.5 c 128,-1,28
 888 106 888 106 762.5 53 c 128,-1,29
 637 0 637 0 500 0 c 2,30,-1
 4 0 l 1,31,-1
 12 43 l 1,32,33
 124.636363636 43 124.636363636 43 147 84 c 1,34,-1
 233 604 l 1,35,-1
 129 604 l 1,36,-1
 145 694 l 1,37,-1
 250 694 l 1,38,-1
 319 1114 l 1,17,18
EndSplineSet
EndChar

StartChar: dcroat
Encoding: 273 273 211
Width: 1103
GlyphClass: 2
Flags: HW
LayerCount: 2
Fore
SplineSet
692 125 m 1,0,1
 688 145 688 145 688 159 c 128,-1,2
 688 173 688 173 692 197 c 2,3,-1
 797 815 l 1,4,5
 729 860 729 860 614 860 c 0,6,7
 500.273504274 860 500.273504274 860 385.5 734.5 c 0,8,9
 332 676 332 676 297 583.5 c 128,-1,10
 262 491 262 491 262 400 c 128,-1,11
 262 309 262 309 282 233.5 c 128,-1,12
 302 158 302 158 345 103.5 c 128,-1,13
 388 49 388 49 442 49 c 0,14,15
 591 49 591 49 692 125 c 1,0,1
1008 983 m 1,16,-1
 881 217 l 1,17,18
 877 185 877 185 877 172 c 0,19,20
 877 113 877 113 905 80 c 128,-1,21
 933 47 933 47 981 47 c 1,22,-1
 973 0 l 1,23,24
 761 0 761 0 709 78 c 1,25,26
 591 -20 591 -20 410 -20 c 0,27,28
 310.538461538 -20 310.538461538 -20 244.769230769 16 c 128,-1,29
 179 52 179 52 143 91.5 c 0,30,31
 61 181.472222222 61 181.472222222 61 330.236111111 c 128,-1,32
 61 479 61 479 106 592.5 c 128,-1,33
 151 706 151 706 228 778.5 c 0,34,35
 388.903448276 930 388.903448276 930 614 930 c 0,36,37
 733 930 733 930 807 881 c 1,38,-1
 825 983 l 1,39,-1
 561 983 l 1,40,-1
 575 1073 l 1,41,-1
 840 1073 l 1,42,-1
 852 1145 l 1,43,44
 724 1155 724 1155 723 1155 c 2,45,-1
 731 1202 l 1,46,47
 769 1202 769 1202 890 1246 c 128,-1,48
 1011 1290 1011 1290 1059 1290 c 1,49,-1
 1022 1073 l 1,50,-1
 1116 1073 l 1,51,-1
 1102 983 l 1,52,-1
 1008 983 l 1,16,-1
EndSplineSet
EndChar

StartChar: Eogonek
Encoding: 280 280 218
Width: 1038
GlyphClass: 2
Flags: HW
LayerCount: 2
Fore
SplineSet
842 -340 m 0,0,1
 870.666666667 -340 870.666666667 -340 911 -307 c 1,2,-1
 928 -344 l 1,3,4
 905.436408978 -370.324189526 905.436408978 -370.324189526 857.718204489 -390.162094763 c 128,-1,5
 810 -410 810 -410 739.5 -410 c 128,-1,6
 669 -410 669 -410 624.5 -370 c 128,-1,7
 580 -330 580 -330 580 -258 c 0,8,9
 580 -120 580 -120 723 0 c 1,10,-1
 6 0 l 1,11,-1
 12 45 l 1,12,13
 124.636363636 45 124.636363636 45 147 86 c 1,14,-1
 319 1116 l 1,15,16
 313 1138 313 1138 286.5 1147.5 c 128,-1,17
 260 1157 260 1157 197 1157 c 1,18,-1
 205 1200 l 1,19,-1
 1030 1200 l 1,20,-1
 997 1001 l 1,21,-1
 954 1001 l 1,22,23
 961 1052 961 1052 961 1085 c 128,-1,24
 961 1118 961 1118 934 1130 c 1,25,-1
 510 1130 l 1,26,-1
 432 659 l 1,27,-1
 719 659 l 1,28,29
 743 668 743 668 756.5 696 c 128,-1,30
 770 724 770 724 780 788 c 1,31,-1
 823 788 l 1,32,-1
 768 461 l 1,33,-1
 725 461 l 1,34,35
 733 519 733 519 733 530 c 0,36,37
 733 578 733 578 707 590 c 1,38,-1
 420 590 l 1,39,-1
 334 72 l 1,40,-1
 801 72 l 1,41,42
 853 92 853 92 913 201 c 1,43,-1
 954 201 l 1,44,-1
 872 2 l 1,45,-1
 776 2 l 1,46,47
 694 -91 694 -91 694 -168 c 0,48,49
 694 -340 694 -340 842 -340 c 0,0,1
EndSplineSet
EndChar

StartChar: eogonek
Encoding: 281 281 219
Width: 1005
GlyphClass: 2
Flags: HW
LayerCount: 2
Fore
SplineSet
274 489 m 1,0,-1
 580 530 l 1,1,2
 667 543 667 543 713.5 576.5 c 128,-1,3
 760 610 760 610 760 676 c 0,4,5
 760 737.558139535 760 737.558139535 728.5 780.779069767 c 0,6,7
 670.762711864 860 670.762711864 860 555 860 c 0,8,9
 472 860 472 860 386 755 c 128,-1,10
 300 650 300 650 274 489 c 1,0,-1
623 -340 m 0,11,12
 651.666666667 -340 651.666666667 -340 692 -307 c 1,13,-1
 709 -344 l 1,14,15
 686.436408978 -370.324189526 686.436408978 -370.324189526 638.718204489 -390.162094763 c 128,-1,16
 591 -410 591 -410 520 -410 c 128,-1,17
 449 -410 449 -410 404.5 -370 c 128,-1,18
 360 -330 360 -330 360 -258 c 0,19,20
 360 -134 360 -134 479 -20 c 1,21,-1
 436 -20 l 2,22,23
 249.192771084 -20 249.192771084 -20 149 95.5 c 0,24,25
 68 188.875 68 188.875 68 352.9375 c 128,-1,26
 68 517 68 517 126 643.5 c 128,-1,27
 184 770 184 770 300 846 c 128,-1,28
 416 922 416 922 573 922 c 0,29,30
 847.347826087 922 847.347826087 922 924.5 740 c 0,31,32
 944 694 944 694 944 647 c 1,33,-1
 946 649 l 1,34,35
 946 569.5 946 569.5 876 534.5 c 0,36,37
 806.407407407 499.703703704 806.407407407 499.703703704 668 481 c 2,38,-1
 272 428 l 1,39,40
 272 274 272 274 343.5 166.5 c 128,-1,41
 415 59 415 59 514.5 59 c 128,-1,42
 614 59 614 59 687 90 c 128,-1,43
 760 121 760 121 831 195 c 1,44,-1
 877 170 l 1,45,46
 756.98677605 12.6056079344 756.98677605 12.6056079344 545 -12 c 1,47,48
 475 -96 475 -96 475 -168 c 0,49,50
 475 -340 475 -340 623 -340 c 0,11,12
EndSplineSet
EndChar

StartChar: Hbar
Encoding: 294 294 232
Width: 1343
GlyphClass: 2
Flags: HW
LayerCount: 2
Fore
SplineSet
338 84 m 1,0,1
 349.181818182 43 349.181818182 43 461 43 c 1,2,-1
 453 0 l 1,3,-1
 6 0 l 1,4,-1
 14 43 l 1,5,6
 127.636363636 43 127.636363636 43 150 84 c 1,7,-1
 279 860 l 1,8,-1
 174 860 l 1,9,-1
 190 950 l 1,10,-1
 295 950 l 1,11,-1
 322 1114 l 1,12,13
 310.818181818 1155 310.818181818 1155 199 1155 c 1,14,-1
 207 1198 l 1,15,-1
 653 1198 l 1,16,-1
 645 1155 l 1,17,18
 532.363636364 1155 532.363636364 1155 510 1114 c 1,19,-1
 483 950 l 1,20,-1
 1008 950 l 1,21,-1
 1034 1114 l 1,22,23
 1022.81818182 1155 1022.81818182 1155 911 1155 c 1,24,-1
 920 1198 l 1,25,-1
 1366 1198 l 1,26,-1
 1358 1155 l 1,27,28
 1245.36363636 1155 1245.36363636 1155 1223 1114 c 1,29,-1
 1196 950 l 1,30,-1
 1307 950 l 1,31,-1
 1290 860 l 1,32,-1
 1180 860 l 1,33,-1
 1051 84 l 1,34,35
 1062.18181818 43 1062.18181818 43 1174 43 c 1,36,-1
 1165 0 l 1,37,-1
 719 0 l 1,38,-1
 727 43 l 1,39,40
 839.636363636 43 839.636363636 43 862 84 c 1,41,-1
 946 588 l 1,42,-1
 422 588 l 1,43,-1
 338 84 l 1,0,1
991 860 m 1,44,-1
 467 860 l 1,45,-1
 434 657 l 1,46,-1
 958 657 l 1,47,-1
 991 860 l 1,44,-1
EndSplineSet
EndChar

StartChar: hbar
Encoding: 295 295 233
Width: 1091
GlyphClass: 2
Flags: HW
LayerCount: 2
Fore
SplineSet
109 991 m 1,0,-1
 125 1081 l 1,1,-1
 236 1081 l 1,2,-1
 246 1145 l 1,3,4
 118 1155 118 1155 117 1155 c 2,5,-1
 125 1202 l 1,6,7
 164 1202 164 1202 285 1246 c 128,-1,8
 406 1290 406 1290 453 1290 c 1,9,-1
 418 1081 l 1,10,-1
 721 1081 l 1,11,-1
 705 991 l 1,12,-1
 403 991 l 1,13,-1
 365 758 l 1,14,15
 488 922 488 922 646.5 922 c 0,16,17
 805 922 805 922 880.5 875 c 128,-1,18
 956 828 956 828 956 717 c 0,19,20
 956 697 956 697 948 639 c 1,21,-1
 879 217 l 1,22,23
 874 177 874 177 874 172 c 0,24,25
 874 113 874 113 902.5 80 c 128,-1,26
 931 47 931 47 979 47 c 1,27,-1
 971 0 l 1,28,29
 827 0 827 0 756.5 36.5 c 128,-1,30
 686 73 686 73 686 156 c 0,31,32
 686 169 686 169 690 197 c 2,33,-1
 766 653 l 2,34,35
 772 683 772 683 772 711 c 0,36,37
 772 852 772 852 612 852 c 0,38,39
 534 852 534 852 464 781 c 128,-1,40
 394 710 394 710 340 610 c 1,41,-1
 238 0 l 1,42,-1
 53 0 l 1,43,-1
 219 991 l 1,44,-1
 109 991 l 1,0,-1
EndSplineSet
EndChar

StartChar: Iogonek
Encoding: 302 302 240
Width: 626
GlyphClass: 2
Flags: HW
LayerCount: 2
Fore
SplineSet
422 -340 m 0,0,1
 451.666666667 -340 451.666666667 -340 492 -307 c 1,2,-1
 508 -344 l 1,3,4
 485.436408978 -370.324189526 485.436408978 -370.324189526 437.718204489 -390.162094763 c 128,-1,5
 390 -410 390 -410 319.5 -410 c 128,-1,6
 249 -410 249 -410 204.5 -370 c 128,-1,7
 160 -330 160 -330 160 -258 c 0,8,9
 160 -120 160 -120 303 0 c 1,10,-1
 6 0 l 1,11,-1
 12 45 l 1,12,13
 124.636363636 45 124.636363636 45 147 86 c 1,14,-1
 319 1116 l 1,15,16
 313 1138 313 1138 286.5 1147.5 c 128,-1,17
 260 1157 260 1157 197 1157 c 1,18,-1
 205 1200 l 1,19,-1
 651 1200 l 1,20,-1
 643 1157 l 1,21,22
 530.363636364 1157 530.363636364 1157 508 1116 c 1,23,-1
 336 86 l 1,24,25
 347.181818182 45 347.181818182 45 459 45 c 1,26,-1
 451 2 l 1,27,-1
 356 2 l 1,28,29
 274 -91 274 -91 274 -168 c 0,30,31
 274 -340 274 -340 422 -340 c 0,0,1
EndSplineSet
EndChar

StartChar: iogonek
Encoding: 303 303 241
Width: 491
GlyphClass: 2
Flags: HW
LayerCount: 2
Fore
SplineSet
315 -340 m 0,0,1
 344.666666667 -340 344.666666667 -340 385 -307 c 1,2,-1
 401 -344 l 1,3,4
 378.436408978 -370.324189526 378.436408978 -370.324189526 330.718204489 -390.162094763 c 128,-1,5
 283 -410 283 -410 212.5 -410 c 128,-1,6
 142 -410 142 -410 97.5 -370 c 128,-1,7
 53 -330 53 -330 53 -258 c 0,8,9
 53 -120 53 -120 197 0 c 1,10,-1
 86 0 l 1,11,-1
 215 776 l 1,12,-1
 213 778 l 1,13,14
 195 779 195 779 166.5 782 c 0,15,16
 109.5 788 109.5 788 86 788 c 1,17,-1
 94 836 l 1,18,19
 133 836 133 836 253.5 880 c 128,-1,20
 374 924 374 924 422 924 c 1,21,-1
 268 2 l 1,22,-1
 250 2 l 1,23,24
 168 -91 168 -91 168 -168 c 0,25,26
 168 -340 168 -340 315 -340 c 0,0,1
447 1264 m 128,-1,28
 475 1236 475 1236 475 1186 c 128,-1,29
 475 1136 475 1136 437.5 1095.5 c 128,-1,30
 400 1055 400 1055 353 1055 c 128,-1,31
 306 1055 306 1055 279 1082 c 128,-1,32
 252 1109 252 1109 252 1159 c 128,-1,33
 252 1209 252 1209 289 1250.5 c 128,-1,34
 326 1292 326 1292 372.5 1292 c 128,-1,27
 419 1292 419 1292 447 1264 c 128,-1,28
EndSplineSet
EndChar

StartChar: dotlessi
Encoding: 305 305 243
Width: 495
GlyphClass: 2
Flags: HW
AnchorPoint: "Anchor-5" 352 1055 basechar 0
AnchorPoint: "Anchor-3" 270 532 basechar 0
AnchorPoint: "Anchor-2" 168 0 basechar 0
AnchorPoint: "Anchor-1" 168 0 basechar 0
AnchorPoint: "Anchor-0" 225 0 basechar 0
LayerCount: 2
Fore
SplineSet
215 776 m 1,0,1
 197 777 197 777 168.5 780 c 0,2,3
 111.5 786 111.5 786 88 786 c 1,4,-1
 96 834 l 1,5,6
 135 834 135 834 255.5 878 c 128,-1,7
 376 922 376 922 424 922 c 1,8,-1
 270 0 l 1,9,-1
 86 0 l 1,10,-1
 215 776 l 1,0,1
EndSplineSet
EndChar

StartChar: Lslash
Encoding: 321 321 258
Width: 1011
GlyphClass: 2
Flags: HW
LayerCount: 2
Fore
SplineSet
4 0 m 1,0,-1
 12 43 l 1,1,2
 124.636363636 43 124.636363636 43 147 84 c 1,3,-1
 227 567 l 1,4,-1
 133 498 l 1,5,-1
 98 551 l 1,6,-1
 244 657 l 1,7,-1
 319 1114 l 1,8,9
 313 1136 313 1136 286.5 1145.5 c 128,-1,10
 260 1155 260 1155 197 1155 c 1,11,-1
 205 1198 l 1,12,-1
 651 1198 l 1,13,-1
 643 1155 l 1,14,15
 530.363636364 1155 530.363636364 1155 508 1114 c 1,16,-1
 459 817 l 1,17,-1
 569 899 l 1,18,-1
 606 846 l 1,19,-1
 442 725 l 1,20,-1
 334 70 l 1,21,-1
 801 70 l 1,22,23
 853 90 853 90 913 199 c 1,24,-1
 954 199 l 1,25,-1
 872 0 l 1,26,-1
 4 0 l 1,0,-1
EndSplineSet
EndChar

StartChar: lslash
Encoding: 322 322 259
Width: 495
GlyphClass: 2
Flags: HW
LayerCount: 2
Fore
SplineSet
250 1145 m 1,0,1
 122 1155 122 1155 121 1155 c 2,2,-1
 129 1202 l 1,3,4
 168 1202 168 1202 288.5 1246 c 128,-1,5
 409 1290 409 1290 457 1290 c 1,6,-1
 379 819 l 1,7,-1
 487 899 l 1,8,-1
 524 846 l 1,9,-1
 362 727 l 1,10,-1
 279 217 l 1,11,12
 274 177 274 177 274 172 c 0,13,14
 274 113 274 113 302.5 80 c 128,-1,15
 331 47 331 47 379 47 c 1,16,-1
 371 0 l 1,17,18
 227 0 227 0 156.5 36.5 c 128,-1,19
 86 73 86 73 86 156 c 0,20,21
 86 169 86 169 90 197 c 2,22,-1
 154 573 l 1,23,-1
 51 498 l 1,24,-1
 16 551 l 1,25,-1
 168 664 l 1,26,-1
 250 1145 l 1,0,1
EndSplineSet
EndChar

StartChar: Eng
Encoding: 330 330 267
Width: 1333
GlyphClass: 2
Flags: HW
LayerCount: 2
Fore
SplineSet
336 84 m 1,0,1
 347.181818182 43 347.181818182 43 459 43 c 1,2,-1
 451 0 l 1,3,-1
 4 0 l 1,4,-1
 12 43 l 1,5,6
 124.636363636 43 124.636363636 43 147 84 c 1,7,-1
 319 1114 l 1,8,9
 313 1136 313 1136 286.5 1145.5 c 128,-1,10
 260 1155 260 1155 197 1155 c 1,11,-1
 205 1198 l 1,12,-1
 522 1198 l 1,13,-1
 489 1006 l 1,14,15
 578 1105 578 1105 682 1162 c 128,-1,16
 786 1219 786 1219 877 1219 c 0,17,18
 1262 1219 1262 1219 1262 817 c 0,19,20
 1262 396.130081301 1262 396.130081301 1051.5 136 c 0,21,22
 925.263157895 -20 925.263157895 -20 778 -20 c 0,23,24
 685 -20 685 -20 607.5 13 c 128,-1,25
 530 46 530 46 530 104 c 0,26,27
 530 139 530 139 562 166 c 128,-1,28
 594 193 594 193 627 193 c 128,-1,29
 660 193 660 193 677 170.5 c 128,-1,30
 694 148 694 148 709 103.5 c 128,-1,31
 724 59 724 59 734.5 50 c 128,-1,32
 745 41 745 41 768 41 c 0,33,34
 843 41 843 41 914.5 160.5 c 128,-1,35
 986 280 986 280 1028.5 463.5 c 128,-1,36
 1071 647 1071 647 1071 829 c 0,37,38
 1071 1149 1071 1149 844 1149 c 0,39,40
 756 1149 756 1149 650.5 1070 c 128,-1,41
 545 991 545 991 467 872 c 1,42,-1
 336 84 l 1,0,1
EndSplineSet
EndChar

StartChar: eng
Encoding: 331 331 268
Width: 1085
GlyphClass: 2
Flags: HW
LayerCount: 2
Fore
SplineSet
303 -285 m 0,0,1
 303 -250 303 -250 334 -223.5 c 128,-1,2
 365 -197 365 -197 398.5 -197 c 128,-1,3
 432 -197 432 -197 450 -219.5 c 128,-1,4
 468 -242 468 -242 480 -277.5 c 128,-1,5
 492 -313 492 -313 496 -322.5 c 0,6,7
 506.736842105 -348 506.736842105 -348 544.368421053 -348 c 128,-1,8
 582 -348 582 -348 616.5 -289.5 c 128,-1,9
 651 -231 651 -231 670 -119 c 2,10,-1
 799 645 l 2,11,12
 803 665 803 665 803 705 c 0,13,14
 803 852 803 852 645 852 c 0,15,16
 564 852 564 852 496.5 794.5 c 128,-1,17
 429 737 429 737 381 657 c 1,18,-1
 270 0 l 1,19,-1
 86 0 l 1,20,-1
 215 776 l 1,21,22
 93 786 93 786 88 786 c 1,23,-1
 96 834 l 1,24,25
 135 834 135 834 255.5 878 c 128,-1,26
 376 922 376 922 424 922 c 1,27,-1
 399 772 l 1,28,29
 523 924 523 924 725 924 c 0,30,31
 987 924 987 924 987 707 c 0,32,33
 987 672 987 672 981 631 c 2,34,-1
 860 -90 l 2,35,36
 831 -259 831 -259 749 -334.5 c 128,-1,37
 667 -410 667 -410 563.5 -410 c 128,-1,38
 460 -410 460 -410 381.5 -376.5 c 128,-1,39
 303 -343 303 -343 303 -285 c 0,0,1
EndSplineSet
EndChar

StartChar: OE
Encoding: 338 338 275
Width: 1677
GlyphClass: 2
Flags: HW
LayerCount: 2
Fore
SplineSet
721 0 m 1,0,1
 651 -20 651 -20 567 -20 c 0,2,3
 420 -20 420 -20 311.5 46.5 c 0,4,5
 94 179.806451613 94 179.806451613 94 479 c 0,6,7
 94 629 94 629 150 766.5 c 128,-1,8
 206 904 206 904 299 1002.5 c 128,-1,9
 392 1101 392 1101 517 1160 c 128,-1,10
 642 1219 642 1219 749 1219 c 128,-1,11
 856 1219 856 1219 924 1198 c 1,12,-1
 1667 1198 l 1,13,-1
 1634 999 l 1,14,-1
 1591 999 l 1,15,16
 1597 1042 1597 1042 1597 1079 c 128,-1,17
 1597 1116 1597 1116 1571 1128 c 1,18,-1
 1147 1128 l 1,19,-1
 1069 657 l 1,20,-1
 1356 657 l 1,21,22
 1380 666 1380 666 1393.5 694 c 128,-1,23
 1407 722 1407 722 1417 786 c 1,24,-1
 1460 786 l 1,25,-1
 1405 459 l 1,26,-1
 1362 459 l 1,27,28
 1370 517 1370 517 1370 528 c 0,29,30
 1370 576 1370 576 1343 588 c 1,31,-1
 1057 588 l 1,32,-1
 971 70 l 1,33,-1
 1438 70 l 1,34,35
 1490 90 1490 90 1550 199 c 1,36,-1
 1591 199 l 1,37,-1
 1509 0 l 1,38,-1
 721 0 l 1,0,1
791 121 m 1,39,-1
 948 1059 l 1,40,41
 874 1149 874 1149 756 1149 c 0,42,43
 672 1149 672 1149 597.5 1108 c 128,-1,44
 523 1067 523 1067 469.5 998 c 128,-1,45
 416 929 416 929 376.5 841 c 0,46,47
 299 668.341772152 299 668.341772152 299 469 c 0,48,49
 299 300.5 299 300.5 365 179.5 c 0,50,51
 436.181818182 49 436.181818182 49 588 49 c 0,52,53
 697 49 697 49 791 121 c 1,39,-1
EndSplineSet
EndChar

StartChar: oe
Encoding: 339 339 276
Width: 1765
GlyphClass: 2
Flags: HW
LayerCount: 2
Fore
SplineSet
1196 -20 m 0,0,1
 977.444444444 -20 977.444444444 -20 883 133 c 1,2,3
 736 -20 736 -20 479 -20 c 0,4,5
 279 -20 279 -20 172.5 82 c 128,-1,6
 66 184 66 184 66 360 c 0,7,8
 66 601.189781022 66 601.189781022 205.5 758 c 0,9,10
 351.396103896 922 351.396103896 922 614.198051948 922 c 128,-1,11
 877 922 877 922 977 776 c 1,12,13
 1117 922 1117 922 1333 922 c 0,14,15
 1607.34782609 922 1607.34782609 922 1684.5 740 c 0,16,17
 1704 694 1704 694 1704 655 c 128,-1,18
 1704 616 1704 616 1695.5 594.5 c 128,-1,19
 1687 573 1687 573 1660.5 550 c 0,20,21
 1608.58453288 504.94129269 1608.58453288 504.94129269 1425 479 c 1,22,-1
 1030 426 l 1,23,24
 1030 272 1030 272 1101.5 164.5 c 128,-1,25
 1173 57 1173 57 1272.5 57 c 128,-1,26
 1372 57 1372 57 1445 88 c 128,-1,27
 1518 119 1518 119 1589 193 c 1,28,-1
 1634 168 l 1,29,30
 1559 71 1559 71 1456 25.5 c 128,-1,31
 1353 -20 1353 -20 1196 -20 c 0,0,1
301 597 m 128,-1,33
 264 485 264 485 264 342 c 128,-1,34
 264 199 264 199 330.5 120 c 128,-1,35
 397 41 397 41 504.5 41 c 128,-1,36
 612 41 612 41 687 115.5 c 128,-1,37
 762 190 762 190 800 307 c 128,-1,38
 838 424 838 424 838 559 c 0,39,40
 838 858 838 858 578 858 c 0,41,42
 485 858 485 858 411.5 783.5 c 128,-1,32
 338 709 338 709 301 597 c 128,-1,33
1034 489 m 1,43,-1
 1339 530 l 1,44,45
 1426 543 1426 543 1473 576.5 c 128,-1,46
 1520 610 1520 610 1520 676 c 0,47,48
 1520 737.558139535 1520 737.558139535 1488.5 780.779069767 c 0,49,50
 1430.76271186 860 1430.76271186 860 1315 860 c 0,51,52
 1232 860 1232 860 1146 755 c 128,-1,53
 1060 650 1060 650 1034 489 c 1,43,-1
EndSplineSet
EndChar

StartChar: Scedilla
Encoding: 350 350 287
Width: 983
GlyphClass: 2
Flags: HW
LayerCount: 2
Fore
SplineSet
231 -362 m 1,0,-1
 229 -360 l 1,1,2
 316 -360 316 -360 355.5 -327.5 c 128,-1,3
 395 -295 395 -295 395 -246 c 0,4,5
 395 -174 395 -174 285 -174 c 1,6,-1
 356 -16 l 1,7,8
 281 -9 281 -9 204.5 16 c 128,-1,9
 128 41 128 41 117 41 c 128,-1,10
 106 41 106 41 88.5 29 c 128,-1,11
 71 17 71 17 68 0 c 1,12,-1
 20 0 l 1,13,-1
 68 285 l 1,14,-1
 113 285 l 1,15,16
 115.811836115 107.854324734 115.811836115 107.854324734 310.5 61.5 c 0,17,18
 363 49 363 49 419.5 49 c 128,-1,19
 476 49 476 49 524.5 62 c 128,-1,20
 573 75 573 75 614.5 100.5 c 0,21,22
 705 156.108433735 705 156.108433735 705 274 c 0,23,24
 705 350.5 705 350.5 637 407.5 c 0,25,26
 590.327649208 446.622411693 590.327649208 446.622411693 515.663824604 490.811205847 c 0,27,28
 337.796460177 596.079646018 337.796460177 596.079646018 253.898230088 678.539823009 c 128,-1,29
 170 761 170 761 170 857 c 128,-1,30
 170 953 170 953 234.5 1037.5 c 128,-1,31
 299 1122 299 1122 395 1170.5 c 128,-1,32
 491 1219 491 1219 586 1219 c 0,33,34
 655 1219 655 1219 732 1188 c 128,-1,35
 809 1157 809 1157 823 1157 c 0,36,37
 847 1157 847 1157 854 1198 c 1,38,-1
 901 1198 l 1,39,-1
 879 938 l 1,40,-1
 834 938 l 1,41,42
 834 1027 834 1027 767 1088 c 128,-1,43
 700 1149 700 1149 587.5 1149 c 128,-1,44
 475 1149 475 1149 405.5 1082.5 c 128,-1,45
 336 1016 336 1016 336 944 c 0,46,47
 336 875.205882353 336 875.205882353 403 822 c 0,48,49
 458.274011299 778.105932203 458.274011299 778.105932203 527.13700565 738.052966102 c 0,50,51
 706.458715596 633.753604194 706.458715596 633.753604194 795.729357798 548.876802097 c 128,-1,52
 885 464 885 464 885 352 c 0,53,54
 885 149.508474576 885 149.508474576 678 42.5 c 0,55,56
 565.445093458 -15.6851635514 565.445093458 -15.6851635514 436 -20 c 1,57,-1
 395 -113 l 1,58,59
 448.846153846 -113 448.846153846 -113 493.423076923 -132 c 0,60,61
 578 -168.049180328 578 -168.049180328 578 -236.524590164 c 128,-1,62
 578 -305 578 -305 517 -356.5 c 128,-1,63
 456 -408 456 -408 326 -408 c 0,64,65
 262 -408 262 -408 176 -393 c 1,66,-1
 182 -358 l 1,67,68
 218 -362 218 -362 231 -362 c 1,0,-1
EndSplineSet
EndChar

StartChar: scedilla
Encoding: 351 351 288
Width: 837
GlyphClass: 2
Flags: HW
LayerCount: 2
Fore
SplineSet
111 -362 m 0,0,1
 198 -362 198 -362 237 -329.5 c 128,-1,2
 276 -297 276 -297 276 -248 c 0,3,4
 276 -176 276 -176 166 -176 c 1,5,-1
 240 -10 l 1,6,7
 206 -1 206 -1 162 20 c 128,-1,8
 118 41 118 41 104 41 c 0,9,10
 81 41 81 41 74 0 c 1,11,-1
 25 0 l 1,12,-1
 47 260 l 1,13,-1
 92 260 l 1,14,15
 92 205 92 205 135 158 c 128,-1,16
 178 111 178 111 238.5 86 c 128,-1,17
 299 61 299 61 341.5 61 c 128,-1,18
 384 61 384 61 412 66.5 c 128,-1,19
 440 72 440 72 474.5 86 c 128,-1,20
 509 100 509 100 531 132 c 128,-1,21
 553 164 553 164 553 211.5 c 128,-1,22
 553 259 553 259 508.5 297 c 128,-1,23
 464 335 464 335 400.5 363 c 128,-1,24
 337 391 337 391 273.5 422.5 c 128,-1,25
 210 454 210 454 165.5 507 c 128,-1,26
 121 560 121 560 121 631 c 0,27,28
 121 768 121 768 218.5 845 c 128,-1,29
 316 922 316 922 461 922 c 0,30,31
 544 922 544 922 634 875.5 c 0,32,33
 664 860 664 860 676.5 860 c 0,34,35
 704.166666667 860 704.166666667 860 711 901 c 1,36,-1
 758 901 l 1,37,-1
 733 641 l 1,38,-1
 688 641 l 1,39,40
 688 726 688 726 618.5 789 c 128,-1,41
 549 852 549 852 467.5 852 c 128,-1,42
 386 852 386 852 324 814 c 128,-1,43
 262 776 262 776 262 728.5 c 128,-1,44
 262 681 262 681 296 644.5 c 128,-1,45
 330 608 330 608 381 584 c 128,-1,46
 432 560 432 560 491.5 530.5 c 128,-1,47
 551 501 551 501 602 472 c 128,-1,48
 653 443 653 443 687 396 c 128,-1,49
 721 349 721 349 721 271.5 c 128,-1,50
 721 194 721 194 664 122 c 0,51,52
 551.583333333 -20 551.583333333 -20 328 -20 c 2,53,-1
 315 -20 l 1,54,-1
 274 -113 l 1,55,56
 327.846153846 -113 327.846153846 -113 372.423076923 -132 c 0,57,58
 457 -168.049180328 457 -168.049180328 457 -236.524590164 c 128,-1,59
 457 -305 457 -305 396 -356.5 c 128,-1,60
 335 -408 335 -408 205 -408 c 0,61,62
 141 -408 141 -408 55 -393 c 1,63,-1
 61 -358 l 1,64,65
 97 -362 97 -362 111 -362 c 0,0,1
EndSplineSet
EndChar

StartChar: Tcommaaccent
Encoding: 354 354 291
Width: 1095
GlyphClass: 2
Flags: HW
LayerCount: 2
Fore
SplineSet
565 84 m 1,0,1
 576.181818182 43 576.181818182 43 688 43 c 1,2,-1
 680 0 l 1,3,-1
 498 0 l 1,4,-1
 449 -113 l 1,5,6
 503.307692308 -113 503.307692308 -113 547.153846154 -132 c 0,7,8
 631 -168.333333333 631 -168.333333333 631 -236.666666667 c 128,-1,9
 631 -305 631 -305 570 -356.5 c 128,-1,10
 509 -408 509 -408 379 -408 c 0,11,12
 315 -408 315 -408 229 -393 c 1,13,-1
 236 -358 l 1,14,15
 272 -362 272 -362 285 -362 c 0,16,17
 372 -362 372 -362 411.5 -329.5 c 128,-1,18
 451 -297 451 -297 451 -248 c 0,19,20
 451 -176 451 -176 340 -176 c 1,21,-1
 420 0 l 1,22,-1
 233 0 l 1,23,-1
 242 43 l 1,24,25
 354.636363636 43 354.636363636 43 377 84 c 1,26,-1
 551 1128 l 1,27,-1
 215 1128 l 1,28,29
 191 1119 191 1119 177.5 1091 c 128,-1,30
 164 1063 164 1063 154 999 c 1,31,-1
 111 999 l 1,32,-1
 143 1198 l 1,33,-1
 1171 1198 l 1,34,-1
 1139 999 l 1,35,-1
 1096 999 l 1,36,37
 1102 1042 1102 1042 1102 1079 c 128,-1,38
 1102 1116 1102 1116 1075 1128 c 1,39,-1
 739 1128 l 1,40,-1
 565 84 l 1,0,1
EndSplineSet
EndChar

StartChar: tcommaaccent
Encoding: 355 355 292
Width: 686
GlyphClass: 2
Flags: HW
LayerCount: 2
Fore
SplineSet
70 -358 m 1,0,1
 103.397233967 -361.721258081 103.397233967 -361.721258081 117 -362 c 0,2,3
 204 -362 204 -362 243.5 -329.5 c 128,-1,4
 283 -297 283 -297 283 -248 c 0,5,6
 283 -176 283 -176 172 -176 c 1,7,-1
 246 -14 l 1,8,9
 117 12 117 12 117 147 c 0,10,11
 117 175 117 175 123 205 c 2,12,-1
 229 840 l 1,13,-1
 86 840 l 1,14,-1
 96 901 l 1,15,16
 214 901 214 901 303 990.5 c 128,-1,17
 392 1080 392 1080 412 1198 c 1,18,-1
 485 1198 l 1,19,-1
 436 901 l 1,20,-1
 612 901 l 1,21,-1
 602 840 l 1,22,-1
 426 840 l 1,23,-1
 315 188 l 1,24,25
 311 156 311 156 311 141 c 0,26,27
 311 57 311 57 401 57 c 0,28,29
 437 57 437 57 482 93.5 c 128,-1,30
 527 130 527 130 551 193 c 1,31,-1
 596 168 l 1,32,33
 521 -17 521 -17 322 -20 c 1,34,-1
 283 -113 l 1,35,36
 337.307692308 -113 337.307692308 -113 381.153846154 -132 c 0,37,38
 465 -168.333333333 465 -168.333333333 465 -236.666666667 c 128,-1,39
 465 -305 465 -305 404 -356.5 c 128,-1,40
 343 -408 343 -408 213 -408 c 0,41,42
 149 -408 149 -408 63 -393 c 1,43,-1
 70 -358 l 1,0,1
EndSplineSet
EndChar

StartChar: Tbar
Encoding: 358 358 295
Width: 1095
GlyphClass: 2
Flags: HW
LayerCount: 2
Fore
SplineSet
565 84 m 1,0,1
 576.181818182 43 576.181818182 43 688 43 c 1,2,-1
 680 0 l 1,3,-1
 233 0 l 1,4,-1
 242 43 l 1,5,6
 354.636363636 43 354.636363636 43 377 84 c 1,7,-1
 465 612 l 1,8,-1
 285 612 l 1,9,-1
 297 682 l 1,10,-1
 477 682 l 1,11,-1
 551 1128 l 1,12,-1
 215 1128 l 1,13,14
 191 1119 191 1119 177.5 1091 c 128,-1,15
 164 1063 164 1063 154 999 c 1,16,-1
 111 999 l 1,17,-1
 143 1198 l 1,18,-1
 1171 1198 l 1,19,-1
 1139 999 l 1,20,-1
 1096 999 l 1,21,22
 1102 1042 1102 1042 1102 1079 c 128,-1,23
 1102 1116 1102 1116 1075 1128 c 1,24,-1
 739 1128 l 1,25,-1
 666 682 l 1,26,-1
 838 682 l 1,27,-1
 825 612 l 1,28,-1
 653 612 l 1,29,-1
 565 84 l 1,0,1
EndSplineSet
EndChar

StartChar: tbar
Encoding: 359 359 296
Width: 686
GlyphClass: 2
Flags: HW
LayerCount: 2
Fore
SplineSet
485 1198 m 1,0,-1
 436 897 l 1,1,-1
 612 897 l 1,2,-1
 602 836 l 1,3,-1
 426 836 l 1,4,-1
 389 621 l 1,5,-1
 590 621 l 1,6,-1
 578 551 l 1,7,-1
 377 551 l 1,8,-1
 315 186 l 1,9,10
 311 154 311 154 311 139 c 0,11,12
 311 55 311 55 401 55 c 0,13,14
 437 55 437 55 482 91 c 128,-1,15
 527 127 527 127 551 190 c 1,16,-1
 596 166 l 1,17,18
 521 -23 521 -23 319 -23 c 0,19,20
 117 -23 117 -23 117 145 c 0,21,22
 117 173 117 173 123 203 c 2,23,-1
 182 553 l 1,24,-1
 37 553 l 1,25,-1
 49 623 l 1,26,-1
 193 623 l 1,27,-1
 229 840 l 1,28,-1
 86 840 l 1,29,-1
 96 901 l 1,30,31
 214 901 214 901 303 990.5 c 128,-1,32
 392 1080 392 1080 412 1198 c 1,33,-1
 485 1198 l 1,0,-1
EndSplineSet
EndChar

StartChar: Uogonek
Encoding: 370 370 307
Width: 1271
GlyphClass: 2
Flags: HW
LayerCount: 2
Fore
SplineSet
279 1114 m 1,0,1
 267.818181818 1155 267.818181818 1155 156 1155 c 1,2,-1
 164 1198 l 1,3,-1
 610 1198 l 1,4,-1
 602 1155 l 1,5,6
 489.363636364 1155 489.363636364 1155 467 1114 c 1,7,-1
 360 479 l 1,8,9
 350 407 350 407 350 360 c 0,10,11
 350 211 350 211 420.5 130 c 128,-1,12
 491 49 491 49 612 49 c 1,13,-1
 612 51 l 1,14,15
 701 51 701 51 783 101 c 128,-1,16
 865 151 865 151 925 247.5 c 128,-1,17
 985 344 985 344 1006 469 c 2,18,-1
 1114 1116 l 1,19,20
 1102.81818182 1157 1102.81818182 1157 991 1157 c 1,21,-1
 999 1200 l 1,22,-1
 1327 1200 l 1,23,-1
 1319 1157 l 1,24,25
 1206.36363636 1157 1206.36363636 1157 1184 1116 c 1,26,-1
 1083 510 l 2,27,28
 1020.08963434 129.678243987 1020.08963434 129.678243987 756 17 c 0,29,30
 681 -15 681 -15 598 -18 c 1,31,32
 535 -98 535 -98 535 -166 c 0,33,34
 535 -338 535 -338 682 -338 c 0,35,36
 711.666666667 -338 711.666666667 -338 752 -305 c 1,37,-1
 768 -342 l 1,38,39
 745.436408978 -368.324189526 745.436408978 -368.324189526 697.718204489 -388.162094763 c 128,-1,40
 650 -408 650 -408 579.5 -408 c 128,-1,41
 509 -408 509 -408 464.5 -368 c 128,-1,42
 420 -328 420 -328 420 -256 c 0,43,44
 420 -132 420 -132 539 -18 c 1,45,46
 164 -1 164 -1 164 360 c 0,47,48
 164 415 164 415 178 508 c 1,49,-1
 279 1114 l 1,0,1
EndSplineSet
EndChar

StartChar: uogonek
Encoding: 371 371 308
Width: 1128
GlyphClass: 2
Flags: HW
LayerCount: 2
Fore
SplineSet
539 -258 m 0,0,1
 539 -109.222222222 539 -109.222222222 709 23 c 1,2,-1
 756 23 l 1,3,4
 755 21 755 21 742 7 c 128,-1,5
 729 -7 729 -7 715 -24.5 c 128,-1,6
 701 -42 701 -42 686.5 -64.5 c 0,7,8
 653 -116.482758621 653 -116.482758621 653 -168 c 0,9,10
 653 -340 653 -340 801 -340 c 0,11,12
 829.666666667 -340 829.666666667 -340 870 -307 c 1,13,-1
 887 -344 l 1,14,15
 864.436408978 -370.324189526 864.436408978 -370.324189526 816.718204489 -390.162094763 c 128,-1,16
 769 -410 769 -410 698.5 -410 c 128,-1,17
 628 -410 628 -410 583.5 -370 c 128,-1,18
 539 -330 539 -330 539 -258 c 0,0,1
215 817 m 1,19,20
 203.818181818 858 203.818181818 858 92 858 c 1,21,-1
 100 901 l 1,22,-1
 414 901 l 1,23,-1
 305 256 l 2,24,25
 299 226 299 226 299 197 c 0,26,27
 299 49 299 49 459 49 c 0,28,29
 597 49 597 49 713 178 c 1,30,-1
 834 901 l 1,31,-1
 1018 901 l 1,32,-1
 903 217 l 1,33,34
 899 185 899 185 899 172 c 0,35,36
 899 113 899 113 927.5 80 c 128,-1,37
 956 47 956 47 1004 47 c 1,38,-1
 995 0 l 1,39,40
 743.80952381 0 743.80952381 0 715 121 c 1,41,42
 574 -20 574 -20 421 -20 c 0,43,44
 117 -20 117 -20 117 197 c 0,45,46
 117 230 117 230 123 270 c 2,47,-1
 215 817 l 1,19,20
EndSplineSet
EndChar

StartChar: longs
Encoding: 383 383 320
Width: 491
GlyphClass: 2
Flags: HW
LayerCount: 2
Fore
SplineSet
811 1145 m 0,0,1
 811 1093 811 1093 780.5 1061.5 c 128,-1,2
 750 1030 750 1030 714 1030 c 128,-1,3
 678 1030 678 1030 658.5 1048 c 128,-1,4
 639 1066 639 1066 639 1099 c 128,-1,5
 639 1132 639 1132 670 1159 c 1,6,-1
 670 1169 l 2,7,8
 670 1198 670 1198 644.5 1213.5 c 128,-1,9
 619 1229 619 1229 580 1229 c 128,-1,10
 541 1229 541 1229 497 1168.5 c 128,-1,11
 453 1108 453 1108 434 999 c 2,12,-1
 266 0 l 1,13,-1
 -47 0 l 1,14,-1
 -39 43 l 1,15,16
 73.6363636364 43 73.6363636364 43 96 84 c 1,17,-1
 244 971 l 1,18,19
 273 1138 273 1138 363.5 1214 c 128,-1,20
 454 1290 454 1290 571 1290 c 0,21,22
 811 1290 811 1290 811 1145 c 0,0,1
EndSplineSet
EndChar

StartChar: uni0180
Encoding: 384 384 321
Width: 1095
GlyphClass: 2
Flags: HW
LayerCount: 2
Fore
SplineSet
102 983 m 1,0,-1
 119 1073 l 1,1,-1
 225 1073 l 1,2,-1
 238 1145 l 1,3,4
 110 1155 110 1155 109 1155 c 2,5,-1
 117 1202 l 1,6,7
 156 1202 156 1202 276 1246 c 128,-1,8
 396 1290 396 1290 444 1290 c 1,9,-1
 408 1073 l 1,10,-1
 659 1073 l 1,11,-1
 643 983 l 1,12,-1
 393 983 l 1,13,-1
 358 770 l 1,14,15
 503 930 503 930 666 930 c 0,16,17
 766.150943396 930 766.150943396 930 831.575471698 893.5 c 128,-1,18
 897 857 897 857 932.5 817.5 c 0,19,20
 1014 726.816901408 1014 726.816901408 1014 578.408450704 c 128,-1,21
 1014 430 1014 430 969 317 c 128,-1,22
 924 204 924 204 847 131 c 0,23,24
 687.726027397 -20 687.726027397 -20 461 -20 c 0,25,26
 259.444444444 -20 259.444444444 -20 119 59 c 0,27,28
 87 78 87 78 61 102 c 1,29,-1
 211 983 l 1,30,-1
 102 983 l 1,0,-1
340 666 m 1,31,-1
 242 78 l 1,32,33
 342 49 342 49 461 49 c 0,34,35
 524 49 524 49 588 88 c 128,-1,36
 652 127 652 127 704 195 c 128,-1,37
 756 263 756 263 788.5 364.5 c 128,-1,38
 821 466 821 466 821 587.5 c 128,-1,39
 821 709 821 709 770.5 784.5 c 128,-1,40
 720 860 720 860 634 860 c 128,-1,41
 548 860 548 860 472.5 803.5 c 128,-1,42
 397 747 397 747 340 666 c 1,31,-1
EndSplineSet
EndChar

StartChar: uni0181
Encoding: 385 385 322
Width: 1378
GlyphClass: 2
Flags: HW
LayerCount: 2
Fore
SplineSet
304.5 961 m 128,-1,1
 330 934 330 934 330 898.5 c 128,-1,2
 330 863 330 863 295.5 833 c 128,-1,3
 261 803 261 803 209 803 c 128,-1,4
 157 803 157 803 127.5 846 c 128,-1,5
 98 889 98 889 98 945.5 c 128,-1,6
 98 1002 98 1002 124 1051 c 128,-1,7
 150 1100 150 1100 195.5 1127.5 c 128,-1,8
 241 1155 241 1155 270 1167 c 0,9,10
 344.916666667 1198 344.916666667 1198 561 1198 c 2,11,-1
 809 1198 l 2,12,13
 1154.62068966 1198 1154.62068966 1198 1253 1039.5 c 0,14,15
 1280 996 1280 996 1280 946 c 0,16,17
 1280 834 1280 834 1208.5 753.5 c 128,-1,18
 1137 673 1137 673 1014 633 c 1,19,20
 1147 601 1147 601 1211.5 533 c 128,-1,21
 1276 465 1276 465 1276 383 c 0,22,23
 1276 213 1276 213 1125.5 106.5 c 128,-1,24
 975 0 975 0 723 0 c 2,25,-1
 231 0 l 1,26,-1
 240 43 l 1,27,28
 352.636363636 43 352.636363636 43 375 84 c 1,29,-1
 549 1128 l 1,30,31
 354 1128 354 1128 316.5 1094 c 128,-1,32
 279 1060 279 1060 279 1024 c 128,-1,0
 279 988 279 988 304.5 961 c 128,-1,1
737 1128 m 1,33,-1
 657 653 l 1,34,-1
 741 653 l 2,35,36
 901 653 901 653 988 733 c 128,-1,37
 1075 813 1075 813 1075 954 c 0,38,39
 1075 1128 1075 1128 797 1128 c 2,40,-1
 737 1128 l 1,33,-1
649 594 m 1,41,-1
 561 70 l 1,42,-1
 735 70 l 2,43,44
 900 70 900 70 985.5 158 c 128,-1,45
 1071 246 1071 246 1071 391 c 0,46,47
 1071 469.206896552 1071 469.206896552 1016 528 c 0,48,49
 954.258064516 594 954.258064516 594 799 594 c 2,50,-1
 649 594 l 1,41,-1
EndSplineSet
EndChar

StartChar: uni0186
Encoding: 390 390 323
Width: 1191
GlyphClass: 2
Flags: HW
AnchorPoint: "Anchor-5" 651 1270 basechar 0
AnchorPoint: "Anchor-3" 1006 598 basechar 0
AnchorPoint: "Anchor-2" 410 0 basechar 0
AnchorPoint: "Anchor-1" 410 0 basechar 0
AnchorPoint: "Anchor-0" 455 0 basechar 0
LayerCount: 2
Fore
SplineSet
143 358 m 0,0,1
 225 358 225 358 225 290.5 c 0,2,3
 225 252 225 252 196.5 227.5 c 128,-1,4
 168 203 168 203 139 203 c 1,5,6
 144 140 144 140 220 90.5 c 128,-1,7
 296 41 296 41 386 41 c 128,-1,8
 476 41 476 41 547.5 69.5 c 128,-1,9
 619 98 619 98 685.5 156 c 128,-1,10
 752 214 752 214 804.5 293 c 0,11,12
 920 466.8 920 466.8 920 719 c 0,13,14
 920 829 920 829 888 915.5 c 128,-1,15
 856 1002 856 1002 805 1051 c 0,16,17
 703 1149 703 1149 590.5 1149 c 128,-1,18
 478 1149 478 1149 372 1087.5 c 128,-1,19
 266 1026 266 1026 201 930 c 1,20,-1
 156 954 l 1,21,22
 225 1068 225 1068 343.5 1143.5 c 128,-1,23
 462 1219 462 1219 623 1219 c 0,24,25
 750.385714286 1219 750.385714286 1219 873.5 1157 c 0,26,27
 1025.6160362 1080.39480192 1025.6160362 1080.39480192 1088 930.5 c 0,28,29
 1124 844 1124 844 1124 733 c 128,-1,30
 1124 622 1124 622 1094 516.5 c 128,-1,31
 1064 411 1064 411 1012 329.5 c 128,-1,32
 960 248 960 248 892 181 c 128,-1,33
 824 114 824 114 747 70.5 c 0,34,35
 586.804597701 -20 586.804597701 -20 409.402298851 -20 c 128,-1,36
 232 -20 232 -20 133.5 47 c 128,-1,37
 35 114 35 114 35 219 c 0,38,39
 35 280 35 280 64.5 319 c 128,-1,40
 94 358 94 358 143 358 c 0,0,1
EndSplineSet
EndChar

StartChar: uni0187
Encoding: 391 391 324
Width: 1150
GlyphClass: 2
Flags: HW
LayerCount: 2
Fore
SplineSet
1428 1464.5 m 128,-1,1
 1477 1432 1477 1432 1477 1377.5 c 128,-1,2
 1477 1323 1477 1323 1445 1289 c 128,-1,3
 1413 1255 1413 1255 1364.5 1255 c 128,-1,4
 1316 1255 1316 1255 1304 1290 c 128,-1,5
 1292 1325 1292 1325 1248.5 1325 c 128,-1,6
 1205 1325 1205 1325 1180 1303 c 1,7,8
 1137 1272 1137 1272 1110 1110 c 2,9,-1
 1081 938 l 1,10,-1
 1036 938 l 1,11,12
 1036 1149 1036 1149 819 1149 c 0,13,14
 718 1149 718 1149 624.5 1096.5 c 128,-1,15
 531 1044 531 1044 461.5 955 c 128,-1,16
 392 866 392 866 350.5 739.5 c 128,-1,17
 309 613 309 613 309 473 c 0,18,19
 309 271 309 271 404 160 c 128,-1,20
 499 49 499 49 643 49 c 0,21,22
 746 49 746 49 858 120 c 128,-1,23
 970 191 970 191 1012 270 c 1,24,-1
 1057 246 l 1,25,26
 995.379837984 141.245724572 995.379837984 141.245724572 892.5 67.5 c 0,27,28
 770.432098765 -20 770.432098765 -20 590 -20 c 0,29,30
 342.941176471 -20 342.941176471 -20 215 125 c 0,31,32
 92 264.4 92 264.4 92 469 c 0,33,34
 92 604 92 604 136 725.5 c 128,-1,35
 180 847 180 847 254 935.5 c 128,-1,36
 328 1024 328 1024 422.5 1089 c 0,37,38
 611.5 1219 611.5 1219 829 1219 c 0,39,40
 899 1219 899 1219 966 1188 c 128,-1,41
 1033 1157 1033 1157 1047 1157 c 2,42,-1
 1049 1157 l 1,43,44
 1073 1276 1073 1276 1096.5 1326 c 128,-1,45
 1120 1376 1120 1376 1155.5 1418.5 c 0,46,47
 1221.07058824 1497 1221.07058824 1497 1319 1497 c 0,48,0
 1379 1497 1379 1497 1428 1464.5 c 128,-1,1
EndSplineSet
EndChar

StartChar: uni0188
Encoding: 392 392 325
Width: 1163
GlyphClass: 2
Flags: HW
LayerCount: 2
Fore
SplineSet
803 602 m 0,0,1
 723 602 723 602 723 670.5 c 0,2,3
 723 709 723 709 751.5 733.5 c 128,-1,4
 780 758 780 758 809 758 c 1,5,6
 801 860 801 860 616 860 c 0,7,8
 474 860 474 860 370 734 c 128,-1,9
 266 608 266 608 266 414 c 0,10,11
 266 266 266 266 339 161.5 c 128,-1,12
 412 57 412 57 511 57 c 128,-1,13
 610 57 610 57 683 88 c 128,-1,14
 756 119 756 119 827 193 c 1,15,-1
 872 168 l 1,16,17
 797 71 797 71 694 25.5 c 128,-1,18
 591 -20 591 -20 434 -20 c 0,19,20
 247.192771084 -20 247.192771084 -20 147 95.5 c 0,21,22
 66 188.875 66 188.875 66 358 c 0,23,24
 66 420 66 420 78 496 c 0,25,26
 108 674 108 674 254 798 c 128,-1,27
 400 922 400 922 596.5 922 c 128,-1,28
 793 922 793 922 868 850 c 1,29,30
 896.174186779 958.940188877 896.174186779 958.940188877 920.087093389 992.970094439 c 128,-1,31
 944 1027 944 1027 970.5 1059.5 c 128,-1,32
 997 1092 997 1092 1041.5 1110 c 128,-1,33
 1086 1128 1086 1128 1135 1128 c 128,-1,34
 1184 1128 1184 1128 1233 1096 c 128,-1,35
 1282 1064 1282 1064 1282 1009.5 c 128,-1,36
 1282 955 1282 955 1249 921 c 128,-1,37
 1216 887 1216 887 1168.5 887 c 128,-1,38
 1121 887 1121 887 1109.5 921.5 c 128,-1,39
 1098 956 1098 956 1054 956 c 128,-1,40
 1010 956 1010 956 985 934 c 1,41,42
 942 902 942 902 909 705 c 0,43,44
 901 659 901 659 872 630.5 c 128,-1,45
 843 602 843 602 803 602 c 0,0,1
EndSplineSet
EndChar

StartChar: uni0189
Encoding: 393 393 326
Width: 1265
GlyphClass: 2
Flags: HW
LayerCount: 2
Fore
SplineSet
338 70 m 1,0,-1
 516 70 l 2,1,2
 641.210526316 70 641.210526316 70 765 182 c 0,3,4
 904.624536377 308.326961484 904.624536377 308.326961484 960 507.5 c 0,5,6
 991 619 991 619 991 732 c 128,-1,7
 991 845 991 845 964 922.5 c 128,-1,8
 937 1000 937 1000 891 1046 c 0,9,10
 798 1139 798 1139 670 1139 c 2,11,-1
 516 1139 l 1,12,-1
 442 694 l 1,13,-1
 690 694 l 1,14,-1
 674 604 l 1,15,-1
 426 604 l 1,16,-1
 338 70 l 1,0,-1
324 1114 m 1,17,18
 312.818181818 1155 312.818181818 1155 201 1155 c 1,19,-1
 209 1198 l 1,20,-1
 680 1198 l 2,21,22
 920 1198 920 1198 1057 1068.5 c 128,-1,23
 1194 939 1194 939 1194 721 c 0,24,25
 1194 564 1194 564 1137.5 427.5 c 128,-1,26
 1081 291 1081 291 986.5 198.5 c 128,-1,27
 892 106 892 106 766.5 53 c 128,-1,28
 641 0 641 0 504 0 c 2,29,-1
 8 0 l 1,30,-1
 16 43 l 1,31,32
 129.636363636 43 129.636363636 43 152 84 c 1,33,-1
 238 604 l 1,34,-1
 133 604 l 1,35,-1
 150 694 l 1,36,-1
 254 694 l 1,37,-1
 324 1114 l 1,17,18
EndSplineSet
EndChar

StartChar: uni018A
Encoding: 394 394 327
Width: 1488
GlyphClass: 2
Flags: HW
LayerCount: 2
Fore
SplineSet
304.5 961 m 128,-1,1
 330 934 330 934 330 898.5 c 128,-1,2
 330 863 330 863 295.5 833 c 128,-1,3
 261 803 261 803 209 803 c 128,-1,4
 157 803 157 803 127.5 846 c 128,-1,5
 98 889 98 889 98 945.5 c 128,-1,6
 98 1002 98 1002 124 1051 c 128,-1,7
 150 1100 150 1100 195.5 1127.5 c 128,-1,8
 241 1155 241 1155 270 1167 c 0,9,10
 344.916666667 1198 344.916666667 1198 561 1198 c 2,11,-1
 903 1198 l 2,12,13
 1143 1198 1143 1198 1280 1067.5 c 128,-1,14
 1417 937 1417 937 1417 719 c 0,15,16
 1417 562 1417 562 1360.5 425.5 c 128,-1,17
 1304 289 1304 289 1209.5 196.5 c 128,-1,18
 1115 104 1115 104 989.5 51 c 128,-1,19
 864 -2 864 -2 727 -2 c 2,20,-1
 231 -2 l 1,21,-1
 238 41 l 1,22,23
 352.636363636 41 352.636363636 41 375 82 c 1,24,-1
 549 1128 l 1,25,26
 354 1128 354 1128 316.5 1094 c 128,-1,27
 279 1060 279 1060 279 1024 c 128,-1,0
 279 988 279 988 304.5 961 c 128,-1,1
737 1128 m 1,28,-1
 561 68 l 1,29,-1
 739 68 l 2,30,31
 835.162162162 68 835.162162162 68 946.5 145 c 0,32,33
 1054.85743053 219.938783729 1054.85743053 219.938783729 1133 372 c 0,34,35
 1214 529.621621622 1214 529.621621622 1214 743 c 0,36,37
 1214 1025.85714286 1214 1025.85714286 1010 1106 c 0,38,39
 954 1128 954 1128 891 1128 c 2,40,-1
 737 1128 l 1,28,-1
EndSplineSet
EndChar

StartChar: uni018E
Encoding: 398 398 328
Width: 1046
GlyphClass: 2
Flags: HW
AnchorPoint: "Anchor-5" 674 1270 basechar 0
AnchorPoint: "Anchor-3" 696 336 basechar 0
AnchorPoint: "Anchor-2" 334 0 basechar 0
AnchorPoint: "Anchor-1" 334 0 basechar 0
AnchorPoint: "Anchor-0" 649 0 basechar 0
LayerCount: 2
Fore
SplineSet
360 588 m 1,0,1
 314.784810127 571.044303797 314.784810127 571.044303797 297 459 c 1,2,-1
 254 459 l 1,3,-1
 309 786 l 1,4,-1
 352 786 l 1,5,6
 346 742 346 742 346 705.5 c 128,-1,7
 346 669 346 669 373 657 c 1,8,-1
 659 657 l 1,9,-1
 737 1128 l 1,10,-1
 313 1128 l 1,11,12
 289 1119 289 1119 275.5 1091 c 128,-1,13
 262 1063 262 1063 252 999 c 1,14,-1
 209 999 l 1,15,-1
 242 1198 l 1,16,-1
 1067 1198 l 1,17,-1
 1059 1155 l 1,18,19
 946.363636364 1155 946.363636364 1155 924 1114 c 1,20,-1
 752 84 l 1,21,22
 758 62 758 62 784.5 52.5 c 128,-1,23
 811 43 811 43 874 43 c 1,24,-1
 866 0 l 1,25,-1
 -2 0 l 1,26,-1
 -18 199 l 1,27,-1
 23 199 l 1,28,29
 46 91 46 91 94 70 c 1,30,-1
 561 70 l 1,31,-1
 647 588 l 1,32,-1
 360 588 l 1,0,1
EndSplineSet
EndChar

StartChar: uni018F
Encoding: 399 399 329
Width: 1273
GlyphClass: 2
Flags: HW
AnchorPoint: "Anchor-5" 698 1270 basechar 0
AnchorPoint: "Anchor-3" 569 311 basechar 0
AnchorPoint: "Anchor-2" 504 0 basechar 0
AnchorPoint: "Anchor-1" 504 0 basechar 0
AnchorPoint: "Anchor-0" 557 0 basechar 0
LayerCount: 2
Fore
SplineSet
963 504 m 1,0,-1
 272 504 l 1,1,2
 270 481 270 481 270 440 c 0,3,4
 270 263 270 263 336.5 156 c 128,-1,5
 403 49 403 49 512 49 c 0,6,7
 673 49 673 49 794 172.5 c 128,-1,8
 915 296 915 296 963 504 c 1,0,-1
977 573 m 1,9,10
 989 653 989 653 989 725 c 0,11,12
 989 927 989 927 894 1038 c 128,-1,13
 799 1149 799 1149 655 1149 c 0,14,15
 553 1149 553 1149 441 1078.5 c 128,-1,16
 329 1008 329 1008 287 928 c 1,17,-1
 242 952 l 1,18,19
 303.198910082 1056.03814714 303.198910082 1056.03814714 406.5 1131 c 0,20,21
 527.768292683 1219 527.768292683 1219 709 1219 c 0,22,23
 953.666666667 1219 953.666666667 1219 1083 1073.5 c 0,24,25
 1206 935.125 1206 935.125 1206 748.5625 c 128,-1,26
 1206 562 1206 562 1143.5 418 c 128,-1,27
 1081 274 1081 274 980.5 180 c 128,-1,28
 880 86 880 86 755 33 c 128,-1,29
 630 -20 630 -20 502 -20 c 0,30,31
 303 -20 303 -20 179 110 c 128,-1,32
 55 240 55 240 55 453 c 0,33,34
 55 498 55 498 66 573 c 1,35,-1
 977 573 l 1,9,10
EndSplineSet
EndChar

StartChar: uni0190
Encoding: 400 400 330
Width: 1067
GlyphClass: 2
Flags: HW
AnchorPoint: "Anchor-5" 715 1270 basechar 0
AnchorPoint: "Anchor-3" 184 348 basechar 0
AnchorPoint: "Anchor-2" 500 0 basechar 0
AnchorPoint: "Anchor-1" 500 0 basechar 0
AnchorPoint: "Anchor-0" 537 0 basechar 0
LayerCount: 2
Fore
SplineSet
690 631 m 1,0,1
 497 631 497 631 389 543 c 128,-1,2
 281 455 281 455 281 291 c 0,3,4
 281 175 281 175 355.5 112 c 128,-1,5
 430 49 430 49 548.5 49 c 128,-1,6
 667 49 667 49 778 119 c 128,-1,7
 889 189 889 189 932 270 c 1,8,-1
 977 246 l 1,9,10
 867.32278481 54.9493670886 867.32278481 54.9493670886 685.5 3 c 0,11,12
 605 -20 605 -20 503.5 -20 c 128,-1,13
 402 -20 402 -20 321.5 0.5 c 128,-1,14
 241 21 241 21 194 52 c 128,-1,15
 147 83 147 83 117 125 c 0,16,17
 66 196.4 66 196.4 66 285 c 0,18,19
 66 422 66 422 150.5 520 c 128,-1,20
 235 618 235 618 391 664 c 1,21,22
 193 726 193 726 193 872 c 0,23,24
 193 1166.8590604 193 1166.8590604 575.5 1210.5 c 0,25,26
 650 1219 650 1219 721.5 1219 c 128,-1,27
 793 1219 793 1219 835.5 1203.5 c 128,-1,28
 878 1188 878 1188 903 1172.5 c 128,-1,29
 928 1157 928 1157 942 1157 c 0,30,31
 966 1157 966 1157 973 1198 c 1,32,-1
 1020 1198 l 1,33,-1
 997 938 l 1,34,-1
 952 938 l 1,35,36
 952 1023 952 1023 883 1086 c 128,-1,37
 814 1149 814 1149 729 1149 c 0,38,39
 568 1149 568 1149 489 1082 c 128,-1,40
 410 1015 410 1015 410 897 c 0,41,42
 410 700 410 700 700 700 c 1,43,-1
 690 631 l 1,0,1
EndSplineSet
EndChar

StartChar: uni0191
Encoding: 401 401 331
Width: 958
GlyphClass: 2
Flags: HW
LayerCount: 2
Fore
SplineSet
702 657 m 1,0,1
 746.151898734 673.556962025 746.151898734 673.556962025 764 786 c 1,2,-1
 807 786 l 1,3,-1
 752 459 l 1,4,-1
 709 459 l 1,5,6
 717 517 717 517 717 528 c 0,7,8
 717 576 717 576 690 588 c 1,9,-1
 403 588 l 1,10,-1
 305 0 l 2,11,12
 276 -169 276 -169 194 -244 c 128,-1,13
 112 -319 112 -319 8.5 -319 c 128,-1,14
 -95 -319 -95 -319 -172.5 -286 c 128,-1,15
 -250 -253 -250 -253 -250 -195 c 0,16,17
 -250 -160 -250 -160 -219.5 -133 c 128,-1,18
 -189 -106 -189 -106 -156 -106 c 128,-1,19
 -123 -106 -123 -106 -105 -129 c 128,-1,20
 -87 -152 -87 -152 -75 -187.5 c 128,-1,21
 -63 -223 -63 -223 -59 -232.5 c 0,22,23
 -48.2631578947 -258 -48.2631578947 -258 -11.1315789474 -258 c 128,-1,24
 26 -258 26 -258 59.5 -200 c 128,-1,25
 93 -142 93 -142 113 -29 c 1,26,-1
 303 1114 l 1,27,28
 291.818181818 1155 291.818181818 1155 180 1155 c 1,29,-1
 188 1198 l 1,30,-1
 1014 1198 l 1,31,-1
 981 999 l 1,32,-1
 938 999 l 1,33,34
 944 1042 944 1042 944 1079 c 128,-1,35
 944 1116 944 1116 918 1128 c 1,36,-1
 494 1128 l 1,37,-1
 416 657 l 1,38,-1
 702 657 l 1,0,1
EndSplineSet
EndChar

StartChar: florin
Encoding: 402 402 332
Width: 518
GlyphClass: 2
Flags: HW
LayerCount: 2
Fore
SplineSet
716 1257 m 128,-1,1
 772 1224 772 1224 772 1182.5 c 128,-1,2
 772 1141 772 1141 742 1117.5 c 128,-1,3
 712 1094 712 1094 678.5 1094 c 128,-1,4
 645 1094 645 1094 631 1108 c 128,-1,5
 617 1122 617 1122 614.5 1142 c 128,-1,6
 612 1162 612 1162 610 1181.5 c 0,7,8
 605.128205128 1229 605.128205128 1229 561.564102564 1229 c 128,-1,9
 518 1229 518 1229 483.5 1170 c 128,-1,10
 449 1111 449 1111 430 999 c 2,11,-1
 414 901 l 1,12,-1
 541 901 l 1,13,-1
 530 840 l 1,14,-1
 403 840 l 1,15,-1
 262 0 l 2,16,17
 233 -169 233 -169 151 -244 c 128,-1,18
 69 -319 69 -319 -34.5 -319 c 128,-1,19
 -138 -319 -138 -319 -215.5 -286 c 128,-1,20
 -293 -253 -293 -253 -293 -195 c 0,21,22
 -293 -160 -293 -160 -262.5 -133 c 128,-1,23
 -232 -106 -232 -106 -199 -106 c 128,-1,24
 -166 -106 -166 -106 -148 -129 c 128,-1,25
 -130 -152 -130 -152 -118 -187.5 c 128,-1,26
 -106 -223 -106 -223 -102 -232.5 c 0,27,28
 -91.2631578947 -258 -91.2631578947 -258 -53.6315789474 -258 c 128,-1,29
 -16 -258 -16 -258 19.5 -199.5 c 128,-1,30
 55 -141 55 -141 74 -29 c 2,31,-1
 219 840 l 1,32,-1
 117 840 l 1,33,-1
 127 901 l 1,34,-1
 229 901 l 1,35,-1
 240 971 l 1,36,37
 256 1081 256 1081 303.5 1154.5 c 0,38,39
 391.068027211 1290 391.068027211 1290 547 1290 c 0,40,0
 660 1290 660 1290 716 1257 c 128,-1,1
EndSplineSet
EndChar

StartChar: uni0193
Encoding: 403 403 333
Width: 1277
GlyphClass: 2
Flags: HW
LayerCount: 2
Fore
SplineSet
920 508 m 1,0,1
 908.818181818 549 908.818181818 549 797 549 c 1,2,-1
 803 592 l 1,3,-1
 1249 592 l 1,4,-1
 1243 549 l 1,5,6
 1130.36363636 549 1130.36363636 549 1108 508 c 1,7,-1
 1049 164 l 1,8,9
 1008.56081081 106.533783784 1008.56081081 106.533783784 929.780405405 62.7668918919 c 0,10,11
 780.8 -20 780.8 -20 632.9 -20 c 128,-1,12
 485 -20 485 -20 385 20 c 128,-1,13
 285 60 285 60 221.5 128.5 c 0,14,15
 90 270.354330709 90 270.354330709 90 477 c 0,16,17
 90 611 90 611 136.5 731.5 c 128,-1,18
 183 852 183 852 260.5 939 c 128,-1,19
 338 1026 338 1026 436 1090.5 c 0,20,21
 631.240310078 1219 631.240310078 1219 848 1219 c 0,22,23
 917 1219 917 1219 994 1188 c 128,-1,24
 1071 1157 1071 1157 1085 1157 c 2,25,-1
 1087 1157 l 1,26,27
 1118.2529274 1309.58782201 1118.2529274 1309.58782201 1157 1369 c 0,28,29
 1212.26954178 1453.74663073 1212.26954178 1453.74663073 1265.13477089 1475.37331536 c 128,-1,30
 1318 1497 1318 1497 1367 1497 c 128,-1,31
 1416 1497 1416 1497 1464.5 1464.5 c 128,-1,32
 1513 1432 1513 1432 1513 1377 c 128,-1,33
 1513 1322 1513 1322 1482.5 1288.5 c 128,-1,34
 1452 1255 1452 1255 1403.5 1255 c 128,-1,35
 1355 1255 1355 1255 1341.5 1290 c 128,-1,36
 1328 1325 1328 1325 1285 1325 c 128,-1,37
 1242 1325 1242 1325 1217 1303 c 1,38,39
 1176 1273 1176 1273 1143 1073 c 1,40,-1
 1120 938 l 1,41,-1
 1075 938 l 1,42,43
 1075 1031 1075 1031 1018.5 1090 c 128,-1,44
 962 1149 962 1149 850 1149 c 128,-1,45
 738 1149 738 1149 640.5 1091.5 c 128,-1,46
 543 1034 543 1034 468 939 c 128,-1,47
 393 844 393 844 347 712 c 128,-1,48
 301 580 301 580 301 458.5 c 128,-1,49
 301 337 301 337 330 258.5 c 128,-1,50
 359 180 359 180 407.5 136 c 0,51,52
 503.397727273 49 503.397727273 49 622.198863636 49 c 128,-1,53
 741 49 741 49 848 88 c 1,54,-1
 920 508 l 1,0,1
EndSplineSet
EndChar

StartChar: uni0194
Encoding: 404 404 334
Width: 1069
GlyphClass: 2
Flags: HW
LayerCount: 2
Fore
SplineSet
514 1198 m 1,0,-1
 506 1155 l 1,1,2
 425 1155 425 1155 395 1137 c 1,3,-1
 588 641 l 1,4,-1
 987 1135 l 1,5,6
 964 1155 964 1155 874 1155 c 1,7,-1
 883 1198 l 1,8,-1
 1196 1198 l 1,9,-1
 1188 1155 l 1,10,11
 1082.81818182 1155 1082.81818182 1155 1053 1114 c 1,12,-1
 612 571 l 1,13,14
 670 395 670 395 670 266 c 128,-1,15
 670 137 670 137 605.5 58.5 c 128,-1,16
 541 -20 541 -20 434 -20 c 0,17,18
 283 -20 283 -20 283 129 c 0,19,20
 283 221.098039216 283 221.098039216 318.5 283.049019608 c 0,21,22
 360.646919431 356.599526066 360.646919431 356.599526066 434 455 c 1,23,24
 410 535 410 535 360 672 c 2,25,-1
 197 1112 l 2,26,27
 181 1155 181 1155 72 1155 c 1,28,-1
 80 1198 l 1,29,-1
 514 1198 l 1,0,-1
459 375 m 1,30,31
 423 322 423 322 408.5 297.5 c 0,32,33
 371 234.137931034 371 234.137931034 371 147 c 0,34,35
 371 115.833333333 371 115.833333333 385.5 98.9166666667 c 128,-1,36
 400 82 400 82 403 76 c 1,37,38
 434 76 434 76 456.5 129.5 c 128,-1,39
 479 183 479 183 479 235 c 128,-1,40
 479 287 479 287 459 375 c 1,30,31
EndSplineSet
EndChar

StartChar: uni0196
Encoding: 406 406 335
Width: 679
GlyphClass: 2
Flags: HW
AnchorPoint: "Anchor-5" 428 1270 basechar 0
AnchorPoint: "Anchor-3" 315 602 basechar 0
AnchorPoint: "Anchor-2" 303 0 basechar 0
AnchorPoint: "Anchor-1" 303 0 basechar 0
AnchorPoint: "Anchor-0" 330 0 basechar 0
LayerCount: 2
Fore
SplineSet
295 1114 m 1,0,1
 283.818181818 1155 283.818181818 1155 172 1155 c 1,2,-1
 180 1198 l 1,3,-1
 506 1198 l 1,4,-1
 336 188 l 1,5,6
 332 156 332 156 332 141 c 0,7,8
 332 57 332 57 422 57 c 0,9,10
 458 57 458 57 502.5 93.5 c 128,-1,11
 547 130 547 130 571 193 c 1,12,-1
 616 168 l 1,13,14
 541 -20 541 -20 339 -20 c 128,-1,15
 137 -20 137 -20 137 147 c 0,16,17
 137 175 137 175 143 205 c 2,18,-1
 295 1114 l 1,0,1
EndSplineSet
EndChar

StartChar: uni0197
Encoding: 407 407 336
Width: 665
GlyphClass: 2
Flags: HW
AnchorPoint: "Anchor-5" 473 1270 basechar 0
LayerCount: 2
Fore
SplineSet
362 84 m 1,0,1
 373.181818182 43 373.181818182 43 485 43 c 1,2,-1
 477 0 l 1,3,-1
 31 0 l 1,4,-1
 39 43 l 1,5,6
 151.636363636 43 151.636363636 43 174 84 c 1,7,-1
 254 567 l 1,8,-1
 68 567 l 1,9,-1
 80 637 l 1,10,-1
 266 637 l 1,11,-1
 346 1114 l 1,12,13
 334.818181818 1155 334.818181818 1155 223 1155 c 1,14,-1
 231 1198 l 1,15,-1
 678 1198 l 1,16,-1
 670 1155 l 1,17,18
 557.363636364 1155 557.363636364 1155 535 1114 c 1,19,-1
 455 637 l 1,20,-1
 621 637 l 1,21,-1
 608 567 l 1,22,-1
 442 567 l 1,23,-1
 362 84 l 1,0,1
EndSplineSet
EndChar

StartChar: uni0198
Encoding: 408 408 337
Width: 1413
GlyphClass: 2
Flags: HW
LayerCount: 2
Fore
SplineSet
559 84 m 1,0,1
 570.181818182 43 570.181818182 43 682 43 c 1,2,-1
 674 0 l 1,3,-1
 231 0 l 1,4,-1
 240 43 l 1,5,6
 352.636363636 43 352.636363636 43 375 84 c 1,7,-1
 549 1128 l 1,8,9
 354 1128 354 1128 316.5 1094 c 128,-1,10
 279 1060 279 1060 279 1024 c 128,-1,11
 279 988 279 988 304.5 961 c 128,-1,12
 330 934 330 934 330 898.5 c 128,-1,13
 330 863 330 863 295.5 833 c 128,-1,14
 261 803 261 803 209 803 c 128,-1,15
 157 803 157 803 127.5 846 c 128,-1,16
 98 889 98 889 98 945.5 c 128,-1,17
 98 1002 98 1002 124 1051 c 128,-1,18
 150 1100 150 1100 195.5 1127.5 c 128,-1,19
 241 1155 241 1155 270 1167 c 0,20,21
 344.916666667 1198 344.916666667 1198 561 1198 c 2,22,-1
 874 1198 l 1,23,-1
 866 1155 l 1,24,25
 753.363636364 1155 753.363636364 1155 731 1114 c 1,26,-1
 559 84 l 1,0,1
946 0 m 1,27,-1
 954 43 l 1,28,29
 1003 43 1003 43 1030 49 c 1,30,-1
 664 643 l 1,31,-1
 1247 1141 l 1,32,33
 1222 1155 1222 1155 1145 1155 c 1,34,-1
 1153 1198 l 1,35,-1
 1475 1198 l 1,36,-1
 1466 1155 l 1,37,38
 1427 1155 1427 1155 1397 1145.5 c 128,-1,39
 1367 1136 1367 1136 1358.5 1129.5 c 128,-1,40
 1350 1123 1350 1123 1333 1108 c 2,41,-1
 852 700 l 1,42,-1
 1229 76 l 1,43,44
 1255 43 1255 43 1354 43 c 1,45,-1
 1346 0 l 1,46,-1
 946 0 l 1,27,-1
EndSplineSet
EndChar

StartChar: uni0199
Encoding: 409 409 338
Width: 991
GlyphClass: 2
Flags: HW
LayerCount: 2
Fore
SplineSet
772 1165 m 0,0,1
 772 1130 772 1130 741 1103.5 c 128,-1,2
 710 1077 710 1077 676.5 1077 c 128,-1,3
 643 1077 643 1077 625 1099.5 c 128,-1,4
 607 1122 607 1122 595 1158 c 128,-1,5
 583 1194 583 1194 579 1203 c 0,6,7
 567.444444444 1229 567.444444444 1229 530.222222222 1229 c 128,-1,8
 493 1229 493 1229 459 1170.5 c 128,-1,9
 425 1112 425 1112 406 999 c 2,10,-1
 238 0 l 1,11,-1
 53 0 l 1,12,-1
 215 971 l 2,13,14
 244 1140 244 1140 326 1215 c 128,-1,15
 408 1290 408 1290 511.5 1290 c 128,-1,16
 615 1290 615 1290 693.5 1256.5 c 128,-1,17
 772 1223 772 1223 772 1165 c 0,0,1
987 901 m 1,18,-1
 979 858 l 1,19,20
 901 858 901 858 862 831 c 1,21,-1
 530 571 l 1,22,-1
 801 82 l 1,23,24
 808 58 808 58 835.5 50.5 c 128,-1,25
 863 43 863 43 924 43 c 1,26,-1
 915 0 l 1,27,-1
 629 0 l 1,28,-1
 340 520 l 1,29,-1
 756 846 l 1,30,31
 729 858 729 858 657 858 c 1,32,-1
 666 901 l 1,33,-1
 987 901 l 1,18,-1
EndSplineSet
EndChar

StartChar: uni019D
Encoding: 413 413 339
Width: 1300
GlyphClass: 2
Flags: HW
LayerCount: 2
Fore
SplineSet
303 1114 m 1,0,1
 291.818181818 1155 291.818181818 1155 180 1155 c 1,2,-1
 188 1198 l 1,3,-1
 463 1198 l 1,4,-1
 999 360 l 1,5,-1
 1126 1114 l 1,6,7
 1120 1136 1120 1136 1093.5 1145.5 c 128,-1,8
 1067 1155 1067 1155 1004 1155 c 1,9,-1
 1012 1198 l 1,10,-1
 1339 1198 l 1,11,-1
 1331 1155 l 1,12,13
 1218.36363636 1155 1218.36363636 1155 1196 1114 c 1,14,-1
 1010 0 l 1,15,-1
 991 0 l 1,16,-1
 356 1018 l 1,17,-1
 186 0 l 2,18,19
 150.863833137 -207.1184573 150.863833137 -207.1184573 109.5 -272.5 c 0,20,21
 22.5102040816 -410 22.5102040816 -410 -96 -410 c 0,22,23
 -156 -410 -156 -410 -206 -377.5 c 128,-1,24
 -256 -345 -256 -345 -256 -290.5 c 128,-1,25
 -256 -236 -256 -236 -223 -202 c 128,-1,26
 -190 -168 -190 -168 -143 -168 c 128,-1,27
 -96 -168 -96 -168 -82.5 -203 c 128,-1,28
 -69 -238 -69 -238 -27 -238 c 128,-1,29
 15 -238 15 -238 41 -215 c 1,30,31
 86 -183 86 -183 119 14 c 2,32,-1
 303 1114 l 1,0,1
EndSplineSet
EndChar

